<?xml version="1.0" encoding="utf-8" standalone="no"?>
<!DOCTYPE svg PUBLIC "-//W3C//DTD SVG 1.1//EN"
  "http://www.w3.org/Graphics/SVG/1.1/DTD/svg11.dtd">
<svg xmlns:xlink="http://www.w3.org/1999/xlink" width="720pt" height="360pt" viewBox="0 0 720 360" xmlns="http://www.w3.org/2000/svg" version="1.1">
 <metadata>
  <rdf:RDF xmlns:dc="http://purl.org/dc/elements/1.1/" xmlns:cc="http://creativecommons.org/ns#" xmlns:rdf="http://www.w3.org/1999/02/22-rdf-syntax-ns#">
   <cc:Work>
    <dc:type rdf:resource="http://purl.org/dc/dcmitype/StillImage"/>
    <dc:date>2023-07-20T16:17:46.868503</dc:date>
    <dc:format>image/svg+xml</dc:format>
    <dc:creator>
     <cc:Agent>
      <dc:title>Matplotlib v3.7.1, https://matplotlib.org/</dc:title>
     </cc:Agent>
    </dc:creator>
   </cc:Work>
  </rdf:RDF>
 </metadata>
 <defs>
  <style type="text/css">*{stroke-linejoin: round; stroke-linecap: butt}</style>
 </defs>
 <g id="figure_1">
  <g id="patch_1">
   <path d="M 0 360 
L 720 360 
L 720 0 
L 0 0 
z
" style="fill: #ffffff"/>
  </g>
  <g id="axes_1">
   <g id="patch_2">
    <path d="M 62.35 330.32 
L 357.179959 330.32 
L 357.179959 10.8 
L 62.35 10.8 
z
" style="fill: #ffffff"/>
   </g>
   <g id="PathCollection_1">
    <defs>
     <path id="mabd2839173" d="M 0 1.118034 
C 0.296506 1.118034 0.580908 1.000231 0.790569 0.790569 
C 1.000231 0.580908 1.118034 0.296506 1.118034 0 
C 1.118034 -0.296506 1.000231 -0.580908 0.790569 -0.790569 
C 0.580908 -1.000231 0.296506 -1.118034 0 -1.118034 
C -0.296506 -1.118034 -0.580908 -1.000231 -0.790569 -0.790569 
C -1.000231 -0.580908 -1.118034 -0.296506 -1.118034 0 
C -1.118034 0.296506 -1.000231 0.580908 -0.790569 0.790569 
C -0.580908 1.000231 -0.296506 1.118034 0 1.118034 
z
" style="stroke: #0000ff"/>
    </defs>
    <g clip-path="url(#p206bc4f567)">
     <use xlink:href="#mabd2839173" x="75.751362" y="298.325661" style="fill: #0000ff; stroke: #0000ff"/>
     <use xlink:href="#mabd2839173" x="81.707523" y="25.323636" style="fill: #0000ff; stroke: #0000ff"/>
     <use xlink:href="#mabd2839173" x="87.663683" y="244.891324" style="fill: #0000ff; stroke: #0000ff"/>
     <use xlink:href="#mabd2839173" x="93.619844" y="119.932795" style="fill: #0000ff; stroke: #0000ff"/>
     <use xlink:href="#mabd2839173" x="99.576005" y="225.998923" style="fill: #0000ff; stroke: #0000ff"/>
     <use xlink:href="#mabd2839173" x="105.532166" y="172.267265" style="fill: #0000ff; stroke: #0000ff"/>
     <use xlink:href="#mabd2839173" x="111.488326" y="218.914579" style="fill: #0000ff; stroke: #0000ff"/>
     <use xlink:href="#mabd2839173" x="117.444487" y="205.45915" style="fill: #0000ff; stroke: #0000ff"/>
     <use xlink:href="#mabd2839173" x="123.400648" y="216.764778" style="fill: #0000ff; stroke: #0000ff"/>
     <use xlink:href="#mabd2839173" x="129.356809" y="228.379152" style="fill: #0000ff; stroke: #0000ff"/>
     <use xlink:href="#mabd2839173" x="135.31297" y="216.916943" style="fill: #0000ff; stroke: #0000ff"/>
     <use xlink:href="#mabd2839173" x="141.26913" y="245.1536" style="fill: #0000ff; stroke: #0000ff"/>
     <use xlink:href="#mabd2839173" x="147.225291" y="218.2058" style="fill: #0000ff; stroke: #0000ff"/>
     <use xlink:href="#mabd2839173" x="153.181452" y="257.960763" style="fill: #0000ff; stroke: #0000ff"/>
     <use xlink:href="#mabd2839173" x="159.137613" y="220.063652" style="fill: #0000ff; stroke: #0000ff"/>
     <use xlink:href="#mabd2839173" x="165.093773" y="268.058661" style="fill: #0000ff; stroke: #0000ff"/>
     <use xlink:href="#mabd2839173" x="171.049934" y="222.195204" style="fill: #0000ff; stroke: #0000ff"/>
     <use xlink:href="#mabd2839173" x="177.006095" y="276.224451" style="fill: #0000ff; stroke: #0000ff"/>
     <use xlink:href="#mabd2839173" x="182.962256" y="224.43994" style="fill: #0000ff; stroke: #0000ff"/>
     <use xlink:href="#mabd2839173" x="188.918417" y="282.964078" style="fill: #0000ff; stroke: #0000ff"/>
     <use xlink:href="#mabd2839173" x="194.874577" y="226.708252" style="fill: #0000ff; stroke: #0000ff"/>
     <use xlink:href="#mabd2839173" x="200.830738" y="288.621063" style="fill: #0000ff; stroke: #0000ff"/>
     <use xlink:href="#mabd2839173" x="206.786899" y="228.94962" style="fill: #0000ff; stroke: #0000ff"/>
     <use xlink:href="#mabd2839173" x="212.74306" y="293.436825" style="fill: #0000ff; stroke: #0000ff"/>
     <use xlink:href="#mabd2839173" x="218.699221" y="231.135847" style="fill: #0000ff; stroke: #0000ff"/>
     <use xlink:href="#mabd2839173" x="224.655381" y="297.585982" style="fill: #0000ff; stroke: #0000ff"/>
     <use xlink:href="#mabd2839173" x="230.611542" y="233.251817" style="fill: #0000ff; stroke: #0000ff"/>
     <use xlink:href="#mabd2839173" x="236.567703" y="301.197961" style="fill: #0000ff; stroke: #0000ff"/>
     <use xlink:href="#mabd2839173" x="242.523864" y="235.290214" style="fill: #0000ff; stroke: #0000ff"/>
     <use xlink:href="#mabd2839173" x="248.480024" y="304.370724" style="fill: #0000ff; stroke: #0000ff"/>
     <use xlink:href="#mabd2839173" x="254.436185" y="237.248415" style="fill: #0000ff; stroke: #0000ff"/>
     <use xlink:href="#mabd2839173" x="260.392346" y="307.179781" style="fill: #0000ff; stroke: #0000ff"/>
     <use xlink:href="#mabd2839173" x="266.348507" y="239.126615" style="fill: #0000ff; stroke: #0000ff"/>
     <use xlink:href="#mabd2839173" x="272.304668" y="309.684274" style="fill: #0000ff; stroke: #0000ff"/>
     <use xlink:href="#mabd2839173" x="278.260828" y="240.926684" style="fill: #0000ff; stroke: #0000ff"/>
     <use xlink:href="#mabd2839173" x="284.216989" y="311.931183" style="fill: #0000ff; stroke: #0000ff"/>
     <use xlink:href="#mabd2839173" x="290.17315" y="242.651446" style="fill: #0000ff; stroke: #0000ff"/>
     <use xlink:href="#mabd2839173" x="296.129311" y="313.958298" style="fill: #0000ff; stroke: #0000ff"/>
     <use xlink:href="#mabd2839173" x="302.085471" y="244.304238" style="fill: #0000ff; stroke: #0000ff"/>
     <use xlink:href="#mabd2839173" x="308.041632" y="315.796364" style="fill: #0000ff; stroke: #0000ff"/>
     <use xlink:href="#mabd2839173" x="313.997793" y="245.888626" style="fill: #0000ff; stroke: #0000ff"/>
     <use xlink:href="#mabd2839173" x="319.953954" y="315.736692" style="fill: #0000ff; stroke: #0000ff"/>
     <use xlink:href="#mabd2839173" x="325.910115" y="247.408229" style="fill: #0000ff; stroke: #0000ff"/>
     <use xlink:href="#mabd2839173" x="331.866275" y="311.440966" style="fill: #0000ff; stroke: #0000ff"/>
     <use xlink:href="#mabd2839173" x="337.822436" y="248.866611" style="fill: #0000ff; stroke: #0000ff"/>
     <use xlink:href="#mabd2839173" x="343.778597" y="307.604444" style="fill: #0000ff; stroke: #0000ff"/>
    </g>
   </g>
   <g id="PathCollection_2">
    <defs>
     <path id="mc7681062b9" d="M 0 1.118034 
C 0.296506 1.118034 0.580908 1.000231 0.790569 0.790569 
C 1.000231 0.580908 1.118034 0.296506 1.118034 0 
C 1.118034 -0.296506 1.000231 -0.580908 0.790569 -0.790569 
C 0.580908 -1.000231 0.296506 -1.118034 0 -1.118034 
C -0.296506 -1.118034 -0.580908 -1.000231 -0.790569 -0.790569 
C -1.000231 -0.580908 -1.118034 -0.296506 -1.118034 0 
C -1.118034 0.296506 -1.000231 0.580908 -0.790569 0.790569 
C -0.580908 1.000231 -0.296506 1.118034 0 1.118034 
z
" style="stroke: #ff0000"/>
    </defs>
    <g clip-path="url(#p206bc4f567)">
     <use xlink:href="#mc7681062b9" x="75.751362" y="161.824649" style="fill: #ff0000; stroke: #ff0000"/>
     <use xlink:href="#mc7681062b9" x="81.707523" y="135.10748" style="fill: #ff0000; stroke: #ff0000"/>
     <use xlink:href="#mc7681062b9" x="87.663683" y="182.41206" style="fill: #ff0000; stroke: #ff0000"/>
     <use xlink:href="#mc7681062b9" x="93.619844" y="172.965859" style="fill: #ff0000; stroke: #ff0000"/>
     <use xlink:href="#mc7681062b9" x="99.576005" y="199.133094" style="fill: #ff0000; stroke: #ff0000"/>
     <use xlink:href="#mc7681062b9" x="105.532166" y="195.590922" style="fill: #ff0000; stroke: #ff0000"/>
     <use xlink:href="#mc7681062b9" x="111.488326" y="212.186864" style="fill: #ff0000; stroke: #ff0000"/>
     <use xlink:href="#mc7681062b9" x="117.444487" y="211.111964" style="fill: #ff0000; stroke: #ff0000"/>
     <use xlink:href="#mc7681062b9" x="123.400648" y="222.571965" style="fill: #ff0000; stroke: #ff0000"/>
     <use xlink:href="#mc7681062b9" x="129.356809" y="222.648048" style="fill: #ff0000; stroke: #ff0000"/>
     <use xlink:href="#mc7681062b9" x="135.31297" y="231.035272" style="fill: #ff0000; stroke: #ff0000"/>
     <use xlink:href="#mc7681062b9" x="141.26913" y="231.6797" style="fill: #ff0000; stroke: #ff0000"/>
     <use xlink:href="#mc7681062b9" x="147.225291" y="238.083281" style="fill: #ff0000; stroke: #ff0000"/>
     <use xlink:href="#mc7681062b9" x="153.181452" y="239.012207" style="fill: #ff0000; stroke: #ff0000"/>
     <use xlink:href="#mc7681062b9" x="159.137613" y="244.061156" style="fill: #ff0000; stroke: #ff0000"/>
     <use xlink:href="#mc7681062b9" x="165.093773" y="245.126932" style="fill: #ff0000; stroke: #ff0000"/>
     <use xlink:href="#mc7681062b9" x="171.049934" y="249.209827" style="fill: #ff0000; stroke: #ff0000"/>
     <use xlink:href="#mc7681062b9" x="177.006095" y="250.332195" style="fill: #ff0000; stroke: #ff0000"/>
     <use xlink:href="#mc7681062b9" x="182.962256" y="253.702009" style="fill: #ff0000; stroke: #ff0000"/>
     <use xlink:href="#mc7681062b9" x="188.918417" y="254.836165" style="fill: #ff0000; stroke: #ff0000"/>
     <use xlink:href="#mc7681062b9" x="194.874577" y="257.664658" style="fill: #ff0000; stroke: #ff0000"/>
     <use xlink:href="#mc7681062b9" x="200.830738" y="258.785342" style="fill: #ff0000; stroke: #ff0000"/>
     <use xlink:href="#mc7681062b9" x="206.786899" y="261.193222" style="fill: #ff0000; stroke: #ff0000"/>
     <use xlink:href="#mc7681062b9" x="212.74306" y="262.286336" style="fill: #ff0000; stroke: #ff0000"/>
     <use xlink:href="#mc7681062b9" x="218.699221" y="264.360915" style="fill: #ff0000; stroke: #ff0000"/>
     <use xlink:href="#mc7681062b9" x="224.655381" y="265.4189" style="fill: #ff0000; stroke: #ff0000"/>
     <use xlink:href="#mc7681062b9" x="230.611542" y="267.224889" style="fill: #ff0000; stroke: #ff0000"/>
     <use xlink:href="#mc7681062b9" x="236.567703" y="268.244088" style="fill: #ff0000; stroke: #ff0000"/>
     <use xlink:href="#mc7681062b9" x="242.523864" y="269.830469" style="fill: #ff0000; stroke: #ff0000"/>
     <use xlink:href="#mc7681062b9" x="248.480024" y="270.809569" style="fill: #ff0000; stroke: #ff0000"/>
     <use xlink:href="#mc7681062b9" x="254.436185" y="272.214098" style="fill: #ff0000; stroke: #ff0000"/>
     <use xlink:href="#mc7681062b9" x="260.392346" y="273.153198" style="fill: #ff0000; stroke: #ff0000"/>
     <use xlink:href="#mc7681062b9" x="266.348507" y="274.405445" style="fill: #ff0000; stroke: #ff0000"/>
     <use xlink:href="#mc7681062b9" x="272.304668" y="275.305479" style="fill: #ff0000; stroke: #ff0000"/>
     <use xlink:href="#mc7681062b9" x="278.260828" y="276.428933" style="fill: #ff0000; stroke: #ff0000"/>
     <use xlink:href="#mc7681062b9" x="284.216989" y="277.291314" style="fill: #ff0000; stroke: #ff0000"/>
     <use xlink:href="#mc7681062b9" x="290.17315" y="278.304872" style="fill: #ff0000; stroke: #ff0000"/>
     <use xlink:href="#mc7681062b9" x="296.129311" y="279.131268" style="fill: #ff0000; stroke: #ff0000"/>
     <use xlink:href="#mc7681062b9" x="302.085471" y="280.050301" style="fill: #ff0000; stroke: #ff0000"/>
     <use xlink:href="#mc7681062b9" x="308.041632" y="280.842495" style="fill: #ff0000; stroke: #ff0000"/>
     <use xlink:href="#mc7681062b9" x="313.997793" y="280.812659" style="fill: #ff0000; stroke: #ff0000"/>
     <use xlink:href="#mc7681062b9" x="319.953954" y="281.57246" style="fill: #ff0000; stroke: #ff0000"/>
     <use xlink:href="#mc7681062b9" x="325.910115" y="279.424598" style="fill: #ff0000; stroke: #ff0000"/>
     <use xlink:href="#mc7681062b9" x="331.866275" y="280.153789" style="fill: #ff0000; stroke: #ff0000"/>
     <use xlink:href="#mc7681062b9" x="337.822436" y="278.235527" style="fill: #ff0000; stroke: #ff0000"/>
     <use xlink:href="#mc7681062b9" x="343.778597" y="278.93583" style="fill: #ff0000; stroke: #ff0000"/>
    </g>
   </g>
   <g id="matplotlib.axis_1">
    <g id="xtick_1">
     <g id="line2d_1">
      <defs>
       <path id="m8e757814bc" d="M 0 0 
L 0 3.5 
" style="stroke: #000000; stroke-width: 0.8"/>
      </defs>
      <g>
       <use xlink:href="#m8e757814bc" x="111.488326" y="330.32" style="stroke: #000000; stroke-width: 0.8"/>
      </g>
     </g>
     <g id="text_1">
      <!-- 10 -->
      <g transform="translate(103.853326 346.438125) scale(0.12 -0.12)">
       <defs>
        <path id="DejaVuSans-31" d="M 794 531 
L 1825 531 
L 1825 4091 
L 703 3866 
L 703 4441 
L 1819 4666 
L 2450 4666 
L 2450 531 
L 3481 531 
L 3481 0 
L 794 0 
L 794 531 
z
" transform="scale(0.015625)"/>
        <path id="DejaVuSans-30" d="M 2034 4250 
Q 1547 4250 1301 3770 
Q 1056 3291 1056 2328 
Q 1056 1369 1301 889 
Q 1547 409 2034 409 
Q 2525 409 2770 889 
Q 3016 1369 3016 2328 
Q 3016 3291 2770 3770 
Q 2525 4250 2034 4250 
z
M 2034 4750 
Q 2819 4750 3233 4129 
Q 3647 3509 3647 2328 
Q 3647 1150 3233 529 
Q 2819 -91 2034 -91 
Q 1250 -91 836 529 
Q 422 1150 422 2328 
Q 422 3509 836 4129 
Q 1250 4750 2034 4750 
z
" transform="scale(0.015625)"/>
       </defs>
       <use xlink:href="#DejaVuSans-31"/>
       <use xlink:href="#DejaVuSans-30" x="63.623047"/>
      </g>
     </g>
    </g>
    <g id="xtick_2">
     <g id="line2d_2">
      <g>
       <use xlink:href="#m8e757814bc" x="171.049934" y="330.32" style="stroke: #000000; stroke-width: 0.8"/>
      </g>
     </g>
     <g id="text_2">
      <!-- 20 -->
      <g transform="translate(163.414934 346.438125) scale(0.12 -0.12)">
       <defs>
        <path id="DejaVuSans-32" d="M 1228 531 
L 3431 531 
L 3431 0 
L 469 0 
L 469 531 
Q 828 903 1448 1529 
Q 2069 2156 2228 2338 
Q 2531 2678 2651 2914 
Q 2772 3150 2772 3378 
Q 2772 3750 2511 3984 
Q 2250 4219 1831 4219 
Q 1534 4219 1204 4116 
Q 875 4013 500 3803 
L 500 4441 
Q 881 4594 1212 4672 
Q 1544 4750 1819 4750 
Q 2544 4750 2975 4387 
Q 3406 4025 3406 3419 
Q 3406 3131 3298 2873 
Q 3191 2616 2906 2266 
Q 2828 2175 2409 1742 
Q 1991 1309 1228 531 
z
" transform="scale(0.015625)"/>
       </defs>
       <use xlink:href="#DejaVuSans-32"/>
       <use xlink:href="#DejaVuSans-30" x="63.623047"/>
      </g>
     </g>
    </g>
    <g id="xtick_3">
     <g id="line2d_3">
      <g>
       <use xlink:href="#m8e757814bc" x="230.611542" y="330.32" style="stroke: #000000; stroke-width: 0.8"/>
      </g>
     </g>
     <g id="text_3">
      <!-- 30 -->
      <g transform="translate(222.976542 346.438125) scale(0.12 -0.12)">
       <defs>
        <path id="DejaVuSans-33" d="M 2597 2516 
Q 3050 2419 3304 2112 
Q 3559 1806 3559 1356 
Q 3559 666 3084 287 
Q 2609 -91 1734 -91 
Q 1441 -91 1130 -33 
Q 819 25 488 141 
L 488 750 
Q 750 597 1062 519 
Q 1375 441 1716 441 
Q 2309 441 2620 675 
Q 2931 909 2931 1356 
Q 2931 1769 2642 2001 
Q 2353 2234 1838 2234 
L 1294 2234 
L 1294 2753 
L 1863 2753 
Q 2328 2753 2575 2939 
Q 2822 3125 2822 3475 
Q 2822 3834 2567 4026 
Q 2313 4219 1838 4219 
Q 1578 4219 1281 4162 
Q 984 4106 628 3988 
L 628 4550 
Q 988 4650 1302 4700 
Q 1616 4750 1894 4750 
Q 2613 4750 3031 4423 
Q 3450 4097 3450 3541 
Q 3450 3153 3228 2886 
Q 3006 2619 2597 2516 
z
" transform="scale(0.015625)"/>
       </defs>
       <use xlink:href="#DejaVuSans-33"/>
       <use xlink:href="#DejaVuSans-30" x="63.623047"/>
      </g>
     </g>
    </g>
    <g id="xtick_4">
     <g id="line2d_4">
      <g>
       <use xlink:href="#m8e757814bc" x="290.17315" y="330.32" style="stroke: #000000; stroke-width: 0.8"/>
      </g>
     </g>
     <g id="text_4">
      <!-- 40 -->
      <g transform="translate(282.53815 346.438125) scale(0.12 -0.12)">
       <defs>
        <path id="DejaVuSans-34" d="M 2419 4116 
L 825 1625 
L 2419 1625 
L 2419 4116 
z
M 2253 4666 
L 3047 4666 
L 3047 1625 
L 3713 1625 
L 3713 1100 
L 3047 1100 
L 3047 0 
L 2419 0 
L 2419 1100 
L 313 1100 
L 313 1709 
L 2253 4666 
z
" transform="scale(0.015625)"/>
       </defs>
       <use xlink:href="#DejaVuSans-34"/>
       <use xlink:href="#DejaVuSans-30" x="63.623047"/>
      </g>
     </g>
    </g>
    <g id="xtick_5">
     <g id="line2d_5">
      <g>
       <use xlink:href="#m8e757814bc" x="349.734758" y="330.32" style="stroke: #000000; stroke-width: 0.8"/>
      </g>
     </g>
     <g id="text_5">
      <!-- 50 -->
      <g transform="translate(342.099758 346.438125) scale(0.12 -0.12)">
       <defs>
        <path id="DejaVuSans-35" d="M 691 4666 
L 3169 4666 
L 3169 4134 
L 1269 4134 
L 1269 2991 
Q 1406 3038 1543 3061 
Q 1681 3084 1819 3084 
Q 2600 3084 3056 2656 
Q 3513 2228 3513 1497 
Q 3513 744 3044 326 
Q 2575 -91 1722 -91 
Q 1428 -91 1123 -41 
Q 819 9 494 109 
L 494 744 
Q 775 591 1075 516 
Q 1375 441 1709 441 
Q 2250 441 2565 725 
Q 2881 1009 2881 1497 
Q 2881 1984 2565 2268 
Q 2250 2553 1709 2553 
Q 1456 2553 1204 2497 
Q 953 2441 691 2322 
L 691 4666 
z
" transform="scale(0.015625)"/>
       </defs>
       <use xlink:href="#DejaVuSans-35"/>
       <use xlink:href="#DejaVuSans-30" x="63.623047"/>
      </g>
     </g>
    </g>
   </g>
   <g id="matplotlib.axis_2">
    <g id="ytick_1">
     <g id="line2d_6">
      <defs>
       <path id="ma6741aa3ce" d="M 0 0 
L -3.5 0 
" style="stroke: #000000; stroke-width: 0.8"/>
      </defs>
      <g>
       <use xlink:href="#ma6741aa3ce" x="62.35" y="325.001233" style="stroke: #000000; stroke-width: 0.8"/>
      </g>
     </g>
     <g id="text_6">
      <!-- −0.005 -->
      <g transform="translate(10.940625 329.560296) scale(0.12 -0.12)">
       <defs>
        <path id="DejaVuSans-2212" d="M 678 2272 
L 4684 2272 
L 4684 1741 
L 678 1741 
L 678 2272 
z
" transform="scale(0.015625)"/>
        <path id="DejaVuSans-2e" d="M 684 794 
L 1344 794 
L 1344 0 
L 684 0 
L 684 794 
z
" transform="scale(0.015625)"/>
       </defs>
       <use xlink:href="#DejaVuSans-2212"/>
       <use xlink:href="#DejaVuSans-30" x="83.789062"/>
       <use xlink:href="#DejaVuSans-2e" x="147.412109"/>
       <use xlink:href="#DejaVuSans-30" x="179.199219"/>
       <use xlink:href="#DejaVuSans-30" x="242.822266"/>
       <use xlink:href="#DejaVuSans-35" x="306.445312"/>
      </g>
     </g>
    </g>
    <g id="ytick_2">
     <g id="line2d_7">
      <g>
       <use xlink:href="#ma6741aa3ce" x="62.35" y="281.181623" style="stroke: #000000; stroke-width: 0.8"/>
      </g>
     </g>
     <g id="text_7">
      <!-- 0.000 -->
      <g transform="translate(20.99625 285.740686) scale(0.12 -0.12)">
       <use xlink:href="#DejaVuSans-30"/>
       <use xlink:href="#DejaVuSans-2e" x="63.623047"/>
       <use xlink:href="#DejaVuSans-30" x="95.410156"/>
       <use xlink:href="#DejaVuSans-30" x="159.033203"/>
       <use xlink:href="#DejaVuSans-30" x="222.65625"/>
      </g>
     </g>
    </g>
    <g id="ytick_3">
     <g id="line2d_8">
      <g>
       <use xlink:href="#ma6741aa3ce" x="62.35" y="237.362013" style="stroke: #000000; stroke-width: 0.8"/>
      </g>
     </g>
     <g id="text_8">
      <!-- 0.005 -->
      <g transform="translate(20.99625 241.921075) scale(0.12 -0.12)">
       <use xlink:href="#DejaVuSans-30"/>
       <use xlink:href="#DejaVuSans-2e" x="63.623047"/>
       <use xlink:href="#DejaVuSans-30" x="95.410156"/>
       <use xlink:href="#DejaVuSans-30" x="159.033203"/>
       <use xlink:href="#DejaVuSans-35" x="222.65625"/>
      </g>
     </g>
    </g>
    <g id="ytick_4">
     <g id="line2d_9">
      <g>
       <use xlink:href="#ma6741aa3ce" x="62.35" y="193.542403" style="stroke: #000000; stroke-width: 0.8"/>
      </g>
     </g>
     <g id="text_9">
      <!-- 0.010 -->
      <g transform="translate(20.99625 198.101465) scale(0.12 -0.12)">
       <use xlink:href="#DejaVuSans-30"/>
       <use xlink:href="#DejaVuSans-2e" x="63.623047"/>
       <use xlink:href="#DejaVuSans-30" x="95.410156"/>
       <use xlink:href="#DejaVuSans-31" x="159.033203"/>
       <use xlink:href="#DejaVuSans-30" x="222.65625"/>
      </g>
     </g>
    </g>
    <g id="ytick_5">
     <g id="line2d_10">
      <g>
       <use xlink:href="#ma6741aa3ce" x="62.35" y="149.722792" style="stroke: #000000; stroke-width: 0.8"/>
      </g>
     </g>
     <g id="text_10">
      <!-- 0.015 -->
      <g transform="translate(20.99625 154.281855) scale(0.12 -0.12)">
       <use xlink:href="#DejaVuSans-30"/>
       <use xlink:href="#DejaVuSans-2e" x="63.623047"/>
       <use xlink:href="#DejaVuSans-30" x="95.410156"/>
       <use xlink:href="#DejaVuSans-31" x="159.033203"/>
       <use xlink:href="#DejaVuSans-35" x="222.65625"/>
      </g>
     </g>
    </g>
    <g id="ytick_6">
     <g id="line2d_11">
      <g>
       <use xlink:href="#ma6741aa3ce" x="62.35" y="105.903182" style="stroke: #000000; stroke-width: 0.8"/>
      </g>
     </g>
     <g id="text_11">
      <!-- 0.020 -->
      <g transform="translate(20.99625 110.462245) scale(0.12 -0.12)">
       <use xlink:href="#DejaVuSans-30"/>
       <use xlink:href="#DejaVuSans-2e" x="63.623047"/>
       <use xlink:href="#DejaVuSans-30" x="95.410156"/>
       <use xlink:href="#DejaVuSans-32" x="159.033203"/>
       <use xlink:href="#DejaVuSans-30" x="222.65625"/>
      </g>
     </g>
    </g>
    <g id="ytick_7">
     <g id="line2d_12">
      <g>
       <use xlink:href="#ma6741aa3ce" x="62.35" y="62.083572" style="stroke: #000000; stroke-width: 0.8"/>
      </g>
     </g>
     <g id="text_12">
      <!-- 0.025 -->
      <g transform="translate(20.99625 66.642634) scale(0.12 -0.12)">
       <use xlink:href="#DejaVuSans-30"/>
       <use xlink:href="#DejaVuSans-2e" x="63.623047"/>
       <use xlink:href="#DejaVuSans-30" x="95.410156"/>
       <use xlink:href="#DejaVuSans-32" x="159.033203"/>
       <use xlink:href="#DejaVuSans-35" x="222.65625"/>
      </g>
     </g>
    </g>
    <g id="ytick_8">
     <g id="line2d_13">
      <g>
       <use xlink:href="#ma6741aa3ce" x="62.35" y="18.263962" style="stroke: #000000; stroke-width: 0.8"/>
      </g>
     </g>
     <g id="text_13">
      <!-- 0.030 -->
      <g transform="translate(20.99625 22.823024) scale(0.12 -0.12)">
       <use xlink:href="#DejaVuSans-30"/>
       <use xlink:href="#DejaVuSans-2e" x="63.623047"/>
       <use xlink:href="#DejaVuSans-30" x="95.410156"/>
       <use xlink:href="#DejaVuSans-33" x="159.033203"/>
       <use xlink:href="#DejaVuSans-30" x="222.65625"/>
      </g>
     </g>
    </g>
   </g>
   <g id="patch_3">
    <path d="M 62.35 330.32 
L 62.35 10.8 
" style="fill: none; stroke: #000000; stroke-width: 0.8; stroke-linejoin: miter; stroke-linecap: square"/>
   </g>
   <g id="patch_4">
    <path d="M 357.179959 330.32 
L 357.179959 10.8 
" style="fill: none; stroke: #000000; stroke-width: 0.8; stroke-linejoin: miter; stroke-linecap: square"/>
   </g>
   <g id="patch_5">
    <path d="M 62.35 330.32 
L 357.179959 330.32 
" style="fill: none; stroke: #000000; stroke-width: 0.8; stroke-linejoin: miter; stroke-linecap: square"/>
   </g>
   <g id="patch_6">
    <path d="M 62.35 10.8 
L 357.179959 10.8 
" style="fill: none; stroke: #000000; stroke-width: 0.8; stroke-linejoin: miter; stroke-linecap: square"/>
   </g>
   <g id="legend_1">
    <g id="patch_7">
     <path d="M 225.378709 55.6275 
L 348.779959 55.6275 
Q 351.179959 55.6275 351.179959 53.2275 
L 351.179959 19.2 
Q 351.179959 16.8 348.779959 16.8 
L 225.378709 16.8 
Q 222.978709 16.8 222.978709 19.2 
L 222.978709 53.2275 
Q 222.978709 55.6275 225.378709 55.6275 
z
" style="fill: #ffffff; opacity: 0.8; stroke: #cccccc; stroke-linejoin: miter"/>
    </g>
    <g id="PathCollection_3">
     <g>
      <use xlink:href="#mabd2839173" x="239.778709" y="27.568125" style="fill: #0000ff; stroke: #0000ff"/>
     </g>
    </g>
    <g id="text_14">
     <!-- Non-averaged -->
     <g transform="translate(261.378709 30.718125) scale(0.12 -0.12)">
      <defs>
       <path id="DejaVuSans-4e" d="M 628 4666 
L 1478 4666 
L 3547 763 
L 3547 4666 
L 4159 4666 
L 4159 0 
L 3309 0 
L 1241 3903 
L 1241 0 
L 628 0 
L 628 4666 
z
" transform="scale(0.015625)"/>
       <path id="DejaVuSans-6f" d="M 1959 3097 
Q 1497 3097 1228 2736 
Q 959 2375 959 1747 
Q 959 1119 1226 758 
Q 1494 397 1959 397 
Q 2419 397 2687 759 
Q 2956 1122 2956 1747 
Q 2956 2369 2687 2733 
Q 2419 3097 1959 3097 
z
M 1959 3584 
Q 2709 3584 3137 3096 
Q 3566 2609 3566 1747 
Q 3566 888 3137 398 
Q 2709 -91 1959 -91 
Q 1206 -91 779 398 
Q 353 888 353 1747 
Q 353 2609 779 3096 
Q 1206 3584 1959 3584 
z
" transform="scale(0.015625)"/>
       <path id="DejaVuSans-6e" d="M 3513 2113 
L 3513 0 
L 2938 0 
L 2938 2094 
Q 2938 2591 2744 2837 
Q 2550 3084 2163 3084 
Q 1697 3084 1428 2787 
Q 1159 2491 1159 1978 
L 1159 0 
L 581 0 
L 581 3500 
L 1159 3500 
L 1159 2956 
Q 1366 3272 1645 3428 
Q 1925 3584 2291 3584 
Q 2894 3584 3203 3211 
Q 3513 2838 3513 2113 
z
" transform="scale(0.015625)"/>
       <path id="DejaVuSans-2d" d="M 313 2009 
L 1997 2009 
L 1997 1497 
L 313 1497 
L 313 2009 
z
" transform="scale(0.015625)"/>
       <path id="DejaVuSans-61" d="M 2194 1759 
Q 1497 1759 1228 1600 
Q 959 1441 959 1056 
Q 959 750 1161 570 
Q 1363 391 1709 391 
Q 2188 391 2477 730 
Q 2766 1069 2766 1631 
L 2766 1759 
L 2194 1759 
z
M 3341 1997 
L 3341 0 
L 2766 0 
L 2766 531 
Q 2569 213 2275 61 
Q 1981 -91 1556 -91 
Q 1019 -91 701 211 
Q 384 513 384 1019 
Q 384 1609 779 1909 
Q 1175 2209 1959 2209 
L 2766 2209 
L 2766 2266 
Q 2766 2663 2505 2880 
Q 2244 3097 1772 3097 
Q 1472 3097 1187 3025 
Q 903 2953 641 2809 
L 641 3341 
Q 956 3463 1253 3523 
Q 1550 3584 1831 3584 
Q 2591 3584 2966 3190 
Q 3341 2797 3341 1997 
z
" transform="scale(0.015625)"/>
       <path id="DejaVuSans-76" d="M 191 3500 
L 800 3500 
L 1894 563 
L 2988 3500 
L 3597 3500 
L 2284 0 
L 1503 0 
L 191 3500 
z
" transform="scale(0.015625)"/>
       <path id="DejaVuSans-65" d="M 3597 1894 
L 3597 1613 
L 953 1613 
Q 991 1019 1311 708 
Q 1631 397 2203 397 
Q 2534 397 2845 478 
Q 3156 559 3463 722 
L 3463 178 
Q 3153 47 2828 -22 
Q 2503 -91 2169 -91 
Q 1331 -91 842 396 
Q 353 884 353 1716 
Q 353 2575 817 3079 
Q 1281 3584 2069 3584 
Q 2775 3584 3186 3129 
Q 3597 2675 3597 1894 
z
M 3022 2063 
Q 3016 2534 2758 2815 
Q 2500 3097 2075 3097 
Q 1594 3097 1305 2825 
Q 1016 2553 972 2059 
L 3022 2063 
z
" transform="scale(0.015625)"/>
       <path id="DejaVuSans-72" d="M 2631 2963 
Q 2534 3019 2420 3045 
Q 2306 3072 2169 3072 
Q 1681 3072 1420 2755 
Q 1159 2438 1159 1844 
L 1159 0 
L 581 0 
L 581 3500 
L 1159 3500 
L 1159 2956 
Q 1341 3275 1631 3429 
Q 1922 3584 2338 3584 
Q 2397 3584 2469 3576 
Q 2541 3569 2628 3553 
L 2631 2963 
z
" transform="scale(0.015625)"/>
       <path id="DejaVuSans-67" d="M 2906 1791 
Q 2906 2416 2648 2759 
Q 2391 3103 1925 3103 
Q 1463 3103 1205 2759 
Q 947 2416 947 1791 
Q 947 1169 1205 825 
Q 1463 481 1925 481 
Q 2391 481 2648 825 
Q 2906 1169 2906 1791 
z
M 3481 434 
Q 3481 -459 3084 -895 
Q 2688 -1331 1869 -1331 
Q 1566 -1331 1297 -1286 
Q 1028 -1241 775 -1147 
L 775 -588 
Q 1028 -725 1275 -790 
Q 1522 -856 1778 -856 
Q 2344 -856 2625 -561 
Q 2906 -266 2906 331 
L 2906 616 
Q 2728 306 2450 153 
Q 2172 0 1784 0 
Q 1141 0 747 490 
Q 353 981 353 1791 
Q 353 2603 747 3093 
Q 1141 3584 1784 3584 
Q 2172 3584 2450 3431 
Q 2728 3278 2906 2969 
L 2906 3500 
L 3481 3500 
L 3481 434 
z
" transform="scale(0.015625)"/>
       <path id="DejaVuSans-64" d="M 2906 2969 
L 2906 4863 
L 3481 4863 
L 3481 0 
L 2906 0 
L 2906 525 
Q 2725 213 2448 61 
Q 2172 -91 1784 -91 
Q 1150 -91 751 415 
Q 353 922 353 1747 
Q 353 2572 751 3078 
Q 1150 3584 1784 3584 
Q 2172 3584 2448 3432 
Q 2725 3281 2906 2969 
z
M 947 1747 
Q 947 1113 1208 752 
Q 1469 391 1925 391 
Q 2381 391 2643 752 
Q 2906 1113 2906 1747 
Q 2906 2381 2643 2742 
Q 2381 3103 1925 3103 
Q 1469 3103 1208 2742 
Q 947 2381 947 1747 
z
" transform="scale(0.015625)"/>
      </defs>
      <use xlink:href="#DejaVuSans-4e"/>
      <use xlink:href="#DejaVuSans-6f" x="74.804688"/>
      <use xlink:href="#DejaVuSans-6e" x="135.986328"/>
      <use xlink:href="#DejaVuSans-2d" x="199.365234"/>
      <use xlink:href="#DejaVuSans-61" x="235.449219"/>
      <use xlink:href="#DejaVuSans-76" x="296.728516"/>
      <use xlink:href="#DejaVuSans-65" x="355.908203"/>
      <use xlink:href="#DejaVuSans-72" x="417.431641"/>
      <use xlink:href="#DejaVuSans-61" x="458.544922"/>
      <use xlink:href="#DejaVuSans-67" x="519.824219"/>
      <use xlink:href="#DejaVuSans-65" x="583.300781"/>
      <use xlink:href="#DejaVuSans-64" x="644.824219"/>
     </g>
    </g>
    <g id="PathCollection_4">
     <g>
      <use xlink:href="#mc7681062b9" x="239.778709" y="45.181875" style="fill: #ff0000; stroke: #ff0000"/>
     </g>
    </g>
    <g id="text_15">
     <!-- Averaged -->
     <g transform="translate(261.378709 48.331875) scale(0.12 -0.12)">
      <defs>
       <path id="DejaVuSans-41" d="M 2188 4044 
L 1331 1722 
L 3047 1722 
L 2188 4044 
z
M 1831 4666 
L 2547 4666 
L 4325 0 
L 3669 0 
L 3244 1197 
L 1141 1197 
L 716 0 
L 50 0 
L 1831 4666 
z
" transform="scale(0.015625)"/>
      </defs>
      <use xlink:href="#DejaVuSans-41"/>
      <use xlink:href="#DejaVuSans-76" x="62.533203"/>
      <use xlink:href="#DejaVuSans-65" x="121.712891"/>
      <use xlink:href="#DejaVuSans-72" x="183.236328"/>
      <use xlink:href="#DejaVuSans-61" x="224.349609"/>
      <use xlink:href="#DejaVuSans-67" x="285.628906"/>
      <use xlink:href="#DejaVuSans-65" x="349.105469"/>
      <use xlink:href="#DejaVuSans-64" x="410.628906"/>
     </g>
    </g>
   </g>
  </g>
  <g id="axes_2">
   <g id="patch_8">
    <path d="M 413.125 330.32 
L 707.954959 330.32 
L 707.954959 10.8 
L 413.125 10.8 
z
" style="fill: #ffffff"/>
   </g>
   <g id="PathCollection_5">
    <g clip-path="url(#p068ef7a041)">
     <use xlink:href="#mabd2839173" x="426.526362" y="295.932575" style="fill: #0000ff; stroke: #0000ff"/>
     <use xlink:href="#mabd2839173" x="432.482523" y="25.323636" style="fill: #0000ff; stroke: #0000ff"/>
     <use xlink:href="#mabd2839173" x="438.438683" y="243.779848" style="fill: #0000ff; stroke: #0000ff"/>
     <use xlink:href="#mabd2839173" x="444.394844" y="119.927286" style="fill: #0000ff; stroke: #0000ff"/>
     <use xlink:href="#mabd2839173" x="450.351005" y="225.476118" style="fill: #0000ff; stroke: #0000ff"/>
     <use xlink:href="#mabd2839173" x="456.307166" y="172.260554" style="fill: #0000ff; stroke: #0000ff"/>
     <use xlink:href="#mabd2839173" x="462.263326" y="218.716515" style="fill: #0000ff; stroke: #0000ff"/>
     <use xlink:href="#mabd2839173" x="468.219487" y="205.452553" style="fill: #0000ff; stroke: #0000ff"/>
     <use xlink:href="#mabd2839173" x="474.175648" y="216.765943" style="fill: #0000ff; stroke: #0000ff"/>
     <use xlink:href="#mabd2839173" x="480.131809" y="228.373089" style="fill: #0000ff; stroke: #0000ff"/>
     <use xlink:href="#mabd2839173" x="486.08797" y="217.049078" style="fill: #0000ff; stroke: #0000ff"/>
     <use xlink:href="#mabd2839173" x="492.04413" y="245.148184" style="fill: #0000ff; stroke: #0000ff"/>
     <use xlink:href="#mabd2839173" x="498.000291" y="218.428265" style="fill: #0000ff; stroke: #0000ff"/>
     <use xlink:href="#mabd2839173" x="503.956452" y="257.955996" style="fill: #0000ff; stroke: #0000ff"/>
     <use xlink:href="#mabd2839173" x="509.912613" y="220.350619" style="fill: #0000ff; stroke: #0000ff"/>
     <use xlink:href="#mabd2839173" x="515.868773" y="268.054504" style="fill: #0000ff; stroke: #0000ff"/>
     <use xlink:href="#mabd2839173" x="521.824934" y="222.529432" style="fill: #0000ff; stroke: #0000ff"/>
     <use xlink:href="#mabd2839173" x="527.781095" y="276.220853" style="fill: #0000ff; stroke: #0000ff"/>
     <use xlink:href="#mabd2839173" x="533.737256" y="224.809465" style="fill: #0000ff; stroke: #0000ff"/>
     <use xlink:href="#mabd2839173" x="539.693417" y="282.960988" style="fill: #0000ff; stroke: #0000ff"/>
     <use xlink:href="#mabd2839173" x="545.649577" y="227.104514" style="fill: #0000ff; stroke: #0000ff"/>
     <use xlink:href="#mabd2839173" x="551.605738" y="288.618431" style="fill: #0000ff; stroke: #0000ff"/>
     <use xlink:href="#mabd2839173" x="557.561899" y="229.366338" style="fill: #0000ff; stroke: #0000ff"/>
     <use xlink:href="#mabd2839173" x="563.51806" y="293.434607" style="fill: #0000ff; stroke: #0000ff"/>
     <use xlink:href="#mabd2839173" x="569.474221" y="231.568313" style="fill: #0000ff; stroke: #0000ff"/>
     <use xlink:href="#mabd2839173" x="575.430381" y="297.584138" style="fill: #0000ff; stroke: #0000ff"/>
     <use xlink:href="#mabd2839173" x="581.386542" y="233.696442" style="fill: #0000ff; stroke: #0000ff"/>
     <use xlink:href="#mabd2839173" x="587.342703" y="301.196457" style="fill: #0000ff; stroke: #0000ff"/>
     <use xlink:href="#mabd2839173" x="593.298864" y="235.744218" style="fill: #0000ff; stroke: #0000ff"/>
     <use xlink:href="#mabd2839173" x="599.255024" y="304.369528" style="fill: #0000ff; stroke: #0000ff"/>
     <use xlink:href="#mabd2839173" x="605.211185" y="237.70962" style="fill: #0000ff; stroke: #0000ff"/>
     <use xlink:href="#mabd2839173" x="611.167346" y="307.178867" style="fill: #0000ff; stroke: #0000ff"/>
     <use xlink:href="#mabd2839173" x="617.123507" y="239.593294" style="fill: #0000ff; stroke: #0000ff"/>
     <use xlink:href="#mabd2839173" x="623.079668" y="309.683618" style="fill: #0000ff; stroke: #0000ff"/>
     <use xlink:href="#mabd2839173" x="629.035828" y="241.397455" style="fill: #0000ff; stroke: #0000ff"/>
     <use xlink:href="#mabd2839173" x="634.991989" y="311.930764" style="fill: #0000ff; stroke: #0000ff"/>
     <use xlink:href="#mabd2839173" x="640.94815" y="243.125195" style="fill: #0000ff; stroke: #0000ff"/>
     <use xlink:href="#mabd2839173" x="646.904311" y="313.958097" style="fill: #0000ff; stroke: #0000ff"/>
     <use xlink:href="#mabd2839173" x="652.860471" y="244.780059" style="fill: #0000ff; stroke: #0000ff"/>
     <use xlink:href="#mabd2839173" x="658.816632" y="315.796364" style="fill: #0000ff; stroke: #0000ff"/>
     <use xlink:href="#mabd2839173" x="664.772793" y="246.36578" style="fill: #0000ff; stroke: #0000ff"/>
     <use xlink:href="#mabd2839173" x="670.728954" y="315.748567" style="fill: #0000ff; stroke: #0000ff"/>
     <use xlink:href="#mabd2839173" x="676.685115" y="247.886107" style="fill: #0000ff; stroke: #0000ff"/>
     <use xlink:href="#mabd2839173" x="682.641275" y="311.492299" style="fill: #0000ff; stroke: #0000ff"/>
     <use xlink:href="#mabd2839173" x="688.597436" y="249.344712" style="fill: #0000ff; stroke: #0000ff"/>
     <use xlink:href="#mabd2839173" x="694.553597" y="307.691281" style="fill: #0000ff; stroke: #0000ff"/>
    </g>
   </g>
   <g id="PathCollection_6">
    <g clip-path="url(#p068ef7a041)">
     <use xlink:href="#mc7681062b9" x="426.526362" y="160.628106" style="fill: #ff0000; stroke: #ff0000"/>
     <use xlink:href="#mc7681062b9" x="432.482523" y="134.551742" style="fill: #ff0000; stroke: #ff0000"/>
     <use xlink:href="#mc7681062b9" x="438.438683" y="181.853567" style="fill: #ff0000; stroke: #ff0000"/>
     <use xlink:href="#mc7681062b9" x="444.394844" y="172.701702" style="fill: #ff0000; stroke: #ff0000"/>
     <use xlink:href="#mc7681062b9" x="450.351005" y="198.868336" style="fill: #ff0000; stroke: #ff0000"/>
     <use xlink:href="#mc7681062b9" x="456.307166" y="195.488534" style="fill: #ff0000; stroke: #ff0000"/>
     <use xlink:href="#mc7681062b9" x="462.263326" y="212.084534" style="fill: #ff0000; stroke: #ff0000"/>
     <use xlink:href="#mc7681062b9" x="468.219487" y="211.109248" style="fill: #ff0000; stroke: #ff0000"/>
     <use xlink:href="#mc7681062b9" x="474.175648" y="222.569516" style="fill: #ff0000; stroke: #ff0000"/>
     <use xlink:href="#mc7681062b9" x="480.131809" y="222.711083" style="fill: #ff0000; stroke: #ff0000"/>
     <use xlink:href="#mc7681062b9" x="486.08797" y="231.098631" style="fill: #ff0000; stroke: #ff0000"/>
     <use xlink:href="#mc7681062b9" x="492.04413" y="231.788224" style="fill: #ff0000; stroke: #ff0000"/>
     <use xlink:href="#mc7681062b9" x="498.000291" y="238.19213" style="fill: #ff0000; stroke: #ff0000"/>
     <use xlink:href="#mc7681062b9" x="503.956452" y="239.153307" style="fill: #ff0000; stroke: #ff0000"/>
     <use xlink:href="#mc7681062b9" x="509.912613" y="244.202561" style="fill: #ff0000; stroke: #ff0000"/>
     <use xlink:href="#mc7681062b9" x="515.868773" y="245.291968" style="fill: #ff0000; stroke: #ff0000"/>
     <use xlink:href="#mc7681062b9" x="521.824934" y="249.375143" style="fill: #ff0000; stroke: #ff0000"/>
     <use xlink:href="#mc7681062b9" x="527.781095" y="250.515159" style="fill: #ff0000; stroke: #ff0000"/>
     <use xlink:href="#mc7681062b9" x="533.737256" y="253.885227" style="fill: #ff0000; stroke: #ff0000"/>
     <use xlink:href="#mc7681062b9" x="539.693417" y="255.032751" style="fill: #ff0000; stroke: #ff0000"/>
     <use xlink:href="#mc7681062b9" x="545.649577" y="257.861473" style="fill: #ff0000; stroke: #ff0000"/>
     <use xlink:href="#mc7681062b9" x="551.605738" y="258.992385" style="fill: #ff0000; stroke: #ff0000"/>
     <use xlink:href="#mc7681062b9" x="557.561899" y="261.400472" style="fill: #ff0000; stroke: #ff0000"/>
     <use xlink:href="#mc7681062b9" x="563.51806" y="262.50146" style="fill: #ff0000; stroke: #ff0000"/>
     <use xlink:href="#mc7681062b9" x="569.474221" y="264.576226" style="fill: #ff0000; stroke: #ff0000"/>
     <use xlink:href="#mc7681062b9" x="575.430381" y="265.64029" style="fill: #ff0000; stroke: #ff0000"/>
     <use xlink:href="#mc7681062b9" x="581.386542" y="267.446449" style="fill: #ff0000; stroke: #ff0000"/>
     <use xlink:href="#mc7681062b9" x="587.342703" y="268.470338" style="fill: #ff0000; stroke: #ff0000"/>
     <use xlink:href="#mc7681062b9" x="593.298864" y="270.056873" style="fill: #ff0000; stroke: #ff0000"/>
     <use xlink:href="#mc7681062b9" x="599.255024" y="271.039574" style="fill: #ff0000; stroke: #ff0000"/>
     <use xlink:href="#mc7681062b9" x="605.211185" y="272.444244" style="fill: #ff0000; stroke: #ff0000"/>
     <use xlink:href="#mc7681062b9" x="611.167346" y="273.386081" style="fill: #ff0000; stroke: #ff0000"/>
     <use xlink:href="#mc7681062b9" x="617.123507" y="274.638456" style="fill: #ff0000; stroke: #ff0000"/>
     <use xlink:href="#mc7681062b9" x="623.079668" y="275.540536" style="fill: #ff0000; stroke: #ff0000"/>
     <use xlink:href="#mc7681062b9" x="629.035828" y="276.664109" style="fill: #ff0000; stroke: #ff0000"/>
     <use xlink:href="#mc7681062b9" x="634.991989" y="277.527979" style="fill: #ff0000; stroke: #ff0000"/>
     <use xlink:href="#mc7681062b9" x="640.94815" y="278.541646" style="fill: #ff0000; stroke: #ff0000"/>
     <use xlink:href="#mc7681062b9" x="646.904311" y="279.369078" style="fill: #ff0000; stroke: #ff0000"/>
     <use xlink:href="#mc7681062b9" x="652.860471" y="280.288211" style="fill: #ff0000; stroke: #ff0000"/>
     <use xlink:href="#mc7681062b9" x="658.816632" y="281.081072" style="fill: #ff0000; stroke: #ff0000"/>
     <use xlink:href="#mc7681062b9" x="664.772793" y="281.057173" style="fill: #ff0000; stroke: #ff0000"/>
     <use xlink:href="#mc7681062b9" x="670.728954" y="281.817337" style="fill: #ff0000; stroke: #ff0000"/>
     <use xlink:href="#mc7681062b9" x="676.685115" y="279.689203" style="fill: #ff0000; stroke: #ff0000"/>
     <use xlink:href="#mc7681062b9" x="682.641275" y="280.418506" style="fill: #ff0000; stroke: #ff0000"/>
     <use xlink:href="#mc7681062b9" x="688.597436" y="278.517997" style="fill: #ff0000; stroke: #ff0000"/>
     <use xlink:href="#mc7681062b9" x="694.553597" y="279.218204" style="fill: #ff0000; stroke: #ff0000"/>
    </g>
   </g>
   <g id="matplotlib.axis_3">
    <g id="xtick_6">
     <g id="line2d_14">
      <g>
       <use xlink:href="#m8e757814bc" x="462.263326" y="330.32" style="stroke: #000000; stroke-width: 0.8"/>
      </g>
     </g>
     <g id="text_16">
      <!-- 10 -->
      <g transform="translate(454.628326 346.438125) scale(0.12 -0.12)">
       <use xlink:href="#DejaVuSans-31"/>
       <use xlink:href="#DejaVuSans-30" x="63.623047"/>
      </g>
     </g>
    </g>
    <g id="xtick_7">
     <g id="line2d_15">
      <g>
       <use xlink:href="#m8e757814bc" x="521.824934" y="330.32" style="stroke: #000000; stroke-width: 0.8"/>
      </g>
     </g>
     <g id="text_17">
      <!-- 20 -->
      <g transform="translate(514.189934 346.438125) scale(0.12 -0.12)">
       <use xlink:href="#DejaVuSans-32"/>
       <use xlink:href="#DejaVuSans-30" x="63.623047"/>
      </g>
     </g>
    </g>
    <g id="xtick_8">
     <g id="line2d_16">
      <g>
       <use xlink:href="#m8e757814bc" x="581.386542" y="330.32" style="stroke: #000000; stroke-width: 0.8"/>
      </g>
     </g>
     <g id="text_18">
      <!-- 30 -->
      <g transform="translate(573.751542 346.438125) scale(0.12 -0.12)">
       <use xlink:href="#DejaVuSans-33"/>
       <use xlink:href="#DejaVuSans-30" x="63.623047"/>
      </g>
     </g>
    </g>
    <g id="xtick_9">
     <g id="line2d_17">
      <g>
       <use xlink:href="#m8e757814bc" x="640.94815" y="330.32" style="stroke: #000000; stroke-width: 0.8"/>
      </g>
     </g>
     <g id="text_19">
      <!-- 40 -->
      <g transform="translate(633.31315 346.438125) scale(0.12 -0.12)">
       <use xlink:href="#DejaVuSans-34"/>
       <use xlink:href="#DejaVuSans-30" x="63.623047"/>
      </g>
     </g>
    </g>
    <g id="xtick_10">
     <g id="line2d_18">
      <g>
       <use xlink:href="#m8e757814bc" x="700.509758" y="330.32" style="stroke: #000000; stroke-width: 0.8"/>
      </g>
     </g>
     <g id="text_20">
      <!-- 50 -->
      <g transform="translate(692.874758 346.438125) scale(0.12 -0.12)">
       <use xlink:href="#DejaVuSans-35"/>
       <use xlink:href="#DejaVuSans-30" x="63.623047"/>
      </g>
     </g>
    </g>
   </g>
   <g id="matplotlib.axis_4">
    <g id="ytick_9">
     <g id="line2d_19">
      <g>
       <use xlink:href="#ma6741aa3ce" x="413.125" y="328.09802" style="stroke: #000000; stroke-width: 0.8"/>
      </g>
     </g>
     <g id="text_21">
      <!-- −0.01 -->
      <g transform="translate(369.350625 332.657082) scale(0.12 -0.12)">
       <use xlink:href="#DejaVuSans-2212"/>
       <use xlink:href="#DejaVuSans-30" x="83.789062"/>
       <use xlink:href="#DejaVuSans-2e" x="147.412109"/>
       <use xlink:href="#DejaVuSans-30" x="179.199219"/>
       <use xlink:href="#DejaVuSans-31" x="242.822266"/>
      </g>
     </g>
    </g>
    <g id="ytick_10">
     <g id="line2d_20">
      <g>
       <use xlink:href="#ma6741aa3ce" x="413.125" y="281.673195" style="stroke: #000000; stroke-width: 0.8"/>
      </g>
     </g>
     <g id="text_22">
      <!-- 0.00 -->
      <g transform="translate(379.40625 286.232258) scale(0.12 -0.12)">
       <use xlink:href="#DejaVuSans-30"/>
       <use xlink:href="#DejaVuSans-2e" x="63.623047"/>
       <use xlink:href="#DejaVuSans-30" x="95.410156"/>
       <use xlink:href="#DejaVuSans-30" x="159.033203"/>
      </g>
     </g>
    </g>
    <g id="ytick_11">
     <g id="line2d_21">
      <g>
       <use xlink:href="#ma6741aa3ce" x="413.125" y="235.248371" style="stroke: #000000; stroke-width: 0.8"/>
      </g>
     </g>
     <g id="text_23">
      <!-- 0.01 -->
      <g transform="translate(379.40625 239.807434) scale(0.12 -0.12)">
       <use xlink:href="#DejaVuSans-30"/>
       <use xlink:href="#DejaVuSans-2e" x="63.623047"/>
       <use xlink:href="#DejaVuSans-30" x="95.410156"/>
       <use xlink:href="#DejaVuSans-31" x="159.033203"/>
      </g>
     </g>
    </g>
    <g id="ytick_12">
     <g id="line2d_22">
      <g>
       <use xlink:href="#ma6741aa3ce" x="413.125" y="188.823547" style="stroke: #000000; stroke-width: 0.8"/>
      </g>
     </g>
     <g id="text_24">
      <!-- 0.02 -->
      <g transform="translate(379.40625 193.382609) scale(0.12 -0.12)">
       <use xlink:href="#DejaVuSans-30"/>
       <use xlink:href="#DejaVuSans-2e" x="63.623047"/>
       <use xlink:href="#DejaVuSans-30" x="95.410156"/>
       <use xlink:href="#DejaVuSans-32" x="159.033203"/>
      </g>
     </g>
    </g>
    <g id="ytick_13">
     <g id="line2d_23">
      <g>
       <use xlink:href="#ma6741aa3ce" x="413.125" y="142.398723" style="stroke: #000000; stroke-width: 0.8"/>
      </g>
     </g>
     <g id="text_25">
      <!-- 0.03 -->
      <g transform="translate(379.40625 146.957785) scale(0.12 -0.12)">
       <use xlink:href="#DejaVuSans-30"/>
       <use xlink:href="#DejaVuSans-2e" x="63.623047"/>
       <use xlink:href="#DejaVuSans-30" x="95.410156"/>
       <use xlink:href="#DejaVuSans-33" x="159.033203"/>
      </g>
     </g>
    </g>
    <g id="ytick_14">
     <g id="line2d_24">
      <g>
       <use xlink:href="#ma6741aa3ce" x="413.125" y="95.973899" style="stroke: #000000; stroke-width: 0.8"/>
      </g>
     </g>
     <g id="text_26">
      <!-- 0.04 -->
      <g transform="translate(379.40625 100.532961) scale(0.12 -0.12)">
       <use xlink:href="#DejaVuSans-30"/>
       <use xlink:href="#DejaVuSans-2e" x="63.623047"/>
       <use xlink:href="#DejaVuSans-30" x="95.410156"/>
       <use xlink:href="#DejaVuSans-34" x="159.033203"/>
      </g>
     </g>
    </g>
    <g id="ytick_15">
     <g id="line2d_25">
      <g>
       <use xlink:href="#ma6741aa3ce" x="413.125" y="49.549074" style="stroke: #000000; stroke-width: 0.8"/>
      </g>
     </g>
     <g id="text_27">
      <!-- 0.05 -->
      <g transform="translate(379.40625 54.108137) scale(0.12 -0.12)">
       <use xlink:href="#DejaVuSans-30"/>
       <use xlink:href="#DejaVuSans-2e" x="63.623047"/>
       <use xlink:href="#DejaVuSans-30" x="95.410156"/>
       <use xlink:href="#DejaVuSans-35" x="159.033203"/>
      </g>
     </g>
    </g>
   </g>
   <g id="patch_9">
    <path d="M 413.125 330.32 
L 413.125 10.8 
" style="fill: none; stroke: #000000; stroke-width: 0.8; stroke-linejoin: miter; stroke-linecap: square"/>
   </g>
   <g id="patch_10">
    <path d="M 707.954959 330.32 
L 707.954959 10.8 
" style="fill: none; stroke: #000000; stroke-width: 0.8; stroke-linejoin: miter; stroke-linecap: square"/>
   </g>
   <g id="patch_11">
    <path d="M 413.125 330.32 
L 707.954959 330.32 
" style="fill: none; stroke: #000000; stroke-width: 0.8; stroke-linejoin: miter; stroke-linecap: square"/>
   </g>
   <g id="patch_12">
    <path d="M 413.125 10.8 
L 707.954959 10.8 
" style="fill: none; stroke: #000000; stroke-width: 0.8; stroke-linejoin: miter; stroke-linecap: square"/>
   </g>
   <g id="legend_2">
    <g id="patch_13">
     <path d="M 576.153709 55.6275 
L 699.554959 55.6275 
Q 701.954959 55.6275 701.954959 53.2275 
L 701.954959 19.2 
Q 701.954959 16.8 699.554959 16.8 
L 576.153709 16.8 
Q 573.753709 16.8 573.753709 19.2 
L 573.753709 53.2275 
Q 573.753709 55.6275 576.153709 55.6275 
z
" style="fill: #ffffff; opacity: 0.8; stroke: #cccccc; stroke-linejoin: miter"/>
    </g>
    <g id="PathCollection_7">
     <g>
      <use xlink:href="#mabd2839173" x="590.553709" y="27.568125" style="fill: #0000ff; stroke: #0000ff"/>
     </g>
    </g>
    <g id="text_28">
     <!-- Non-averaged -->
     <g transform="translate(612.153709 30.718125) scale(0.12 -0.12)">
      <use xlink:href="#DejaVuSans-4e"/>
      <use xlink:href="#DejaVuSans-6f" x="74.804688"/>
      <use xlink:href="#DejaVuSans-6e" x="135.986328"/>
      <use xlink:href="#DejaVuSans-2d" x="199.365234"/>
      <use xlink:href="#DejaVuSans-61" x="235.449219"/>
      <use xlink:href="#DejaVuSans-76" x="296.728516"/>
      <use xlink:href="#DejaVuSans-65" x="355.908203"/>
      <use xlink:href="#DejaVuSans-72" x="417.431641"/>
      <use xlink:href="#DejaVuSans-61" x="458.544922"/>
      <use xlink:href="#DejaVuSans-67" x="519.824219"/>
      <use xlink:href="#DejaVuSans-65" x="583.300781"/>
      <use xlink:href="#DejaVuSans-64" x="644.824219"/>
     </g>
    </g>
    <g id="PathCollection_8">
     <g>
      <use xlink:href="#mc7681062b9" x="590.553709" y="45.181875" style="fill: #ff0000; stroke: #ff0000"/>
     </g>
    </g>
    <g id="text_29">
     <!-- Averaged -->
     <g transform="translate(612.153709 48.331875) scale(0.12 -0.12)">
      <use xlink:href="#DejaVuSans-41"/>
      <use xlink:href="#DejaVuSans-76" x="62.533203"/>
      <use xlink:href="#DejaVuSans-65" x="121.712891"/>
      <use xlink:href="#DejaVuSans-72" x="183.236328"/>
      <use xlink:href="#DejaVuSans-61" x="224.349609"/>
      <use xlink:href="#DejaVuSans-67" x="285.628906"/>
      <use xlink:href="#DejaVuSans-65" x="349.105469"/>
      <use xlink:href="#DejaVuSans-64" x="410.628906"/>
     </g>
    </g>
   </g>
  </g>
 </g>
 <defs>
  <clipPath id="p206bc4f567">
   <rect x="62.35" y="10.8" width="294.829959" height="319.52"/>
  </clipPath>
  <clipPath id="p068ef7a041">
   <rect x="413.125" y="10.8" width="294.829959" height="319.52"/>
  </clipPath>
 </defs>
</svg>
