<?xml version="1.0" encoding="utf-8" standalone="no"?>
<!DOCTYPE svg PUBLIC "-//W3C//DTD SVG 1.1//EN"
  "http://www.w3.org/Graphics/SVG/1.1/DTD/svg11.dtd">
<svg xmlns:xlink="http://www.w3.org/1999/xlink" width="460.8pt" height="345.6pt" viewBox="0 0 460.8 345.6" xmlns="http://www.w3.org/2000/svg" version="1.1">
 <metadata>
  <rdf:RDF xmlns:dc="http://purl.org/dc/elements/1.1/" xmlns:cc="http://creativecommons.org/ns#" xmlns:rdf="http://www.w3.org/1999/02/22-rdf-syntax-ns#">
   <cc:Work>
    <dc:type rdf:resource="http://purl.org/dc/dcmitype/StillImage"/>
    <dc:date>2023-08-10T10:43:34.196170</dc:date>
    <dc:format>image/svg+xml</dc:format>
    <dc:creator>
     <cc:Agent>
      <dc:title>Matplotlib v3.7.1, https://matplotlib.org/</dc:title>
     </cc:Agent>
    </dc:creator>
   </cc:Work>
  </rdf:RDF>
 </metadata>
 <defs>
  <style type="text/css">*{stroke-linejoin: round; stroke-linecap: butt}</style>
 </defs>
 <g id="figure_1">
  <g id="patch_1">
   <path d="M 0 345.6 
L 460.8 345.6 
L 460.8 0 
L 0 0 
z
" style="fill: #ffffff"/>
  </g>
  <g id="axes_1">
   <g id="patch_2">
    <path d="M 44.66 303.64 
L 450 303.64 
L 450 10.8 
L 44.66 10.8 
z
" style="fill: #ffffff"/>
   </g>
   <g id="matplotlib.axis_1">
    <g id="xtick_1">
     <g id="line2d_1">
      <defs>
       <path id="m0e685423fe" d="M 0 0 
L 0 3.5 
" style="stroke: #000000; stroke-width: 0.8"/>
      </defs>
      <g>
       <use xlink:href="#m0e685423fe" x="63.084545" y="303.64" style="stroke: #000000; stroke-width: 0.8"/>
      </g>
     </g>
     <g id="text_1">
      <!-- 0 -->
      <g transform="translate(59.903295 318.238437) scale(0.1 -0.1)">
       <defs>
        <path id="DejaVuSans-30" d="M 2034 4250 
Q 1547 4250 1301 3770 
Q 1056 3291 1056 2328 
Q 1056 1369 1301 889 
Q 1547 409 2034 409 
Q 2525 409 2770 889 
Q 3016 1369 3016 2328 
Q 3016 3291 2770 3770 
Q 2525 4250 2034 4250 
z
M 2034 4750 
Q 2819 4750 3233 4129 
Q 3647 3509 3647 2328 
Q 3647 1150 3233 529 
Q 2819 -91 2034 -91 
Q 1250 -91 836 529 
Q 422 1150 422 2328 
Q 422 3509 836 4129 
Q 1250 4750 2034 4750 
z
" transform="scale(0.015625)"/>
       </defs>
       <use xlink:href="#DejaVuSans-30"/>
      </g>
     </g>
    </g>
    <g id="xtick_2">
     <g id="line2d_2">
      <g>
       <use xlink:href="#m0e685423fe" x="136.782727" y="303.64" style="stroke: #000000; stroke-width: 0.8"/>
      </g>
     </g>
     <g id="text_2">
      <!-- 2 -->
      <g transform="translate(133.601477 318.238437) scale(0.1 -0.1)">
       <defs>
        <path id="DejaVuSans-32" d="M 1228 531 
L 3431 531 
L 3431 0 
L 469 0 
L 469 531 
Q 828 903 1448 1529 
Q 2069 2156 2228 2338 
Q 2531 2678 2651 2914 
Q 2772 3150 2772 3378 
Q 2772 3750 2511 3984 
Q 2250 4219 1831 4219 
Q 1534 4219 1204 4116 
Q 875 4013 500 3803 
L 500 4441 
Q 881 4594 1212 4672 
Q 1544 4750 1819 4750 
Q 2544 4750 2975 4387 
Q 3406 4025 3406 3419 
Q 3406 3131 3298 2873 
Q 3191 2616 2906 2266 
Q 2828 2175 2409 1742 
Q 1991 1309 1228 531 
z
" transform="scale(0.015625)"/>
       </defs>
       <use xlink:href="#DejaVuSans-32"/>
      </g>
     </g>
    </g>
    <g id="xtick_3">
     <g id="line2d_3">
      <g>
       <use xlink:href="#m0e685423fe" x="210.480909" y="303.64" style="stroke: #000000; stroke-width: 0.8"/>
      </g>
     </g>
     <g id="text_3">
      <!-- 4 -->
      <g transform="translate(207.299659 318.238437) scale(0.1 -0.1)">
       <defs>
        <path id="DejaVuSans-34" d="M 2419 4116 
L 825 1625 
L 2419 1625 
L 2419 4116 
z
M 2253 4666 
L 3047 4666 
L 3047 1625 
L 3713 1625 
L 3713 1100 
L 3047 1100 
L 3047 0 
L 2419 0 
L 2419 1100 
L 313 1100 
L 313 1709 
L 2253 4666 
z
" transform="scale(0.015625)"/>
       </defs>
       <use xlink:href="#DejaVuSans-34"/>
      </g>
     </g>
    </g>
    <g id="xtick_4">
     <g id="line2d_4">
      <g>
       <use xlink:href="#m0e685423fe" x="284.179091" y="303.64" style="stroke: #000000; stroke-width: 0.8"/>
      </g>
     </g>
     <g id="text_4">
      <!-- 6 -->
      <g transform="translate(280.997841 318.238437) scale(0.1 -0.1)">
       <defs>
        <path id="DejaVuSans-36" d="M 2113 2584 
Q 1688 2584 1439 2293 
Q 1191 2003 1191 1497 
Q 1191 994 1439 701 
Q 1688 409 2113 409 
Q 2538 409 2786 701 
Q 3034 994 3034 1497 
Q 3034 2003 2786 2293 
Q 2538 2584 2113 2584 
z
M 3366 4563 
L 3366 3988 
Q 3128 4100 2886 4159 
Q 2644 4219 2406 4219 
Q 1781 4219 1451 3797 
Q 1122 3375 1075 2522 
Q 1259 2794 1537 2939 
Q 1816 3084 2150 3084 
Q 2853 3084 3261 2657 
Q 3669 2231 3669 1497 
Q 3669 778 3244 343 
Q 2819 -91 2113 -91 
Q 1303 -91 875 529 
Q 447 1150 447 2328 
Q 447 3434 972 4092 
Q 1497 4750 2381 4750 
Q 2619 4750 2861 4703 
Q 3103 4656 3366 4563 
z
" transform="scale(0.015625)"/>
       </defs>
       <use xlink:href="#DejaVuSans-36"/>
      </g>
     </g>
    </g>
    <g id="xtick_5">
     <g id="line2d_5">
      <g>
       <use xlink:href="#m0e685423fe" x="357.877273" y="303.64" style="stroke: #000000; stroke-width: 0.8"/>
      </g>
     </g>
     <g id="text_5">
      <!-- 8 -->
      <g transform="translate(354.696023 318.238437) scale(0.1 -0.1)">
       <defs>
        <path id="DejaVuSans-38" d="M 2034 2216 
Q 1584 2216 1326 1975 
Q 1069 1734 1069 1313 
Q 1069 891 1326 650 
Q 1584 409 2034 409 
Q 2484 409 2743 651 
Q 3003 894 3003 1313 
Q 3003 1734 2745 1975 
Q 2488 2216 2034 2216 
z
M 1403 2484 
Q 997 2584 770 2862 
Q 544 3141 544 3541 
Q 544 4100 942 4425 
Q 1341 4750 2034 4750 
Q 2731 4750 3128 4425 
Q 3525 4100 3525 3541 
Q 3525 3141 3298 2862 
Q 3072 2584 2669 2484 
Q 3125 2378 3379 2068 
Q 3634 1759 3634 1313 
Q 3634 634 3220 271 
Q 2806 -91 2034 -91 
Q 1263 -91 848 271 
Q 434 634 434 1313 
Q 434 1759 690 2068 
Q 947 2378 1403 2484 
z
M 1172 3481 
Q 1172 3119 1398 2916 
Q 1625 2713 2034 2713 
Q 2441 2713 2670 2916 
Q 2900 3119 2900 3481 
Q 2900 3844 2670 4047 
Q 2441 4250 2034 4250 
Q 1625 4250 1398 4047 
Q 1172 3844 1172 3481 
z
" transform="scale(0.015625)"/>
       </defs>
       <use xlink:href="#DejaVuSans-38"/>
      </g>
     </g>
    </g>
    <g id="xtick_6">
     <g id="line2d_6">
      <g>
       <use xlink:href="#m0e685423fe" x="431.575455" y="303.64" style="stroke: #000000; stroke-width: 0.8"/>
      </g>
     </g>
     <g id="text_6">
      <!-- 10 -->
      <g transform="translate(425.212955 318.238437) scale(0.1 -0.1)">
       <defs>
        <path id="DejaVuSans-31" d="M 794 531 
L 1825 531 
L 1825 4091 
L 703 3866 
L 703 4441 
L 1819 4666 
L 2450 4666 
L 2450 531 
L 3481 531 
L 3481 0 
L 794 0 
L 794 531 
z
" transform="scale(0.015625)"/>
       </defs>
       <use xlink:href="#DejaVuSans-31"/>
       <use xlink:href="#DejaVuSans-30" x="63.623047"/>
      </g>
     </g>
    </g>
    <g id="text_7">
     <!-- $\lambda$ -->
     <g transform="translate(244.33 331.916562) scale(0.1 -0.1)">
      <defs>
       <path id="DejaVuSans-Oblique-3bb" d="M 2350 4316 
L 3125 0 
L 2516 0 
L 2038 2588 
L 328 0 
L -281 0 
L 1903 3356 
L 1794 3975 
Q 1725 4369 1391 4369 
L 1091 4369 
L 1184 4863 
L 1550 4856 
Q 2253 4847 2350 4316 
z
" transform="scale(0.015625)"/>
      </defs>
      <use xlink:href="#DejaVuSans-Oblique-3bb" transform="translate(0 0.015625)"/>
     </g>
    </g>
   </g>
   <g id="matplotlib.axis_2">
    <g id="ytick_1">
     <g id="line2d_7">
      <defs>
       <path id="m15a8aabf33" d="M 0 0 
L -3.5 0 
" style="stroke: #000000; stroke-width: 0.8"/>
      </defs>
      <g>
       <use xlink:href="#m15a8aabf33" x="44.66" y="268.027212" style="stroke: #000000; stroke-width: 0.8"/>
      </g>
     </g>
     <g id="text_8">
      <!-- 10 -->
      <g transform="translate(24.935 271.826431) scale(0.1 -0.1)">
       <use xlink:href="#DejaVuSans-31"/>
       <use xlink:href="#DejaVuSans-30" x="63.623047"/>
      </g>
     </g>
    </g>
    <g id="ytick_2">
     <g id="line2d_8">
      <g>
       <use xlink:href="#m15a8aabf33" x="44.66" y="232.186753" style="stroke: #000000; stroke-width: 0.8"/>
      </g>
     </g>
     <g id="text_9">
      <!-- 15 -->
      <g transform="translate(24.935 235.985972) scale(0.1 -0.1)">
       <defs>
        <path id="DejaVuSans-35" d="M 691 4666 
L 3169 4666 
L 3169 4134 
L 1269 4134 
L 1269 2991 
Q 1406 3038 1543 3061 
Q 1681 3084 1819 3084 
Q 2600 3084 3056 2656 
Q 3513 2228 3513 1497 
Q 3513 744 3044 326 
Q 2575 -91 1722 -91 
Q 1428 -91 1123 -41 
Q 819 9 494 109 
L 494 744 
Q 775 591 1075 516 
Q 1375 441 1709 441 
Q 2250 441 2565 725 
Q 2881 1009 2881 1497 
Q 2881 1984 2565 2268 
Q 2250 2553 1709 2553 
Q 1456 2553 1204 2497 
Q 953 2441 691 2322 
L 691 4666 
z
" transform="scale(0.015625)"/>
       </defs>
       <use xlink:href="#DejaVuSans-31"/>
       <use xlink:href="#DejaVuSans-35" x="63.623047"/>
      </g>
     </g>
    </g>
    <g id="ytick_3">
     <g id="line2d_9">
      <g>
       <use xlink:href="#m15a8aabf33" x="44.66" y="196.346295" style="stroke: #000000; stroke-width: 0.8"/>
      </g>
     </g>
     <g id="text_10">
      <!-- 20 -->
      <g transform="translate(24.935 200.145513) scale(0.1 -0.1)">
       <use xlink:href="#DejaVuSans-32"/>
       <use xlink:href="#DejaVuSans-30" x="63.623047"/>
      </g>
     </g>
    </g>
    <g id="ytick_4">
     <g id="line2d_10">
      <g>
       <use xlink:href="#m15a8aabf33" x="44.66" y="160.505836" style="stroke: #000000; stroke-width: 0.8"/>
      </g>
     </g>
     <g id="text_11">
      <!-- 25 -->
      <g transform="translate(24.935 164.305055) scale(0.1 -0.1)">
       <use xlink:href="#DejaVuSans-32"/>
       <use xlink:href="#DejaVuSans-35" x="63.623047"/>
      </g>
     </g>
    </g>
    <g id="ytick_5">
     <g id="line2d_11">
      <g>
       <use xlink:href="#m15a8aabf33" x="44.66" y="124.665377" style="stroke: #000000; stroke-width: 0.8"/>
      </g>
     </g>
     <g id="text_12">
      <!-- 30 -->
      <g transform="translate(24.935 128.464596) scale(0.1 -0.1)">
       <defs>
        <path id="DejaVuSans-33" d="M 2597 2516 
Q 3050 2419 3304 2112 
Q 3559 1806 3559 1356 
Q 3559 666 3084 287 
Q 2609 -91 1734 -91 
Q 1441 -91 1130 -33 
Q 819 25 488 141 
L 488 750 
Q 750 597 1062 519 
Q 1375 441 1716 441 
Q 2309 441 2620 675 
Q 2931 909 2931 1356 
Q 2931 1769 2642 2001 
Q 2353 2234 1838 2234 
L 1294 2234 
L 1294 2753 
L 1863 2753 
Q 2328 2753 2575 2939 
Q 2822 3125 2822 3475 
Q 2822 3834 2567 4026 
Q 2313 4219 1838 4219 
Q 1578 4219 1281 4162 
Q 984 4106 628 3988 
L 628 4550 
Q 988 4650 1302 4700 
Q 1616 4750 1894 4750 
Q 2613 4750 3031 4423 
Q 3450 4097 3450 3541 
Q 3450 3153 3228 2886 
Q 3006 2619 2597 2516 
z
" transform="scale(0.015625)"/>
       </defs>
       <use xlink:href="#DejaVuSans-33"/>
       <use xlink:href="#DejaVuSans-30" x="63.623047"/>
      </g>
     </g>
    </g>
    <g id="ytick_6">
     <g id="line2d_12">
      <g>
       <use xlink:href="#m15a8aabf33" x="44.66" y="88.824919" style="stroke: #000000; stroke-width: 0.8"/>
      </g>
     </g>
     <g id="text_13">
      <!-- 35 -->
      <g transform="translate(24.935 92.624137) scale(0.1 -0.1)">
       <use xlink:href="#DejaVuSans-33"/>
       <use xlink:href="#DejaVuSans-35" x="63.623047"/>
      </g>
     </g>
    </g>
    <g id="ytick_7">
     <g id="line2d_13">
      <g>
       <use xlink:href="#m15a8aabf33" x="44.66" y="52.98446" style="stroke: #000000; stroke-width: 0.8"/>
      </g>
     </g>
     <g id="text_14">
      <!-- 40 -->
      <g transform="translate(24.935 56.783679) scale(0.1 -0.1)">
       <use xlink:href="#DejaVuSans-34"/>
       <use xlink:href="#DejaVuSans-30" x="63.623047"/>
      </g>
     </g>
    </g>
    <g id="ytick_8">
     <g id="line2d_14">
      <g>
       <use xlink:href="#m15a8aabf33" x="44.66" y="17.144001" style="stroke: #000000; stroke-width: 0.8"/>
      </g>
     </g>
     <g id="text_15">
      <!-- 45 -->
      <g transform="translate(24.935 20.94322) scale(0.1 -0.1)">
       <use xlink:href="#DejaVuSans-34"/>
       <use xlink:href="#DejaVuSans-35" x="63.623047"/>
      </g>
     </g>
    </g>
    <g id="text_16">
     <!-- Price -->
     <g transform="translate(18.855313 169.417656) rotate(-90) scale(0.1 -0.1)">
      <defs>
       <path id="DejaVuSans-50" d="M 1259 4147 
L 1259 2394 
L 2053 2394 
Q 2494 2394 2734 2622 
Q 2975 2850 2975 3272 
Q 2975 3691 2734 3919 
Q 2494 4147 2053 4147 
L 1259 4147 
z
M 628 4666 
L 2053 4666 
Q 2838 4666 3239 4311 
Q 3641 3956 3641 3272 
Q 3641 2581 3239 2228 
Q 2838 1875 2053 1875 
L 1259 1875 
L 1259 0 
L 628 0 
L 628 4666 
z
" transform="scale(0.015625)"/>
       <path id="DejaVuSans-72" d="M 2631 2963 
Q 2534 3019 2420 3045 
Q 2306 3072 2169 3072 
Q 1681 3072 1420 2755 
Q 1159 2438 1159 1844 
L 1159 0 
L 581 0 
L 581 3500 
L 1159 3500 
L 1159 2956 
Q 1341 3275 1631 3429 
Q 1922 3584 2338 3584 
Q 2397 3584 2469 3576 
Q 2541 3569 2628 3553 
L 2631 2963 
z
" transform="scale(0.015625)"/>
       <path id="DejaVuSans-69" d="M 603 3500 
L 1178 3500 
L 1178 0 
L 603 0 
L 603 3500 
z
M 603 4863 
L 1178 4863 
L 1178 4134 
L 603 4134 
L 603 4863 
z
" transform="scale(0.015625)"/>
       <path id="DejaVuSans-63" d="M 3122 3366 
L 3122 2828 
Q 2878 2963 2633 3030 
Q 2388 3097 2138 3097 
Q 1578 3097 1268 2742 
Q 959 2388 959 1747 
Q 959 1106 1268 751 
Q 1578 397 2138 397 
Q 2388 397 2633 464 
Q 2878 531 3122 666 
L 3122 134 
Q 2881 22 2623 -34 
Q 2366 -91 2075 -91 
Q 1284 -91 818 406 
Q 353 903 353 1747 
Q 353 2603 823 3093 
Q 1294 3584 2113 3584 
Q 2378 3584 2631 3529 
Q 2884 3475 3122 3366 
z
" transform="scale(0.015625)"/>
       <path id="DejaVuSans-65" d="M 3597 1894 
L 3597 1613 
L 953 1613 
Q 991 1019 1311 708 
Q 1631 397 2203 397 
Q 2534 397 2845 478 
Q 3156 559 3463 722 
L 3463 178 
Q 3153 47 2828 -22 
Q 2503 -91 2169 -91 
Q 1331 -91 842 396 
Q 353 884 353 1716 
Q 353 2575 817 3079 
Q 1281 3584 2069 3584 
Q 2775 3584 3186 3129 
Q 3597 2675 3597 1894 
z
M 3022 2063 
Q 3016 2534 2758 2815 
Q 2500 3097 2075 3097 
Q 1594 3097 1305 2825 
Q 1016 2553 972 2059 
L 3022 2063 
z
" transform="scale(0.015625)"/>
      </defs>
      <use xlink:href="#DejaVuSans-50"/>
      <use xlink:href="#DejaVuSans-72" x="58.552734"/>
      <use xlink:href="#DejaVuSans-69" x="99.666016"/>
      <use xlink:href="#DejaVuSans-63" x="127.449219"/>
      <use xlink:href="#DejaVuSans-65" x="182.429688"/>
     </g>
    </g>
   </g>
   <g id="line2d_15">
    <path d="M 63.084545 290.329091 
L 66.769455 289.445822 
L 70.454364 288.571105 
L 74.139273 287.705115 
L 77.824182 286.847995 
L 81.509091 285.999862 
L 85.194 285.160805 
L 88.878909 284.330885 
L 92.563818 283.510144 
L 96.248727 282.698596 
L 99.933636 281.896237 
L 103.618545 281.103041 
L 107.303455 280.318967 
L 110.988364 279.543953 
L 114.673273 278.777925 
L 118.358182 278.020794 
L 122.043091 277.272457 
L 125.728 276.532803 
L 129.412909 275.801709 
L 133.097818 275.079043 
L 136.782727 274.364667 
L 140.467636 273.658436 
L 144.152545 272.9602 
L 147.837455 272.269805 
L 151.522364 271.587092 
L 155.207273 270.911902 
L 158.892182 270.244074 
L 162.577091 269.583445 
L 166.262 268.929852 
L 169.946909 268.283134 
L 173.631818 267.643129 
L 177.316727 267.009677 
L 181.001636 266.382621 
L 184.686545 265.761806 
L 188.371455 265.147078 
L 192.056364 264.538287 
L 195.741273 263.935288 
L 199.426182 263.337937 
L 203.111091 262.746093 
L 206.796 262.159622 
L 210.480909 261.578389 
L 214.165818 261.002267 
L 217.850727 260.431131 
L 221.535636 259.86486 
L 225.220545 259.303336 
L 228.905455 258.746446 
L 232.590364 258.19408 
L 236.275273 257.646132 
L 239.960182 257.1025 
L 243.645091 256.563085 
L 247.33 256.02779 
L 251.014909 255.496524 
L 254.699818 254.969198 
L 258.384727 254.445726 
L 262.069636 253.926024 
L 265.754545 253.410013 
L 269.439455 252.897616 
L 273.124364 252.388756 
L 276.809273 251.883364 
L 280.494182 251.381368 
L 284.179091 250.882702 
L 287.864 250.3873 
L 291.548909 249.895099 
L 295.233818 249.40604 
L 298.918727 248.920061 
L 302.603636 248.437108 
L 306.288545 247.957124 
L 309.973455 247.480056 
L 313.658364 247.005851 
L 317.343273 246.534461 
L 321.028182 246.065835 
L 324.713091 245.599926 
L 328.398 245.136689 
L 332.082909 244.676079 
L 335.767818 244.218051 
L 339.452727 243.762565 
L 343.137636 243.309578 
L 346.822545 242.859051 
L 350.507455 242.410945 
L 354.192364 241.965222 
L 357.877273 241.521845 
L 361.562182 241.080778 
L 365.247091 240.641987 
L 368.932 240.205436 
L 372.616909 239.771093 
L 376.301818 239.338926 
L 379.986727 238.908902 
L 383.671636 238.480991 
L 387.356545 238.055162 
L 391.041455 237.631387 
L 394.726364 237.209636 
L 398.411273 236.789881 
L 402.096182 236.372095 
L 405.781091 235.956251 
L 409.466 235.542323 
L 413.150909 235.130285 
L 416.835818 234.720112 
L 420.520727 234.31178 
L 424.205636 233.905265 
L 427.890545 233.500543 
L 431.575455 233.097591 
" clip-path="url(#p463a685d8a)" style="fill: none; stroke: #1f77b4; stroke-width: 1.5; stroke-linecap: square"/>
   </g>
   <g id="line2d_16">
    <path d="M 63.084545 264.797388 
L 66.769455 263.484988 
L 70.454364 262.1944 
L 74.139273 260.925233 
L 77.824182 259.677059 
L 81.509091 258.449412 
L 85.194 257.241798 
L 88.878909 256.053704 
L 92.563818 254.8846 
L 96.248727 253.733948 
L 99.933636 252.601204 
L 103.618545 251.485825 
L 107.303455 250.387269 
L 110.988364 249.305002 
L 114.673273 248.238497 
L 118.358182 247.187239 
L 122.043091 246.150725 
L 125.728 245.128466 
L 129.412909 244.119988 
L 133.097818 243.124833 
L 136.782727 242.142559 
L 140.467636 241.172739 
L 144.152545 240.214966 
L 147.837455 239.268847 
L 151.522364 238.334004 
L 155.207273 237.410077 
L 158.892182 236.496721 
L 162.577091 235.593606 
L 166.262 234.700417 
L 169.946909 233.816851 
L 173.631818 232.942619 
L 177.316727 232.077448 
L 181.001636 231.221072 
L 184.686545 230.37324 
L 188.371455 229.533713 
L 192.056364 228.702258 
L 195.741273 227.878656 
L 199.426182 227.062697 
L 203.111091 226.254178 
L 206.796 225.452906 
L 210.480909 224.658695 
L 214.165818 223.871368 
L 217.850727 223.090755 
L 221.535636 222.316691 
L 225.220545 221.549019 
L 228.905455 220.787589 
L 232.590364 220.032255 
L 236.275273 219.282877 
L 239.960182 218.539322 
L 243.645091 217.801458 
L 247.33 217.069163 
L 251.014909 216.342315 
L 254.699818 215.620798 
L 258.384727 214.904501 
L 262.069636 214.193316 
L 265.754545 213.487138 
L 269.439455 212.785867 
L 273.124364 212.089405 
L 276.809273 211.397658 
L 280.494182 210.710535 
L 284.179091 210.027948 
L 287.864 209.349811 
L 291.548909 208.676041 
L 295.233818 208.006559 
L 298.918727 207.341287 
L 302.603636 206.680149 
L 306.288545 206.023072 
L 309.973455 205.369986 
L 313.658364 204.720822 
L 317.343273 204.075512 
L 321.028182 203.433991 
L 324.713091 202.796198 
L 328.398 202.162069 
L 332.082909 201.531546 
L 335.767818 200.904571 
L 339.452727 200.281086 
L 343.137636 199.661038 
L 346.822545 199.044371 
L 350.507455 198.431036 
L 354.192364 197.82098 
L 357.877273 197.214154 
L 361.562182 196.61051 
L 365.247091 196.01 
L 368.932 195.41258 
L 372.616909 194.818204 
L 376.301818 194.226829 
L 379.986727 193.638412 
L 383.671636 193.052912 
L 387.356545 192.470288 
L 391.041455 191.8905 
L 394.726364 191.313509 
L 398.411273 190.739279 
L 402.096182 190.167771 
L 405.781091 189.598951 
L 409.466 189.032781 
L 413.150909 188.469229 
L 416.835818 187.90826 
L 420.520727 187.34984 
L 424.205636 186.793939 
L 427.890545 186.240524 
L 431.575455 185.689563 
" clip-path="url(#p463a685d8a)" style="fill: none; stroke: #ff7f0e; stroke-width: 1.5; stroke-linecap: square"/>
   </g>
   <g id="line2d_17">
    <path d="M 63.084545 224.109893 
L 66.769455 222.281092 
L 70.454364 220.492102 
L 74.139273 218.741035 
L 77.824182 217.026083 
L 81.509091 215.345518 
L 85.194 213.697699 
L 88.878909 212.081069 
L 92.563818 210.494157 
L 96.248727 208.935579 
L 99.933636 207.404029 
L 103.618545 205.898282 
L 107.303455 204.417187 
L 110.988364 202.959663 
L 114.673273 201.524697 
L 118.358182 200.111339 
L 122.043091 198.718697 
L 125.728 197.345933 
L 129.412909 195.992261 
L 133.097818 194.656944 
L 136.782727 193.339285 
L 140.467636 192.038633 
L 144.152545 190.754371 
L 147.837455 189.48592 
L 151.522364 188.232731 
L 155.207273 186.994288 
L 158.892182 185.770103 
L 162.577091 184.559712 
L 166.262 183.362677 
L 169.946909 182.178584 
L 173.631818 181.007038 
L 177.316727 179.847664 
L 181.001636 178.700107 
L 184.686545 177.564027 
L 188.371455 176.439102 
L 192.056364 175.325024 
L 195.741273 174.221501 
L 199.426182 173.12825 
L 203.111091 172.045005 
L 206.796 170.971509 
L 210.480909 169.907516 
L 214.165818 168.852793 
L 217.850727 167.807113 
L 221.535636 166.770261 
L 225.220545 165.742029 
L 228.905455 164.722219 
L 232.590364 163.710638 
L 236.275273 162.707102 
L 239.960182 161.711435 
L 243.645091 160.723465 
L 247.33 159.743029 
L 251.014909 158.769967 
L 254.699818 157.804128 
L 258.384727 156.845363 
L 262.069636 155.89353 
L 265.754545 154.948491 
L 269.439455 154.010115 
L 273.124364 153.078271 
L 276.809273 152.152836 
L 280.494182 151.233689 
L 284.179091 150.320715 
L 287.864 149.413799 
L 291.548909 148.512833 
L 295.233818 147.61771 
L 298.918727 146.728329 
L 302.603636 145.844588 
L 306.288545 144.966391 
L 309.973455 144.093645 
L 313.658364 143.226258 
L 317.343273 142.364141 
L 321.028182 141.507208 
L 324.713091 140.655375 
L 328.398 139.808561 
L 332.082909 138.966686 
L 335.767818 138.129673 
L 339.452727 137.297448 
L 343.137636 136.469936 
L 346.822545 135.647067 
L 350.507455 134.828771 
L 354.192364 134.014981 
L 357.877273 133.205631 
L 361.562182 132.400656 
L 365.247091 131.599993 
L 368.932 130.803582 
L 372.616909 130.011362 
L 376.301818 129.223276 
L 379.986727 128.439266 
L 383.671636 127.659277 
L 387.356545 126.883255 
L 391.041455 126.111146 
L 394.726364 125.342899 
L 398.411273 124.578463 
L 402.096182 123.817788 
L 405.781091 123.060826 
L 409.466 122.30753 
L 413.150909 121.557853 
L 416.835818 120.81175 
L 420.520727 120.069177 
L 424.205636 119.33009 
L 427.890545 118.594446 
L 431.575455 117.862204 
" clip-path="url(#p463a685d8a)" style="fill: none; stroke: #2ca02c; stroke-width: 1.5; stroke-linecap: square"/>
   </g>
   <g id="line2d_18">
    <path d="M 63.084545 158.976693 
L 66.769455 156.628304 
L 70.454364 154.335381 
L 74.139273 152.094364 
L 77.824182 149.902029 
L 81.509091 147.755445 
L 85.194 145.651953 
L 88.878909 143.589129 
L 92.563818 141.564764 
L 96.248727 139.576837 
L 99.933636 137.6235 
L 103.618545 135.703054 
L 107.303455 133.813936 
L 110.988364 131.954707 
L 114.673273 130.124036 
L 118.358182 128.32069 
L 122.043091 126.543526 
L 125.728 124.79148 
L 129.412909 123.063561 
L 133.097818 121.358844 
L 136.782727 119.676466 
L 140.467636 118.015614 
L 144.152545 116.37553 
L 147.837455 114.755498 
L 151.522364 113.154846 
L 155.207273 111.57294 
L 158.892182 110.00918 
L 162.577091 108.463002 
L 166.262 106.933868 
L 169.946909 105.421271 
L 173.631818 103.92473 
L 177.316727 102.443785 
L 181.001636 100.978003 
L 184.686545 99.526967 
L 188.371455 98.090284 
L 192.056364 96.667576 
L 195.741273 95.258482 
L 199.426182 93.86266 
L 203.111091 92.47978 
L 206.796 91.109527 
L 210.480909 89.751599 
L 214.165818 88.405706 
L 217.850727 87.071571 
L 221.535636 85.748927 
L 225.220545 84.437518 
L 228.905455 83.137097 
L 232.590364 81.847427 
L 236.275273 80.568279 
L 239.960182 79.299433 
L 243.645091 78.040678 
L 247.33 76.791808 
L 251.014909 75.552627 
L 254.699818 74.322943 
L 258.384727 73.102572 
L 262.069636 71.891336 
L 265.754545 70.689063 
L 269.439455 69.495585 
L 273.124364 68.310743 
L 276.809273 67.13438 
L 280.494182 65.966343 
L 284.179091 64.806487 
L 287.864 63.65467 
L 291.548909 62.510752 
L 295.233818 61.374601 
L 298.918727 60.246086 
L 302.603636 59.125081 
L 306.288545 58.011463 
L 309.973455 56.905113 
L 313.658364 55.805916 
L 317.343273 54.713758 
L 321.028182 53.62853 
L 324.713091 52.550127 
L 328.398 51.478443 
L 332.082909 50.413379 
L 335.767818 49.354838 
L 339.452727 48.302726 
L 343.137636 47.256951 
L 346.822545 46.217427 
L 350.507455 45.18407 
L 354.192364 44.156804 
L 357.877273 43.135555 
L 361.562182 42.12026 
L 365.247091 41.110863 
L 368.932 40.107322 
L 372.616909 39.109607 
L 376.301818 38.11771 
L 379.986727 37.131649 
L 383.671636 36.151471 
L 387.356545 35.177266 
L 391.041455 34.209175 
L 394.726364 33.247405 
L 398.411273 32.292241 
L 402.096182 31.344069 
L 405.781091 30.403399 
L 409.466 29.470885 
L 413.150909 28.547362 
L 416.835818 27.633877 
L 420.520727 26.731725 
L 424.205636 25.842495 
L 427.890545 24.968118 
L 431.575455 24.110909 
" clip-path="url(#p463a685d8a)" style="fill: none; stroke: #d62728; stroke-width: 1.5; stroke-linecap: square"/>
   </g>
   <g id="patch_3">
    <path d="M 44.66 303.64 
L 44.66 10.8 
" style="fill: none; stroke: #000000; stroke-width: 0.8; stroke-linejoin: miter; stroke-linecap: square"/>
   </g>
   <g id="patch_4">
    <path d="M 450 303.64 
L 450 10.8 
" style="fill: none; stroke: #000000; stroke-width: 0.8; stroke-linejoin: miter; stroke-linecap: square"/>
   </g>
   <g id="patch_5">
    <path d="M 44.66 303.64 
L 450 303.64 
" style="fill: none; stroke: #000000; stroke-width: 0.8; stroke-linejoin: miter; stroke-linecap: square"/>
   </g>
   <g id="patch_6">
    <path d="M 44.66 10.8 
L 450 10.8 
" style="fill: none; stroke: #000000; stroke-width: 0.8; stroke-linejoin: miter; stroke-linecap: square"/>
   </g>
   <g id="legend_1">
    <g id="patch_7">
     <path d="M 51.66 77.5125 
L 123.59125 77.5125 
Q 125.59125 77.5125 125.59125 75.5125 
L 125.59125 17.8 
Q 125.59125 15.8 123.59125 15.8 
L 51.66 15.8 
Q 49.66 15.8 49.66 17.8 
L 49.66 75.5125 
Q 49.66 77.5125 51.66 77.5125 
z
" style="fill: #ffffff; opacity: 0.8; stroke: #cccccc; stroke-linejoin: miter"/>
    </g>
    <g id="line2d_19">
     <path d="M 53.66 23.898438 
L 63.66 23.898438 
L 73.66 23.898438 
" style="fill: none; stroke: #1f77b4; stroke-width: 1.5; stroke-linecap: square"/>
    </g>
    <g id="text_17">
     <!-- T = 50 -->
     <g transform="translate(81.66 27.398438) scale(0.1 -0.1)">
      <defs>
       <path id="DejaVuSans-54" d="M -19 4666 
L 3928 4666 
L 3928 4134 
L 2272 4134 
L 2272 0 
L 1638 0 
L 1638 4134 
L -19 4134 
L -19 4666 
z
" transform="scale(0.015625)"/>
       <path id="DejaVuSans-20" transform="scale(0.015625)"/>
       <path id="DejaVuSans-3d" d="M 678 2906 
L 4684 2906 
L 4684 2381 
L 678 2381 
L 678 2906 
z
M 678 1631 
L 4684 1631 
L 4684 1100 
L 678 1100 
L 678 1631 
z
" transform="scale(0.015625)"/>
      </defs>
      <use xlink:href="#DejaVuSans-54"/>
      <use xlink:href="#DejaVuSans-20" x="61.083984"/>
      <use xlink:href="#DejaVuSans-3d" x="92.871094"/>
      <use xlink:href="#DejaVuSans-20" x="176.660156"/>
      <use xlink:href="#DejaVuSans-35" x="208.447266"/>
      <use xlink:href="#DejaVuSans-30" x="272.070312"/>
     </g>
    </g>
    <g id="line2d_20">
     <path d="M 53.66 38.576563 
L 63.66 38.576563 
L 73.66 38.576563 
" style="fill: none; stroke: #ff7f0e; stroke-width: 1.5; stroke-linecap: square"/>
    </g>
    <g id="text_18">
     <!-- T = 100 -->
     <g transform="translate(81.66 42.076563) scale(0.1 -0.1)">
      <use xlink:href="#DejaVuSans-54"/>
      <use xlink:href="#DejaVuSans-20" x="61.083984"/>
      <use xlink:href="#DejaVuSans-3d" x="92.871094"/>
      <use xlink:href="#DejaVuSans-20" x="176.660156"/>
      <use xlink:href="#DejaVuSans-31" x="208.447266"/>
      <use xlink:href="#DejaVuSans-30" x="272.070312"/>
      <use xlink:href="#DejaVuSans-30" x="335.693359"/>
     </g>
    </g>
    <g id="line2d_21">
     <path d="M 53.66 53.254688 
L 63.66 53.254688 
L 73.66 53.254688 
" style="fill: none; stroke: #2ca02c; stroke-width: 1.5; stroke-linecap: square"/>
    </g>
    <g id="text_19">
     <!-- T = 200 -->
     <g transform="translate(81.66 56.754688) scale(0.1 -0.1)">
      <use xlink:href="#DejaVuSans-54"/>
      <use xlink:href="#DejaVuSans-20" x="61.083984"/>
      <use xlink:href="#DejaVuSans-3d" x="92.871094"/>
      <use xlink:href="#DejaVuSans-20" x="176.660156"/>
      <use xlink:href="#DejaVuSans-32" x="208.447266"/>
      <use xlink:href="#DejaVuSans-30" x="272.070312"/>
      <use xlink:href="#DejaVuSans-30" x="335.693359"/>
     </g>
    </g>
    <g id="line2d_22">
     <path d="M 53.66 67.932813 
L 63.66 67.932813 
L 73.66 67.932813 
" style="fill: none; stroke: #d62728; stroke-width: 1.5; stroke-linecap: square"/>
    </g>
    <g id="text_20">
     <!-- T = 400 -->
     <g transform="translate(81.66 71.432813) scale(0.1 -0.1)">
      <use xlink:href="#DejaVuSans-54"/>
      <use xlink:href="#DejaVuSans-20" x="61.083984"/>
      <use xlink:href="#DejaVuSans-3d" x="92.871094"/>
      <use xlink:href="#DejaVuSans-20" x="176.660156"/>
      <use xlink:href="#DejaVuSans-34" x="208.447266"/>
      <use xlink:href="#DejaVuSans-30" x="272.070312"/>
      <use xlink:href="#DejaVuSans-30" x="335.693359"/>
     </g>
    </g>
   </g>
  </g>
 </g>
 <defs>
  <clipPath id="p463a685d8a">
   <rect x="44.66" y="10.8" width="405.34" height="292.84"/>
  </clipPath>
 </defs>
</svg>
