<?xml version="1.0" encoding="utf-8" standalone="no"?>
<!DOCTYPE svg PUBLIC "-//W3C//DTD SVG 1.1//EN"
  "http://www.w3.org/Graphics/SVG/1.1/DTD/svg11.dtd">
<svg xmlns:xlink="http://www.w3.org/1999/xlink" width="460.8pt" height="345.6pt" viewBox="0 0 460.8 345.6" xmlns="http://www.w3.org/2000/svg" version="1.1">
 <metadata>
  <rdf:RDF xmlns:dc="http://purl.org/dc/elements/1.1/" xmlns:cc="http://creativecommons.org/ns#" xmlns:rdf="http://www.w3.org/1999/02/22-rdf-syntax-ns#">
   <cc:Work>
    <dc:type rdf:resource="http://purl.org/dc/dcmitype/StillImage"/>
    <dc:date>2023-08-10T10:46:34.304488</dc:date>
    <dc:format>image/svg+xml</dc:format>
    <dc:creator>
     <cc:Agent>
      <dc:title>Matplotlib v3.7.1, https://matplotlib.org/</dc:title>
     </cc:Agent>
    </dc:creator>
   </cc:Work>
  </rdf:RDF>
 </metadata>
 <defs>
  <style type="text/css">*{stroke-linejoin: round; stroke-linecap: butt}</style>
 </defs>
 <g id="figure_1">
  <g id="patch_1">
   <path d="M 0 345.6 
L 460.8 345.6 
L 460.8 0 
L 0 0 
z
" style="fill: #ffffff"/>
  </g>
  <g id="axes_1">
   <g id="patch_2">
    <path d="M 44.615 303.64 
L 450 303.64 
L 450 10.8 
L 44.615 10.8 
z
" style="fill: #ffffff"/>
   </g>
   <g id="matplotlib.axis_1">
    <g id="xtick_1">
     <g id="line2d_1">
      <defs>
       <path id="m53ced859ed" d="M 0 0 
L 0 3.5 
" style="stroke: #000000; stroke-width: 0.8"/>
      </defs>
      <g>
       <use xlink:href="#m53ced859ed" x="63.041591" y="303.64" style="stroke: #000000; stroke-width: 0.8"/>
      </g>
     </g>
     <g id="text_1">
      <!-- 0 -->
      <g transform="translate(59.860341 318.238437) scale(0.1 -0.1)">
       <defs>
        <path id="DejaVuSans-30" d="M 2034 4250 
Q 1547 4250 1301 3770 
Q 1056 3291 1056 2328 
Q 1056 1369 1301 889 
Q 1547 409 2034 409 
Q 2525 409 2770 889 
Q 3016 1369 3016 2328 
Q 3016 3291 2770 3770 
Q 2525 4250 2034 4250 
z
M 2034 4750 
Q 2819 4750 3233 4129 
Q 3647 3509 3647 2328 
Q 3647 1150 3233 529 
Q 2819 -91 2034 -91 
Q 1250 -91 836 529 
Q 422 1150 422 2328 
Q 422 3509 836 4129 
Q 1250 4750 2034 4750 
z
" transform="scale(0.015625)"/>
       </defs>
       <use xlink:href="#DejaVuSans-30"/>
      </g>
     </g>
    </g>
    <g id="xtick_2">
     <g id="line2d_2">
      <g>
       <use xlink:href="#m53ced859ed" x="136.747955" y="303.64" style="stroke: #000000; stroke-width: 0.8"/>
      </g>
     </g>
     <g id="text_2">
      <!-- 2 -->
      <g transform="translate(133.566705 318.238437) scale(0.1 -0.1)">
       <defs>
        <path id="DejaVuSans-32" d="M 1228 531 
L 3431 531 
L 3431 0 
L 469 0 
L 469 531 
Q 828 903 1448 1529 
Q 2069 2156 2228 2338 
Q 2531 2678 2651 2914 
Q 2772 3150 2772 3378 
Q 2772 3750 2511 3984 
Q 2250 4219 1831 4219 
Q 1534 4219 1204 4116 
Q 875 4013 500 3803 
L 500 4441 
Q 881 4594 1212 4672 
Q 1544 4750 1819 4750 
Q 2544 4750 2975 4387 
Q 3406 4025 3406 3419 
Q 3406 3131 3298 2873 
Q 3191 2616 2906 2266 
Q 2828 2175 2409 1742 
Q 1991 1309 1228 531 
z
" transform="scale(0.015625)"/>
       </defs>
       <use xlink:href="#DejaVuSans-32"/>
      </g>
     </g>
    </g>
    <g id="xtick_3">
     <g id="line2d_3">
      <g>
       <use xlink:href="#m53ced859ed" x="210.454318" y="303.64" style="stroke: #000000; stroke-width: 0.8"/>
      </g>
     </g>
     <g id="text_3">
      <!-- 4 -->
      <g transform="translate(207.273068 318.238437) scale(0.1 -0.1)">
       <defs>
        <path id="DejaVuSans-34" d="M 2419 4116 
L 825 1625 
L 2419 1625 
L 2419 4116 
z
M 2253 4666 
L 3047 4666 
L 3047 1625 
L 3713 1625 
L 3713 1100 
L 3047 1100 
L 3047 0 
L 2419 0 
L 2419 1100 
L 313 1100 
L 313 1709 
L 2253 4666 
z
" transform="scale(0.015625)"/>
       </defs>
       <use xlink:href="#DejaVuSans-34"/>
      </g>
     </g>
    </g>
    <g id="xtick_4">
     <g id="line2d_4">
      <g>
       <use xlink:href="#m53ced859ed" x="284.160682" y="303.64" style="stroke: #000000; stroke-width: 0.8"/>
      </g>
     </g>
     <g id="text_4">
      <!-- 6 -->
      <g transform="translate(280.979432 318.238437) scale(0.1 -0.1)">
       <defs>
        <path id="DejaVuSans-36" d="M 2113 2584 
Q 1688 2584 1439 2293 
Q 1191 2003 1191 1497 
Q 1191 994 1439 701 
Q 1688 409 2113 409 
Q 2538 409 2786 701 
Q 3034 994 3034 1497 
Q 3034 2003 2786 2293 
Q 2538 2584 2113 2584 
z
M 3366 4563 
L 3366 3988 
Q 3128 4100 2886 4159 
Q 2644 4219 2406 4219 
Q 1781 4219 1451 3797 
Q 1122 3375 1075 2522 
Q 1259 2794 1537 2939 
Q 1816 3084 2150 3084 
Q 2853 3084 3261 2657 
Q 3669 2231 3669 1497 
Q 3669 778 3244 343 
Q 2819 -91 2113 -91 
Q 1303 -91 875 529 
Q 447 1150 447 2328 
Q 447 3434 972 4092 
Q 1497 4750 2381 4750 
Q 2619 4750 2861 4703 
Q 3103 4656 3366 4563 
z
" transform="scale(0.015625)"/>
       </defs>
       <use xlink:href="#DejaVuSans-36"/>
      </g>
     </g>
    </g>
    <g id="xtick_5">
     <g id="line2d_5">
      <g>
       <use xlink:href="#m53ced859ed" x="357.867045" y="303.64" style="stroke: #000000; stroke-width: 0.8"/>
      </g>
     </g>
     <g id="text_5">
      <!-- 8 -->
      <g transform="translate(354.685795 318.238437) scale(0.1 -0.1)">
       <defs>
        <path id="DejaVuSans-38" d="M 2034 2216 
Q 1584 2216 1326 1975 
Q 1069 1734 1069 1313 
Q 1069 891 1326 650 
Q 1584 409 2034 409 
Q 2484 409 2743 651 
Q 3003 894 3003 1313 
Q 3003 1734 2745 1975 
Q 2488 2216 2034 2216 
z
M 1403 2484 
Q 997 2584 770 2862 
Q 544 3141 544 3541 
Q 544 4100 942 4425 
Q 1341 4750 2034 4750 
Q 2731 4750 3128 4425 
Q 3525 4100 3525 3541 
Q 3525 3141 3298 2862 
Q 3072 2584 2669 2484 
Q 3125 2378 3379 2068 
Q 3634 1759 3634 1313 
Q 3634 634 3220 271 
Q 2806 -91 2034 -91 
Q 1263 -91 848 271 
Q 434 634 434 1313 
Q 434 1759 690 2068 
Q 947 2378 1403 2484 
z
M 1172 3481 
Q 1172 3119 1398 2916 
Q 1625 2713 2034 2713 
Q 2441 2713 2670 2916 
Q 2900 3119 2900 3481 
Q 2900 3844 2670 4047 
Q 2441 4250 2034 4250 
Q 1625 4250 1398 4047 
Q 1172 3844 1172 3481 
z
" transform="scale(0.015625)"/>
       </defs>
       <use xlink:href="#DejaVuSans-38"/>
      </g>
     </g>
    </g>
    <g id="xtick_6">
     <g id="line2d_6">
      <g>
       <use xlink:href="#m53ced859ed" x="431.573409" y="303.64" style="stroke: #000000; stroke-width: 0.8"/>
      </g>
     </g>
     <g id="text_6">
      <!-- 10 -->
      <g transform="translate(425.210909 318.238437) scale(0.1 -0.1)">
       <defs>
        <path id="DejaVuSans-31" d="M 794 531 
L 1825 531 
L 1825 4091 
L 703 3866 
L 703 4441 
L 1819 4666 
L 2450 4666 
L 2450 531 
L 3481 531 
L 3481 0 
L 794 0 
L 794 531 
z
" transform="scale(0.015625)"/>
       </defs>
       <use xlink:href="#DejaVuSans-31"/>
       <use xlink:href="#DejaVuSans-30" x="63.623047"/>
      </g>
     </g>
    </g>
    <g id="text_7">
     <!-- $\lambda$ -->
     <g transform="translate(244.3075 331.916562) scale(0.1 -0.1)">
      <defs>
       <path id="DejaVuSans-Oblique-3bb" d="M 2350 4316 
L 3125 0 
L 2516 0 
L 2038 2588 
L 328 0 
L -281 0 
L 1903 3356 
L 1794 3975 
Q 1725 4369 1391 4369 
L 1091 4369 
L 1184 4863 
L 1550 4856 
Q 2253 4847 2350 4316 
z
" transform="scale(0.015625)"/>
      </defs>
      <use xlink:href="#DejaVuSans-Oblique-3bb" transform="translate(0 0.015625)"/>
     </g>
    </g>
   </g>
   <g id="matplotlib.axis_2">
    <g id="ytick_1">
     <g id="line2d_7">
      <defs>
       <path id="ma0b42ca22e" d="M 0 0 
L -3.5 0 
" style="stroke: #000000; stroke-width: 0.8"/>
      </defs>
      <g>
       <use xlink:href="#ma0b42ca22e" x="44.615" y="283.149936" style="stroke: #000000; stroke-width: 0.8"/>
      </g>
     </g>
     <g id="text_8">
      <!-- 5 -->
      <g transform="translate(31.2525 286.949155) scale(0.1 -0.1)">
       <defs>
        <path id="DejaVuSans-35" d="M 691 4666 
L 3169 4666 
L 3169 4134 
L 1269 4134 
L 1269 2991 
Q 1406 3038 1543 3061 
Q 1681 3084 1819 3084 
Q 2600 3084 3056 2656 
Q 3513 2228 3513 1497 
Q 3513 744 3044 326 
Q 2575 -91 1722 -91 
Q 1428 -91 1123 -41 
Q 819 9 494 109 
L 494 744 
Q 775 591 1075 516 
Q 1375 441 1709 441 
Q 2250 441 2565 725 
Q 2881 1009 2881 1497 
Q 2881 1984 2565 2268 
Q 2250 2553 1709 2553 
Q 1456 2553 1204 2497 
Q 953 2441 691 2322 
L 691 4666 
z
" transform="scale(0.015625)"/>
       </defs>
       <use xlink:href="#DejaVuSans-35"/>
      </g>
     </g>
    </g>
    <g id="ytick_2">
     <g id="line2d_8">
      <g>
       <use xlink:href="#ma0b42ca22e" x="44.615" y="221.290555" style="stroke: #000000; stroke-width: 0.8"/>
      </g>
     </g>
     <g id="text_9">
      <!-- 10 -->
      <g transform="translate(24.89 225.089774) scale(0.1 -0.1)">
       <use xlink:href="#DejaVuSans-31"/>
       <use xlink:href="#DejaVuSans-30" x="63.623047"/>
      </g>
     </g>
    </g>
    <g id="ytick_3">
     <g id="line2d_9">
      <g>
       <use xlink:href="#ma0b42ca22e" x="44.615" y="159.431175" style="stroke: #000000; stroke-width: 0.8"/>
      </g>
     </g>
     <g id="text_10">
      <!-- 15 -->
      <g transform="translate(24.89 163.230393) scale(0.1 -0.1)">
       <use xlink:href="#DejaVuSans-31"/>
       <use xlink:href="#DejaVuSans-35" x="63.623047"/>
      </g>
     </g>
    </g>
    <g id="ytick_4">
     <g id="line2d_10">
      <g>
       <use xlink:href="#ma0b42ca22e" x="44.615" y="97.571794" style="stroke: #000000; stroke-width: 0.8"/>
      </g>
     </g>
     <g id="text_11">
      <!-- 20 -->
      <g transform="translate(24.89 101.371013) scale(0.1 -0.1)">
       <use xlink:href="#DejaVuSans-32"/>
       <use xlink:href="#DejaVuSans-30" x="63.623047"/>
      </g>
     </g>
    </g>
    <g id="ytick_5">
     <g id="line2d_11">
      <g>
       <use xlink:href="#ma0b42ca22e" x="44.615" y="35.712413" style="stroke: #000000; stroke-width: 0.8"/>
      </g>
     </g>
     <g id="text_12">
      <!-- 25 -->
      <g transform="translate(24.89 39.511632) scale(0.1 -0.1)">
       <use xlink:href="#DejaVuSans-32"/>
       <use xlink:href="#DejaVuSans-35" x="63.623047"/>
      </g>
     </g>
    </g>
    <g id="text_13">
     <!-- Price -->
     <g transform="translate(18.810313 169.417656) rotate(-90) scale(0.1 -0.1)">
      <defs>
       <path id="DejaVuSans-50" d="M 1259 4147 
L 1259 2394 
L 2053 2394 
Q 2494 2394 2734 2622 
Q 2975 2850 2975 3272 
Q 2975 3691 2734 3919 
Q 2494 4147 2053 4147 
L 1259 4147 
z
M 628 4666 
L 2053 4666 
Q 2838 4666 3239 4311 
Q 3641 3956 3641 3272 
Q 3641 2581 3239 2228 
Q 2838 1875 2053 1875 
L 1259 1875 
L 1259 0 
L 628 0 
L 628 4666 
z
" transform="scale(0.015625)"/>
       <path id="DejaVuSans-72" d="M 2631 2963 
Q 2534 3019 2420 3045 
Q 2306 3072 2169 3072 
Q 1681 3072 1420 2755 
Q 1159 2438 1159 1844 
L 1159 0 
L 581 0 
L 581 3500 
L 1159 3500 
L 1159 2956 
Q 1341 3275 1631 3429 
Q 1922 3584 2338 3584 
Q 2397 3584 2469 3576 
Q 2541 3569 2628 3553 
L 2631 2963 
z
" transform="scale(0.015625)"/>
       <path id="DejaVuSans-69" d="M 603 3500 
L 1178 3500 
L 1178 0 
L 603 0 
L 603 3500 
z
M 603 4863 
L 1178 4863 
L 1178 4134 
L 603 4134 
L 603 4863 
z
" transform="scale(0.015625)"/>
       <path id="DejaVuSans-63" d="M 3122 3366 
L 3122 2828 
Q 2878 2963 2633 3030 
Q 2388 3097 2138 3097 
Q 1578 3097 1268 2742 
Q 959 2388 959 1747 
Q 959 1106 1268 751 
Q 1578 397 2138 397 
Q 2388 397 2633 464 
Q 2878 531 3122 666 
L 3122 134 
Q 2881 22 2623 -34 
Q 2366 -91 2075 -91 
Q 1284 -91 818 406 
Q 353 903 353 1747 
Q 353 2603 823 3093 
Q 1294 3584 2113 3584 
Q 2378 3584 2631 3529 
Q 2884 3475 3122 3366 
z
" transform="scale(0.015625)"/>
       <path id="DejaVuSans-65" d="M 3597 1894 
L 3597 1613 
L 953 1613 
Q 991 1019 1311 708 
Q 1631 397 2203 397 
Q 2534 397 2845 478 
Q 3156 559 3463 722 
L 3463 178 
Q 3153 47 2828 -22 
Q 2503 -91 2169 -91 
Q 1331 -91 842 396 
Q 353 884 353 1716 
Q 353 2575 817 3079 
Q 1281 3584 2069 3584 
Q 2775 3584 3186 3129 
Q 3597 2675 3597 1894 
z
M 3022 2063 
Q 3016 2534 2758 2815 
Q 2500 3097 2075 3097 
Q 1594 3097 1305 2825 
Q 1016 2553 972 2059 
L 3022 2063 
z
" transform="scale(0.015625)"/>
      </defs>
      <use xlink:href="#DejaVuSans-50"/>
      <use xlink:href="#DejaVuSans-72" x="58.552734"/>
      <use xlink:href="#DejaVuSans-69" x="99.666016"/>
      <use xlink:href="#DejaVuSans-63" x="127.449219"/>
      <use xlink:href="#DejaVuSans-65" x="182.429688"/>
     </g>
    </g>
   </g>
   <g id="line2d_12">
    <path d="M 63.041591 290.329091 
L 66.726909 288.804599 
L 70.412227 287.294869 
L 74.097545 285.8002 
L 77.782864 284.320841 
L 81.468182 282.856993 
L 85.1535 281.408809 
L 88.838818 279.976398 
L 92.524136 278.559826 
L 96.209455 277.159123 
L 99.894773 275.774279 
L 103.580091 274.405251 
L 107.265409 273.051966 
L 110.950727 271.714319 
L 114.636045 270.392182 
L 118.321364 269.085399 
L 122.006682 267.793797 
L 125.692 266.51718 
L 129.377318 265.255337 
L 133.062636 264.008041 
L 136.747955 262.775053 
L 140.433273 261.556123 
L 144.118591 260.350992 
L 147.803909 259.159393 
L 151.489227 257.981055 
L 155.174545 256.815701 
L 158.859864 255.663053 
L 162.545182 254.52283 
L 166.2305 253.394752 
L 169.915818 252.278539 
L 173.601136 251.173912 
L 177.286455 250.080597 
L 180.971773 248.99832 
L 184.657091 247.926814 
L 188.342409 246.865815 
L 192.027727 245.815064 
L 195.713045 244.774309 
L 199.398364 243.743301 
L 203.083682 242.7218 
L 206.769 241.70957 
L 210.454318 240.706383 
L 214.139636 239.712017 
L 217.824955 238.726256 
L 221.510273 237.748891 
L 225.195591 236.77972 
L 228.880909 235.818548 
L 232.566227 234.865183 
L 236.251545 233.919445 
L 239.936864 232.981155 
L 243.622182 232.050142 
L 247.3075 231.126243 
L 250.992818 230.209297 
L 254.678136 229.29915 
L 258.363455 228.395655 
L 262.048773 227.498669 
L 265.734091 226.608052 
L 269.419409 225.723671 
L 273.104727 224.845398 
L 276.790045 223.973108 
L 280.475364 223.10668 
L 284.160682 222.246 
L 287.846 221.390953 
L 291.531318 220.541433 
L 295.216636 219.697333 
L 298.901955 218.858551 
L 302.587273 218.024991 
L 306.272591 217.196555 
L 309.957909 216.373152 
L 313.643227 215.554692 
L 317.328545 214.741088 
L 321.013864 213.932256 
L 324.699182 213.128114 
L 328.3845 212.328583 
L 332.069818 211.533585 
L 335.755136 210.743046 
L 339.440455 209.956892 
L 343.125773 209.175052 
L 346.811091 208.397459 
L 350.496409 207.624043 
L 354.181727 206.854741 
L 357.867045 206.089488 
L 361.552364 205.328222 
L 365.237682 204.570883 
L 368.923 203.817412 
L 372.608318 203.067752 
L 376.293636 202.321846 
L 379.978955 201.57964 
L 383.664273 200.84108 
L 387.349591 200.106115 
L 391.034909 199.374693 
L 394.720227 198.646765 
L 398.405545 197.922283 
L 402.090864 197.201199 
L 405.776182 196.483467 
L 409.4615 195.769041 
L 413.146818 195.057878 
L 416.832136 194.349934 
L 420.517455 193.645167 
L 424.202773 192.943536 
L 427.888091 192.245 
L 431.573409 191.54952 
" clip-path="url(#p66a192ffb9)" style="fill: none; stroke: #1f77b4; stroke-width: 1.5; stroke-linecap: square"/>
   </g>
   <g id="line2d_13">
    <path d="M 63.041591 276.054343 
L 66.726909 273.789188 
L 70.412227 271.561677 
L 74.097545 269.37114 
L 77.782864 267.216835 
L 81.468182 265.097959 
L 85.1535 263.013659 
L 88.838818 260.96305 
L 92.524136 258.945217 
L 96.209455 256.959232 
L 99.894773 255.004156 
L 103.580091 253.07905 
L 107.265409 251.182981 
L 110.950727 249.315026 
L 114.636045 247.474276 
L 118.321364 245.659841 
L 122.006682 243.870854 
L 125.692 242.10647 
L 129.377318 240.365873 
L 133.062636 238.64827 
L 136.747955 236.952899 
L 140.433273 235.279025 
L 144.118591 233.625942 
L 147.803909 231.992973 
L 151.489227 230.379466 
L 155.174545 228.784801 
L 158.859864 227.208381 
L 162.545182 225.649636 
L 166.2305 224.108022 
L 169.915818 222.583017 
L 173.601136 221.074125 
L 177.286455 219.580869 
L 180.971773 218.102794 
L 184.657091 216.639467 
L 188.342409 215.190471 
L 192.027727 213.755409 
L 195.713045 212.333901 
L 199.398364 210.925584 
L 203.083682 209.530108 
L 206.769 208.14714 
L 210.454318 206.776361 
L 214.139636 205.417462 
L 217.824955 204.07015 
L 221.510273 202.734143 
L 225.195591 201.409169 
L 228.880909 200.094967 
L 232.566227 198.791287 
L 236.251545 197.497887 
L 239.936864 196.214536 
L 243.622182 194.94101 
L 247.3075 193.677093 
L 250.992818 192.422579 
L 254.678136 191.177266 
L 258.363455 189.940963 
L 262.048773 188.713482 
L 265.734091 187.494644 
L 269.419409 186.284274 
L 273.104727 185.082205 
L 276.790045 183.888274 
L 280.475364 182.702323 
L 284.160682 181.524201 
L 287.846 180.35376 
L 291.531318 179.190858 
L 295.216636 178.035355 
L 298.901955 176.887119 
L 302.587273 175.746018 
L 306.272591 174.611927 
L 309.957909 173.484723 
L 313.643227 172.364287 
L 317.328545 171.250505 
L 321.013864 170.143263 
L 324.699182 169.042453 
L 328.3845 167.94797 
L 332.069818 166.859709 
L 335.755136 165.777571 
L 339.440455 164.701458 
L 343.125773 163.631276 
L 346.811091 162.566932 
L 350.496409 161.508336 
L 354.181727 160.455401 
L 357.867045 159.40804 
L 361.552364 158.366172 
L 365.237682 157.329714 
L 368.923 156.298587 
L 372.608318 155.272716 
L 376.293636 154.252023 
L 379.978955 153.236436 
L 383.664273 152.225883 
L 387.349591 151.220293 
L 391.034909 150.219599 
L 394.720227 149.223734 
L 398.405545 148.232633 
L 402.090864 147.24623 
L 405.776182 146.264466 
L 409.4615 145.287277 
L 413.146818 144.314605 
L 416.832136 143.346392 
L 420.517455 142.38258 
L 424.202773 141.423113 
L 427.888091 140.467938 
L 431.573409 139.517 
" clip-path="url(#p66a192ffb9)" style="fill: none; stroke: #ff7f0e; stroke-width: 1.5; stroke-linecap: square"/>
   </g>
   <g id="line2d_14">
    <path d="M 63.041591 263.224763 
L 66.726909 260.068317 
L 70.412227 256.980582 
L 74.097545 253.958302 
L 77.782864 250.998354 
L 81.468182 248.097759 
L 85.1535 245.25368 
L 88.838818 242.463432 
L 92.524136 239.724478 
L 96.209455 237.034426 
L 99.894773 234.391025 
L 103.580091 231.792158 
L 107.265409 229.235839 
L 110.950727 226.720204 
L 114.636045 224.243504 
L 118.321364 221.804097 
L 122.006682 219.400445 
L 125.692 217.031102 
L 129.377318 214.694712 
L 133.062636 212.390001 
L 136.747955 210.115769 
L 140.433273 207.870888 
L 144.118591 205.654297 
L 147.803909 203.464994 
L 151.489227 201.302034 
L 155.174545 199.164525 
L 158.859864 197.051624 
L 162.545182 194.962531 
L 166.2305 192.896491 
L 169.915818 190.852788 
L 173.601136 188.83074 
L 177.286455 186.829701 
L 180.971773 184.849057 
L 184.657091 182.888223 
L 188.342409 180.946642 
L 192.027727 179.023783 
L 195.713045 177.119139 
L 199.398364 175.232227 
L 203.083682 173.362583 
L 206.769 171.509766 
L 210.454318 169.673353 
L 214.139636 167.852937 
L 217.824955 166.048131 
L 221.510273 164.25856 
L 225.195591 162.483868 
L 228.880909 160.72371 
L 232.566227 158.977757 
L 236.251545 157.245689 
L 239.936864 155.527202 
L 243.622182 153.822001 
L 247.3075 152.129802 
L 250.992818 150.450332 
L 254.678136 148.783326 
L 258.363455 147.128531 
L 262.048773 145.485701 
L 265.734091 143.854598 
L 269.419409 142.234992 
L 273.104727 140.626663 
L 276.790045 139.029394 
L 280.475364 137.442979 
L 284.160682 135.867217 
L 287.846 134.301912 
L 291.531318 132.746876 
L 295.216636 131.201926 
L 298.901955 129.666884 
L 302.587273 128.141578 
L 306.272591 126.625842 
L 309.957909 125.119512 
L 313.643227 123.622432 
L 317.328545 122.134448 
L 321.013864 120.655411 
L 324.699182 119.185178 
L 328.3845 117.723606 
L 332.069818 116.270559 
L 335.755136 114.825905 
L 339.440455 113.389512 
L 343.125773 111.961256 
L 346.811091 110.541013 
L 350.496409 109.128663 
L 354.181727 107.72409 
L 357.867045 106.327179 
L 361.552364 104.93782 
L 365.237682 103.555905 
L 368.923 102.181327 
L 372.608318 100.813983 
L 376.293636 99.453774 
L 379.978955 98.100601 
L 383.664273 96.754367 
L 387.349591 95.414979 
L 391.034909 94.082346 
L 394.720227 92.756379 
L 398.405545 91.436988 
L 402.090864 90.12409 
L 405.776182 88.817601 
L 409.4615 87.517438 
L 413.146818 86.223522 
L 416.832136 84.935774 
L 420.517455 83.654119 
L 424.202773 82.37848 
L 427.888091 81.108785 
L 431.573409 79.844961 
" clip-path="url(#p66a192ffb9)" style="fill: none; stroke: #2ca02c; stroke-width: 1.5; stroke-linecap: square"/>
   </g>
   <g id="line2d_15">
    <path d="M 63.041591 257.337233 
L 66.726909 253.283995 
L 70.412227 249.32649 
L 74.097545 245.458574 
L 77.782864 241.674679 
L 81.468182 237.969751 
L 85.1535 234.339197 
L 88.838818 230.778835 
L 92.524136 227.284851 
L 96.209455 223.853759 
L 99.894773 220.482367 
L 103.580091 217.167743 
L 107.265409 213.907193 
L 110.950727 210.698229 
L 114.636045 207.538554 
L 118.321364 204.426042 
L 122.006682 201.358718 
L 125.692 198.334748 
L 129.377318 195.35242 
L 133.062636 192.410139 
L 136.747955 189.506412 
L 140.433273 186.639841 
L 144.118591 183.809112 
L 147.803909 181.012994 
L 151.489227 178.250325 
L 155.174545 175.52001 
L 158.859864 172.821015 
L 162.545182 170.152365 
L 166.2305 167.513133 
L 169.915818 164.902444 
L 173.601136 162.319465 
L 177.286455 159.763407 
L 180.971773 157.233518 
L 184.657091 154.729081 
L 188.342409 152.249416 
L 192.027727 149.793871 
L 195.713045 147.361825 
L 199.398364 144.952685 
L 203.083682 142.565882 
L 206.769 140.200873 
L 210.454318 137.857137 
L 214.139636 135.534173 
L 217.824955 133.231503 
L 221.510273 130.948665 
L 225.195591 128.685219 
L 228.880909 126.440737 
L 232.566227 124.214811 
L 236.251545 122.007046 
L 239.936864 119.817063 
L 243.622182 117.644496 
L 247.3075 115.48899 
L 250.992818 113.350206 
L 254.678136 111.227814 
L 258.363455 109.121497 
L 262.048773 107.030946 
L 265.734091 104.955864 
L 269.419409 102.895964 
L 273.104727 100.850968 
L 276.790045 98.820606 
L 280.475364 96.804615 
L 284.160682 94.802745 
L 287.846 92.814747 
L 291.531318 90.840386 
L 295.216636 88.879428 
L 298.901955 86.93165 
L 302.587273 84.996835 
L 306.272591 83.074769 
L 309.957909 81.165248 
L 313.643227 79.26807 
L 317.328545 77.383043 
L 321.013864 75.509976 
L 324.699182 73.648684 
L 328.3845 71.79899 
L 332.069818 69.960717 
L 335.755136 68.133696 
L 339.440455 66.317761 
L 343.125773 64.512751 
L 346.811091 62.718508 
L 350.496409 60.934878 
L 354.181727 59.161711 
L 357.867045 57.398862 
L 361.552364 55.646187 
L 365.237682 53.903547 
L 368.923 52.170807 
L 372.608318 50.447833 
L 376.293636 48.734496 
L 379.978955 47.030669 
L 383.664273 45.336227 
L 387.349591 43.651051 
L 391.034909 41.97502 
L 394.720227 40.30802 
L 398.405545 38.649937 
L 402.090864 37.00066 
L 405.776182 35.360081 
L 409.4615 33.728093 
L 413.146818 32.104592 
L 416.832136 30.489477 
L 420.517455 28.882648 
L 424.202773 27.284007 
L 427.888091 25.693459 
L 431.573409 24.110909 
" clip-path="url(#p66a192ffb9)" style="fill: none; stroke: #d62728; stroke-width: 1.5; stroke-linecap: square"/>
   </g>
   <g id="patch_3">
    <path d="M 44.615 303.64 
L 44.615 10.8 
" style="fill: none; stroke: #000000; stroke-width: 0.8; stroke-linejoin: miter; stroke-linecap: square"/>
   </g>
   <g id="patch_4">
    <path d="M 450 303.64 
L 450 10.8 
" style="fill: none; stroke: #000000; stroke-width: 0.8; stroke-linejoin: miter; stroke-linecap: square"/>
   </g>
   <g id="patch_5">
    <path d="M 44.615 303.64 
L 450 303.64 
" style="fill: none; stroke: #000000; stroke-width: 0.8; stroke-linejoin: miter; stroke-linecap: square"/>
   </g>
   <g id="patch_6">
    <path d="M 44.615 10.8 
L 450 10.8 
" style="fill: none; stroke: #000000; stroke-width: 0.8; stroke-linejoin: miter; stroke-linecap: square"/>
   </g>
   <g id="legend_1">
    <g id="patch_7">
     <path d="M 51.615 77.5125 
L 123.54625 77.5125 
Q 125.54625 77.5125 125.54625 75.5125 
L 125.54625 17.8 
Q 125.54625 15.8 123.54625 15.8 
L 51.615 15.8 
Q 49.615 15.8 49.615 17.8 
L 49.615 75.5125 
Q 49.615 77.5125 51.615 77.5125 
z
" style="fill: #ffffff; opacity: 0.8; stroke: #cccccc; stroke-linejoin: miter"/>
    </g>
    <g id="line2d_16">
     <path d="M 53.615 23.898438 
L 63.615 23.898438 
L 73.615 23.898438 
" style="fill: none; stroke: #1f77b4; stroke-width: 1.5; stroke-linecap: square"/>
    </g>
    <g id="text_14">
     <!-- T = 50 -->
     <g transform="translate(81.615 27.398438) scale(0.1 -0.1)">
      <defs>
       <path id="DejaVuSans-54" d="M -19 4666 
L 3928 4666 
L 3928 4134 
L 2272 4134 
L 2272 0 
L 1638 0 
L 1638 4134 
L -19 4134 
L -19 4666 
z
" transform="scale(0.015625)"/>
       <path id="DejaVuSans-20" transform="scale(0.015625)"/>
       <path id="DejaVuSans-3d" d="M 678 2906 
L 4684 2906 
L 4684 2381 
L 678 2381 
L 678 2906 
z
M 678 1631 
L 4684 1631 
L 4684 1100 
L 678 1100 
L 678 1631 
z
" transform="scale(0.015625)"/>
      </defs>
      <use xlink:href="#DejaVuSans-54"/>
      <use xlink:href="#DejaVuSans-20" x="61.083984"/>
      <use xlink:href="#DejaVuSans-3d" x="92.871094"/>
      <use xlink:href="#DejaVuSans-20" x="176.660156"/>
      <use xlink:href="#DejaVuSans-35" x="208.447266"/>
      <use xlink:href="#DejaVuSans-30" x="272.070312"/>
     </g>
    </g>
    <g id="line2d_17">
     <path d="M 53.615 38.576563 
L 63.615 38.576563 
L 73.615 38.576563 
" style="fill: none; stroke: #ff7f0e; stroke-width: 1.5; stroke-linecap: square"/>
    </g>
    <g id="text_15">
     <!-- T = 100 -->
     <g transform="translate(81.615 42.076563) scale(0.1 -0.1)">
      <use xlink:href="#DejaVuSans-54"/>
      <use xlink:href="#DejaVuSans-20" x="61.083984"/>
      <use xlink:href="#DejaVuSans-3d" x="92.871094"/>
      <use xlink:href="#DejaVuSans-20" x="176.660156"/>
      <use xlink:href="#DejaVuSans-31" x="208.447266"/>
      <use xlink:href="#DejaVuSans-30" x="272.070312"/>
      <use xlink:href="#DejaVuSans-30" x="335.693359"/>
     </g>
    </g>
    <g id="line2d_18">
     <path d="M 53.615 53.254688 
L 63.615 53.254688 
L 73.615 53.254688 
" style="fill: none; stroke: #2ca02c; stroke-width: 1.5; stroke-linecap: square"/>
    </g>
    <g id="text_16">
     <!-- T = 200 -->
     <g transform="translate(81.615 56.754688) scale(0.1 -0.1)">
      <use xlink:href="#DejaVuSans-54"/>
      <use xlink:href="#DejaVuSans-20" x="61.083984"/>
      <use xlink:href="#DejaVuSans-3d" x="92.871094"/>
      <use xlink:href="#DejaVuSans-20" x="176.660156"/>
      <use xlink:href="#DejaVuSans-32" x="208.447266"/>
      <use xlink:href="#DejaVuSans-30" x="272.070312"/>
      <use xlink:href="#DejaVuSans-30" x="335.693359"/>
     </g>
    </g>
    <g id="line2d_19">
     <path d="M 53.615 67.932813 
L 63.615 67.932813 
L 73.615 67.932813 
" style="fill: none; stroke: #d62728; stroke-width: 1.5; stroke-linecap: square"/>
    </g>
    <g id="text_17">
     <!-- T = 400 -->
     <g transform="translate(81.615 71.432813) scale(0.1 -0.1)">
      <use xlink:href="#DejaVuSans-54"/>
      <use xlink:href="#DejaVuSans-20" x="61.083984"/>
      <use xlink:href="#DejaVuSans-3d" x="92.871094"/>
      <use xlink:href="#DejaVuSans-20" x="176.660156"/>
      <use xlink:href="#DejaVuSans-34" x="208.447266"/>
      <use xlink:href="#DejaVuSans-30" x="272.070312"/>
      <use xlink:href="#DejaVuSans-30" x="335.693359"/>
     </g>
    </g>
   </g>
  </g>
 </g>
 <defs>
  <clipPath id="p66a192ffb9">
   <rect x="44.615" y="10.8" width="405.385" height="292.84"/>
  </clipPath>
 </defs>
</svg>
