<?xml version="1.0" encoding="utf-8" standalone="no"?>
<!DOCTYPE svg PUBLIC "-//W3C//DTD SVG 1.1//EN"
  "http://www.w3.org/Graphics/SVG/1.1/DTD/svg11.dtd">
<!-- Created with matplotlib (https://matplotlib.org/) -->
<svg height="345.6pt" version="1.1" viewBox="0 0 460.8 345.6" width="460.8pt" xmlns="http://www.w3.org/2000/svg" xmlns:xlink="http://www.w3.org/1999/xlink">
 <metadata>
  <rdf:RDF xmlns:cc="http://creativecommons.org/ns#" xmlns:dc="http://purl.org/dc/elements/1.1/" xmlns:rdf="http://www.w3.org/1999/02/22-rdf-syntax-ns#">
   <cc:Work>
    <dc:type rdf:resource="http://purl.org/dc/dcmitype/StillImage"/>
    <dc:date>2022-12-03T17:56:03.125346</dc:date>
    <dc:format>image/svg+xml</dc:format>
    <dc:creator>
     <cc:Agent>
      <dc:title>Matplotlib v3.3.4, https://matplotlib.org/</dc:title>
     </cc:Agent>
    </dc:creator>
   </cc:Work>
  </rdf:RDF>
 </metadata>
 <defs>
  <style type="text/css">*{stroke-linecap:butt;stroke-linejoin:round;}</style>
 </defs>
 <g id="figure_1">
  <g id="patch_1">
   <path d="M 0 345.6 
L 460.8 345.6 
L 460.8 0 
L 0 0 
z
" style="fill:#ffffff;"/>
  </g>
  <g id="axes_1">
   <g id="patch_2">
    <path d="M 42.1 150.32 
L 225 150.32 
L 225 14.76 
L 42.1 14.76 
z
" style="fill:#ffffff;"/>
   </g>
   <g id="matplotlib.axis_1">
    <g id="xtick_1">
     <g id="line2d_1">
      <defs>
       <path d="M 0 0 
L 0 3.5 
" id="m319fb65018" style="stroke:#000000;stroke-width:0.8;"/>
      </defs>
      <g>
       <use style="stroke:#000000;stroke-width:0.8;" x="50.413636" xlink:href="#m319fb65018" y="150.32"/>
      </g>
     </g>
     <g id="text_1">
      <!-- 0 -->
      <g transform="translate(47.232386 164.918437)scale(0.1 -0.1)">
       <defs>
        <path d="M 31.78125 66.40625 
Q 24.171875 66.40625 20.328125 58.90625 
Q 16.5 51.421875 16.5 36.375 
Q 16.5 21.390625 20.328125 13.890625 
Q 24.171875 6.390625 31.78125 6.390625 
Q 39.453125 6.390625 43.28125 13.890625 
Q 47.125 21.390625 47.125 36.375 
Q 47.125 51.421875 43.28125 58.90625 
Q 39.453125 66.40625 31.78125 66.40625 
z
M 31.78125 74.21875 
Q 44.046875 74.21875 50.515625 64.515625 
Q 56.984375 54.828125 56.984375 36.375 
Q 56.984375 17.96875 50.515625 8.265625 
Q 44.046875 -1.421875 31.78125 -1.421875 
Q 19.53125 -1.421875 13.0625 8.265625 
Q 6.59375 17.96875 6.59375 36.375 
Q 6.59375 54.828125 13.0625 64.515625 
Q 19.53125 74.21875 31.78125 74.21875 
z
" id="DejaVuSans-48"/>
       </defs>
       <use xlink:href="#DejaVuSans-48"/>
      </g>
     </g>
    </g>
    <g id="xtick_2">
     <g id="line2d_2">
      <g>
       <use style="stroke:#000000;stroke-width:0.8;" x="103.198629" xlink:href="#m319fb65018" y="150.32"/>
      </g>
     </g>
     <g id="text_2">
      <!-- 1 -->
      <g transform="translate(100.017379 164.918437)scale(0.1 -0.1)">
       <defs>
        <path d="M 12.40625 8.296875 
L 28.515625 8.296875 
L 28.515625 63.921875 
L 10.984375 60.40625 
L 10.984375 69.390625 
L 28.421875 72.90625 
L 38.28125 72.90625 
L 38.28125 8.296875 
L 54.390625 8.296875 
L 54.390625 0 
L 12.40625 0 
z
" id="DejaVuSans-49"/>
       </defs>
       <use xlink:href="#DejaVuSans-49"/>
      </g>
     </g>
    </g>
    <g id="xtick_3">
     <g id="line2d_3">
      <g>
       <use style="stroke:#000000;stroke-width:0.8;" x="155.983622" xlink:href="#m319fb65018" y="150.32"/>
      </g>
     </g>
     <g id="text_3">
      <!-- 2 -->
      <g transform="translate(152.802372 164.918437)scale(0.1 -0.1)">
       <defs>
        <path d="M 19.1875 8.296875 
L 53.609375 8.296875 
L 53.609375 0 
L 7.328125 0 
L 7.328125 8.296875 
Q 12.9375 14.109375 22.625 23.890625 
Q 32.328125 33.6875 34.8125 36.53125 
Q 39.546875 41.84375 41.421875 45.53125 
Q 43.3125 49.21875 43.3125 52.78125 
Q 43.3125 58.59375 39.234375 62.25 
Q 35.15625 65.921875 28.609375 65.921875 
Q 23.96875 65.921875 18.8125 64.3125 
Q 13.671875 62.703125 7.8125 59.421875 
L 7.8125 69.390625 
Q 13.765625 71.78125 18.9375 73 
Q 24.125 74.21875 28.421875 74.21875 
Q 39.75 74.21875 46.484375 68.546875 
Q 53.21875 62.890625 53.21875 53.421875 
Q 53.21875 48.921875 51.53125 44.890625 
Q 49.859375 40.875 45.40625 35.40625 
Q 44.1875 33.984375 37.640625 27.21875 
Q 31.109375 20.453125 19.1875 8.296875 
z
" id="DejaVuSans-50"/>
       </defs>
       <use xlink:href="#DejaVuSans-50"/>
      </g>
     </g>
    </g>
    <g id="xtick_4">
     <g id="line2d_4">
      <g>
       <use style="stroke:#000000;stroke-width:0.8;" x="208.768615" xlink:href="#m319fb65018" y="150.32"/>
      </g>
     </g>
     <g id="text_4">
      <!-- 3 -->
      <g transform="translate(205.587365 164.918437)scale(0.1 -0.1)">
       <defs>
        <path d="M 40.578125 39.3125 
Q 47.65625 37.796875 51.625 33 
Q 55.609375 28.21875 55.609375 21.1875 
Q 55.609375 10.40625 48.1875 4.484375 
Q 40.765625 -1.421875 27.09375 -1.421875 
Q 22.515625 -1.421875 17.65625 -0.515625 
Q 12.796875 0.390625 7.625 2.203125 
L 7.625 11.71875 
Q 11.71875 9.328125 16.59375 8.109375 
Q 21.484375 6.890625 26.8125 6.890625 
Q 36.078125 6.890625 40.9375 10.546875 
Q 45.796875 14.203125 45.796875 21.1875 
Q 45.796875 27.640625 41.28125 31.265625 
Q 36.765625 34.90625 28.71875 34.90625 
L 20.21875 34.90625 
L 20.21875 43.015625 
L 29.109375 43.015625 
Q 36.375 43.015625 40.234375 45.921875 
Q 44.09375 48.828125 44.09375 54.296875 
Q 44.09375 59.90625 40.109375 62.90625 
Q 36.140625 65.921875 28.71875 65.921875 
Q 24.65625 65.921875 20.015625 65.03125 
Q 15.375 64.15625 9.8125 62.3125 
L 9.8125 71.09375 
Q 15.4375 72.65625 20.34375 73.4375 
Q 25.25 74.21875 29.59375 74.21875 
Q 40.828125 74.21875 47.359375 69.109375 
Q 53.90625 64.015625 53.90625 55.328125 
Q 53.90625 49.265625 50.4375 45.09375 
Q 46.96875 40.921875 40.578125 39.3125 
z
" id="DejaVuSans-51"/>
       </defs>
       <use xlink:href="#DejaVuSans-51"/>
      </g>
     </g>
    </g>
   </g>
   <g id="matplotlib.axis_2">
    <g id="ytick_1">
     <g id="line2d_5">
      <defs>
       <path d="M 0 0 
L -3.5 0 
" id="mb85649b6e5" style="stroke:#000000;stroke-width:0.8;"/>
      </defs>
      <g>
       <use style="stroke:#000000;stroke-width:0.8;" x="42.1" xlink:href="#mb85649b6e5" y="150.32"/>
      </g>
     </g>
     <g id="text_5">
      <!-- −1.5 -->
      <g transform="translate(10.817188 154.119219)scale(0.1 -0.1)">
       <defs>
        <path d="M 10.59375 35.5 
L 73.1875 35.5 
L 73.1875 27.203125 
L 10.59375 27.203125 
z
" id="DejaVuSans-8722"/>
        <path d="M 10.6875 12.40625 
L 21 12.40625 
L 21 0 
L 10.6875 0 
z
" id="DejaVuSans-46"/>
        <path d="M 10.796875 72.90625 
L 49.515625 72.90625 
L 49.515625 64.59375 
L 19.828125 64.59375 
L 19.828125 46.734375 
Q 21.96875 47.46875 24.109375 47.828125 
Q 26.265625 48.1875 28.421875 48.1875 
Q 40.625 48.1875 47.75 41.5 
Q 54.890625 34.8125 54.890625 23.390625 
Q 54.890625 11.625 47.5625 5.09375 
Q 40.234375 -1.421875 26.90625 -1.421875 
Q 22.3125 -1.421875 17.546875 -0.640625 
Q 12.796875 0.140625 7.71875 1.703125 
L 7.71875 11.625 
Q 12.109375 9.234375 16.796875 8.0625 
Q 21.484375 6.890625 26.703125 6.890625 
Q 35.15625 6.890625 40.078125 11.328125 
Q 45.015625 15.765625 45.015625 23.390625 
Q 45.015625 31 40.078125 35.4375 
Q 35.15625 39.890625 26.703125 39.890625 
Q 22.75 39.890625 18.8125 39.015625 
Q 14.890625 38.140625 10.796875 36.28125 
z
" id="DejaVuSans-53"/>
       </defs>
       <use xlink:href="#DejaVuSans-8722"/>
       <use x="83.789062" xlink:href="#DejaVuSans-49"/>
       <use x="147.412109" xlink:href="#DejaVuSans-46"/>
       <use x="179.199219" xlink:href="#DejaVuSans-53"/>
      </g>
     </g>
    </g>
    <g id="ytick_2">
     <g id="line2d_6">
      <g>
       <use style="stroke:#000000;stroke-width:0.8;" x="42.1" xlink:href="#mb85649b6e5" y="127.726667"/>
      </g>
     </g>
     <g id="text_6">
      <!-- −1.0 -->
      <g transform="translate(10.817188 131.525885)scale(0.1 -0.1)">
       <use xlink:href="#DejaVuSans-8722"/>
       <use x="83.789062" xlink:href="#DejaVuSans-49"/>
       <use x="147.412109" xlink:href="#DejaVuSans-46"/>
       <use x="179.199219" xlink:href="#DejaVuSans-48"/>
      </g>
     </g>
    </g>
    <g id="ytick_3">
     <g id="line2d_7">
      <g>
       <use style="stroke:#000000;stroke-width:0.8;" x="42.1" xlink:href="#mb85649b6e5" y="105.133333"/>
      </g>
     </g>
     <g id="text_7">
      <!-- −0.5 -->
      <g transform="translate(10.817188 108.932552)scale(0.1 -0.1)">
       <use xlink:href="#DejaVuSans-8722"/>
       <use x="83.789062" xlink:href="#DejaVuSans-48"/>
       <use x="147.412109" xlink:href="#DejaVuSans-46"/>
       <use x="179.199219" xlink:href="#DejaVuSans-53"/>
      </g>
     </g>
    </g>
    <g id="ytick_4">
     <g id="line2d_8">
      <g>
       <use style="stroke:#000000;stroke-width:0.8;" x="42.1" xlink:href="#mb85649b6e5" y="82.54"/>
      </g>
     </g>
     <g id="text_8">
      <!-- 0.0 -->
      <g transform="translate(19.196875 86.339219)scale(0.1 -0.1)">
       <use xlink:href="#DejaVuSans-48"/>
       <use x="63.623047" xlink:href="#DejaVuSans-46"/>
       <use x="95.410156" xlink:href="#DejaVuSans-48"/>
      </g>
     </g>
    </g>
    <g id="ytick_5">
     <g id="line2d_9">
      <g>
       <use style="stroke:#000000;stroke-width:0.8;" x="42.1" xlink:href="#mb85649b6e5" y="59.946667"/>
      </g>
     </g>
     <g id="text_9">
      <!-- 0.5 -->
      <g transform="translate(19.196875 63.745885)scale(0.1 -0.1)">
       <use xlink:href="#DejaVuSans-48"/>
       <use x="63.623047" xlink:href="#DejaVuSans-46"/>
       <use x="95.410156" xlink:href="#DejaVuSans-53"/>
      </g>
     </g>
    </g>
    <g id="ytick_6">
     <g id="line2d_10">
      <g>
       <use style="stroke:#000000;stroke-width:0.8;" x="42.1" xlink:href="#mb85649b6e5" y="37.353333"/>
      </g>
     </g>
     <g id="text_10">
      <!-- 1.0 -->
      <g transform="translate(19.196875 41.152552)scale(0.1 -0.1)">
       <use xlink:href="#DejaVuSans-49"/>
       <use x="63.623047" xlink:href="#DejaVuSans-46"/>
       <use x="95.410156" xlink:href="#DejaVuSans-48"/>
      </g>
     </g>
    </g>
    <g id="ytick_7">
     <g id="line2d_11">
      <g>
       <use style="stroke:#000000;stroke-width:0.8;" x="42.1" xlink:href="#mb85649b6e5" y="14.76"/>
      </g>
     </g>
     <g id="text_11">
      <!-- 1.5 -->
      <g transform="translate(19.196875 18.559219)scale(0.1 -0.1)">
       <use xlink:href="#DejaVuSans-49"/>
       <use x="63.623047" xlink:href="#DejaVuSans-46"/>
       <use x="95.410156" xlink:href="#DejaVuSans-53"/>
      </g>
     </g>
    </g>
   </g>
   <g id="line2d_12">
    <path clip-path="url(#pd3c19be2a3)" d="M 50.413636 82.54 
L 53.052886 60.876358 
L 54.636436 50.125069 
L 55.692136 44.516731 
L 56.747835 40.424261 
L 57.275685 39.000017 
L 57.803535 38.010812 
L 58.331385 37.466527 
L 58.859235 37.372601 
L 59.387085 37.729973 
L 59.914935 38.535072 
L 60.442785 39.779853 
L 60.970635 41.45188 
L 62.026335 46.006742 
L 63.082035 52.01807 
L 64.137734 59.246211 
L 65.721284 71.72912 
L 69.944084 106.481529 
L 70.999784 113.61786 
L 72.055483 119.515215 
L 73.111183 123.938485 
L 73.639033 125.539726 
L 74.166883 126.711328 
L 74.694733 127.441584 
L 75.222583 127.723199 
L 75.750433 127.553358 
L 76.278283 126.933759 
L 76.806133 125.870592 
L 77.333983 124.374479 
L 78.389683 120.147391 
L 79.445382 114.421016 
L 80.501082 107.423644 
L 82.084632 95.165855 
L 86.835281 56.402235 
L 87.890981 49.600319 
L 88.946681 44.111604 
L 90.002381 40.154908 
L 90.530231 38.802936 
L 91.058081 37.887971 
L 91.585931 37.419155 
L 92.113781 37.401171 
L 92.641631 37.834199 
L 93.169481 38.713912 
L 93.69733 40.031522 
L 94.22518 41.773862 
L 95.28088 46.459029 
L 96.33658 52.58263 
L 97.39228 59.900538 
L 98.97583 72.468348 
L 103.198629 107.122501 
L 104.254329 114.165004 
L 105.310029 119.946719 
L 106.365729 124.237145 
L 106.893579 125.767148 
L 107.421429 126.865238 
L 107.949278 127.520446 
L 108.477128 127.726224 
L 109.004978 127.480516 
L 109.532828 126.785778 
L 110.060678 125.64895 
L 110.588528 124.081392 
L 111.644228 119.720881 
L 112.699928 113.878087 
L 113.755628 106.785942 
L 115.339177 94.434567 
L 119.561977 59.555284 
L 120.617677 52.284374 
L 121.673377 46.219661 
L 122.729076 41.602925 
L 123.256926 39.897538 
L 123.784776 38.618221 
L 124.312626 37.777756 
L 124.840476 37.38454 
L 125.368326 37.442502 
L 125.896176 37.951064 
L 126.424026 38.905144 
L 126.951876 40.295209 
L 127.479726 42.10737 
L 128.535426 46.921517 
L 129.591126 53.15566 
L 131.174675 64.612616 
L 133.286075 82.18017 
L 135.925325 103.887175 
L 137.508874 114.703207 
L 138.564574 120.367646 
L 139.620274 124.524017 
L 140.148124 125.982348 
L 140.675974 127.006617 
L 141.203824 127.586591 
L 141.731674 127.716474 
L 142.259524 127.394969 
L 142.787374 126.625287 
L 143.315224 125.41512 
L 143.843074 123.776559 
L 144.898773 119.283859 
L 145.954473 113.326298 
L 147.010173 106.141384 
L 148.593723 93.699917 
L 152.816522 58.904402 
L 153.872222 51.724337 
L 154.927922 45.772796 
L 155.983622 41.287047 
L 156.511472 39.652225 
L 157.039322 38.445924 
L 157.567172 37.680195 
L 158.095022 37.362691 
L 158.622872 37.496584 
L 159.150722 38.080536 
L 159.678571 39.108712 
L 160.206421 40.570839 
L 161.262121 44.734321 
L 162.317821 50.404995 
L 163.373521 57.35679 
L 164.957071 69.569048 
L 169.70772 108.383414 
L 170.76342 115.232316 
L 171.81912 120.777879 
L 172.87482 124.799019 
L 173.40267 126.185266 
L 173.930519 127.135424 
L 174.458369 127.64 
L 174.986219 127.693951 
L 175.514069 127.296739 
L 176.041919 126.452332 
L 176.569769 125.169168 
L 177.097619 123.460068 
L 178.153319 118.836449 
L 179.209019 112.765805 
L 180.264719 105.490154 
L 181.848268 92.962111 
L 186.071068 58.260202 
L 187.126768 51.173013 
L 188.182468 45.336326 
L 189.238167 40.982833 
L 189.766017 39.419038 
L 190.293867 38.286093 
L 190.821717 37.595318 
L 191.349567 37.353616 
L 191.877417 37.563401 
L 192.405267 38.222578 
L 192.933117 39.32456 
L 193.460967 40.858336 
L 194.516667 45.15581 
L 195.572367 50.943674 
L 196.628066 57.991183 
L 198.211616 70.29867 
L 202.962266 109.002999 
L 204.017965 115.752183 
L 205.073665 121.177301 
L 206.129365 125.062073 
L 206.657215 126.375844 
L 207.185065 127.251623 
L 207.712915 127.680658 
L 208.240765 127.658662 
L 208.768615 127.185856 
L 209.296465 126.266963 
L 209.824315 124.911164 
L 210.352165 123.132007 
L 211.407864 118.378776 
L 212.463564 112.196766 
L 214.047114 100.797114 
L 216.158514 83.259637 
L 216.686364 78.745474 
L 216.686364 78.745474 
" style="fill:none;stroke:#0000ff;stroke-linecap:square;stroke-width:1.5;"/>
   </g>
   <g id="line2d_13">
    <path clip-path="url(#pd3c19be2a3)" d="M 50.413636 82.54 
L 53.052886 75.231256 
L 55.692136 68.631734 
L 58.331385 62.718115 
L 60.442785 58.465402 
L 62.554185 54.624805 
L 64.665584 51.184386 
L 66.776984 48.132207 
L 68.888384 45.45633 
L 70.999784 43.144815 
L 73.111183 41.185724 
L 75.222583 39.567118 
L 77.333983 38.27706 
L 79.445382 37.30361 
L 81.556782 36.634831 
L 83.668182 36.258783 
L 85.779582 36.163528 
L 87.890981 36.337127 
L 90.002381 36.767642 
L 92.113781 37.443135 
L 94.22518 38.351666 
L 96.33658 39.481298 
L 98.97583 41.186073 
L 101.615079 43.194346 
L 104.254329 45.482799 
L 107.421429 48.56595 
L 110.588528 51.978691 
L 114.283478 56.323034 
L 118.506277 61.688083 
L 123.256926 68.11971 
L 129.591126 77.120156 
L 144.370924 98.303618 
L 149.121573 104.659533 
L 153.344372 109.933932 
L 157.039322 114.180929 
L 160.206421 117.496841 
L 163.373521 120.4708 
L 166.012771 122.658818 
L 168.65202 124.55807 
L 171.29127 126.145241 
L 173.40267 127.174609 
L 175.514069 127.977383 
L 177.625469 128.541624 
L 179.736869 128.855393 
L 181.848268 128.906753 
L 183.959668 128.683764 
L 186.071068 128.174489 
L 188.182468 127.366988 
L 190.293867 126.249323 
L 192.405267 124.809556 
L 194.516667 123.035747 
L 196.628066 120.915959 
L 198.739466 118.438253 
L 200.850866 115.590691 
L 202.962266 112.361333 
L 205.073665 108.738242 
L 207.185065 104.709479 
L 209.296465 100.263105 
L 211.407864 95.387182 
L 214.047114 88.670037 
L 216.686364 81.239749 
L 216.686364 81.239749 
" style="fill:none;stroke:#ff0000;stroke-linecap:square;stroke-width:1.5;"/>
   </g>
   <g id="patch_3">
    <path d="M 42.1 150.32 
L 42.1 14.76 
" style="fill:none;stroke:#000000;stroke-linecap:square;stroke-linejoin:miter;stroke-width:0.8;"/>
   </g>
   <g id="patch_4">
    <path d="M 225 150.32 
L 225 14.76 
" style="fill:none;stroke:#000000;stroke-linecap:square;stroke-linejoin:miter;stroke-width:0.8;"/>
   </g>
   <g id="patch_5">
    <path d="M 42.1 150.32 
L 225 150.32 
" style="fill:none;stroke:#000000;stroke-linecap:square;stroke-linejoin:miter;stroke-width:0.8;"/>
   </g>
   <g id="patch_6">
    <path d="M 42.1 14.76 
L 225 14.76 
" style="fill:none;stroke:#000000;stroke-linecap:square;stroke-linejoin:miter;stroke-width:0.8;"/>
   </g>
   <g id="legend_1">
    <g id="patch_7">
     <path d="M 159.8 37.438125 
L 218 37.438125 
Q 220 37.438125 220 35.438125 
L 220 21.76 
Q 220 19.76 218 19.76 
L 159.8 19.76 
Q 157.8 19.76 157.8 21.76 
L 157.8 35.438125 
Q 157.8 37.438125 159.8 37.438125 
z
" style="fill:#ffffff;opacity:0.8;stroke:#cccccc;stroke-linejoin:miter;"/>
    </g>
    <g id="line2d_14">
     <path d="M 161.8 27.858437 
L 181.8 27.858437 
" style="fill:none;stroke:#ff0000;stroke-linecap:square;stroke-width:1.5;"/>
    </g>
    <g id="line2d_15"/>
    <g id="text_12">
     <!-- $N=5$ -->
     <g transform="translate(189.8 31.358437)scale(0.1 -0.1)">
      <defs>
       <path d="M 16.890625 72.90625 
L 30.171875 72.90625 
L 50.296875 10.40625 
L 62.5 72.90625 
L 72.125 72.90625 
L 57.90625 0 
L 44.578125 0 
L 24.515625 62.890625 
L 12.3125 0 
L 2.6875 0 
z
" id="DejaVuSans-Oblique-78"/>
       <path d="M 10.59375 45.40625 
L 73.1875 45.40625 
L 73.1875 37.203125 
L 10.59375 37.203125 
z
M 10.59375 25.484375 
L 73.1875 25.484375 
L 73.1875 17.1875 
L 10.59375 17.1875 
z
" id="DejaVuSans-61"/>
      </defs>
      <use transform="translate(0 0.09375)" xlink:href="#DejaVuSans-Oblique-78"/>
      <use transform="translate(94.287109 0.09375)" xlink:href="#DejaVuSans-61"/>
      <use transform="translate(197.558594 0.09375)" xlink:href="#DejaVuSans-53"/>
     </g>
    </g>
   </g>
  </g>
  <g id="axes_2">
   <g id="patch_8">
    <path d="M 267.1 150.32 
L 450 150.32 
L 450 14.76 
L 267.1 14.76 
z
" style="fill:#ffffff;"/>
   </g>
   <g id="matplotlib.axis_3">
    <g id="xtick_5">
     <g id="line2d_16">
      <g>
       <use style="stroke:#000000;stroke-width:0.8;" x="275.413636" xlink:href="#m319fb65018" y="150.32"/>
      </g>
     </g>
     <g id="text_13">
      <!-- 0 -->
      <g transform="translate(272.232386 164.918437)scale(0.1 -0.1)">
       <use xlink:href="#DejaVuSans-48"/>
      </g>
     </g>
    </g>
    <g id="xtick_6">
     <g id="line2d_17">
      <g>
       <use style="stroke:#000000;stroke-width:0.8;" x="328.198629" xlink:href="#m319fb65018" y="150.32"/>
      </g>
     </g>
     <g id="text_14">
      <!-- 1 -->
      <g transform="translate(325.017379 164.918437)scale(0.1 -0.1)">
       <use xlink:href="#DejaVuSans-49"/>
      </g>
     </g>
    </g>
    <g id="xtick_7">
     <g id="line2d_18">
      <g>
       <use style="stroke:#000000;stroke-width:0.8;" x="380.983622" xlink:href="#m319fb65018" y="150.32"/>
      </g>
     </g>
     <g id="text_15">
      <!-- 2 -->
      <g transform="translate(377.802372 164.918437)scale(0.1 -0.1)">
       <use xlink:href="#DejaVuSans-50"/>
      </g>
     </g>
    </g>
    <g id="xtick_8">
     <g id="line2d_19">
      <g>
       <use style="stroke:#000000;stroke-width:0.8;" x="433.768615" xlink:href="#m319fb65018" y="150.32"/>
      </g>
     </g>
     <g id="text_16">
      <!-- 3 -->
      <g transform="translate(430.587365 164.918437)scale(0.1 -0.1)">
       <use xlink:href="#DejaVuSans-51"/>
      </g>
     </g>
    </g>
   </g>
   <g id="matplotlib.axis_4">
    <g id="ytick_8">
     <g id="line2d_20">
      <g>
       <use style="stroke:#000000;stroke-width:0.8;" x="267.1" xlink:href="#mb85649b6e5" y="150.32"/>
      </g>
     </g>
     <g id="text_17">
      <!-- −1.5 -->
      <g transform="translate(235.817188 154.119219)scale(0.1 -0.1)">
       <use xlink:href="#DejaVuSans-8722"/>
       <use x="83.789062" xlink:href="#DejaVuSans-49"/>
       <use x="147.412109" xlink:href="#DejaVuSans-46"/>
       <use x="179.199219" xlink:href="#DejaVuSans-53"/>
      </g>
     </g>
    </g>
    <g id="ytick_9">
     <g id="line2d_21">
      <g>
       <use style="stroke:#000000;stroke-width:0.8;" x="267.1" xlink:href="#mb85649b6e5" y="127.726667"/>
      </g>
     </g>
     <g id="text_18">
      <!-- −1.0 -->
      <g transform="translate(235.817188 131.525885)scale(0.1 -0.1)">
       <use xlink:href="#DejaVuSans-8722"/>
       <use x="83.789062" xlink:href="#DejaVuSans-49"/>
       <use x="147.412109" xlink:href="#DejaVuSans-46"/>
       <use x="179.199219" xlink:href="#DejaVuSans-48"/>
      </g>
     </g>
    </g>
    <g id="ytick_10">
     <g id="line2d_22">
      <g>
       <use style="stroke:#000000;stroke-width:0.8;" x="267.1" xlink:href="#mb85649b6e5" y="105.133333"/>
      </g>
     </g>
     <g id="text_19">
      <!-- −0.5 -->
      <g transform="translate(235.817188 108.932552)scale(0.1 -0.1)">
       <use xlink:href="#DejaVuSans-8722"/>
       <use x="83.789062" xlink:href="#DejaVuSans-48"/>
       <use x="147.412109" xlink:href="#DejaVuSans-46"/>
       <use x="179.199219" xlink:href="#DejaVuSans-53"/>
      </g>
     </g>
    </g>
    <g id="ytick_11">
     <g id="line2d_23">
      <g>
       <use style="stroke:#000000;stroke-width:0.8;" x="267.1" xlink:href="#mb85649b6e5" y="82.54"/>
      </g>
     </g>
     <g id="text_20">
      <!-- 0.0 -->
      <g transform="translate(244.196875 86.339219)scale(0.1 -0.1)">
       <use xlink:href="#DejaVuSans-48"/>
       <use x="63.623047" xlink:href="#DejaVuSans-46"/>
       <use x="95.410156" xlink:href="#DejaVuSans-48"/>
      </g>
     </g>
    </g>
    <g id="ytick_12">
     <g id="line2d_24">
      <g>
       <use style="stroke:#000000;stroke-width:0.8;" x="267.1" xlink:href="#mb85649b6e5" y="59.946667"/>
      </g>
     </g>
     <g id="text_21">
      <!-- 0.5 -->
      <g transform="translate(244.196875 63.745885)scale(0.1 -0.1)">
       <use xlink:href="#DejaVuSans-48"/>
       <use x="63.623047" xlink:href="#DejaVuSans-46"/>
       <use x="95.410156" xlink:href="#DejaVuSans-53"/>
      </g>
     </g>
    </g>
    <g id="ytick_13">
     <g id="line2d_25">
      <g>
       <use style="stroke:#000000;stroke-width:0.8;" x="267.1" xlink:href="#mb85649b6e5" y="37.353333"/>
      </g>
     </g>
     <g id="text_22">
      <!-- 1.0 -->
      <g transform="translate(244.196875 41.152552)scale(0.1 -0.1)">
       <use xlink:href="#DejaVuSans-49"/>
       <use x="63.623047" xlink:href="#DejaVuSans-46"/>
       <use x="95.410156" xlink:href="#DejaVuSans-48"/>
      </g>
     </g>
    </g>
    <g id="ytick_14">
     <g id="line2d_26">
      <g>
       <use style="stroke:#000000;stroke-width:0.8;" x="267.1" xlink:href="#mb85649b6e5" y="14.76"/>
      </g>
     </g>
     <g id="text_23">
      <!-- 1.5 -->
      <g transform="translate(244.196875 18.559219)scale(0.1 -0.1)">
       <use xlink:href="#DejaVuSans-49"/>
       <use x="63.623047" xlink:href="#DejaVuSans-46"/>
       <use x="95.410156" xlink:href="#DejaVuSans-53"/>
      </g>
     </g>
    </g>
   </g>
   <g id="line2d_27">
    <path clip-path="url(#p95ee8e7c0a)" d="M 275.413636 82.54 
L 278.052886 60.876358 
L 279.636436 50.125069 
L 280.692136 44.516731 
L 281.747835 40.424261 
L 282.275685 39.000017 
L 282.803535 38.010812 
L 283.331385 37.466527 
L 283.859235 37.372601 
L 284.387085 37.729973 
L 284.914935 38.535072 
L 285.442785 39.779853 
L 285.970635 41.45188 
L 287.026335 46.006742 
L 288.082035 52.01807 
L 289.137734 59.246211 
L 290.721284 71.72912 
L 294.944084 106.481529 
L 295.999784 113.61786 
L 297.055483 119.515215 
L 298.111183 123.938485 
L 298.639033 125.539726 
L 299.166883 126.711328 
L 299.694733 127.441584 
L 300.222583 127.723199 
L 300.750433 127.553358 
L 301.278283 126.933759 
L 301.806133 125.870592 
L 302.333983 124.374479 
L 303.389683 120.147391 
L 304.445382 114.421016 
L 305.501082 107.423644 
L 307.084632 95.165855 
L 311.835281 56.402235 
L 312.890981 49.600319 
L 313.946681 44.111604 
L 315.002381 40.154908 
L 315.530231 38.802936 
L 316.058081 37.887971 
L 316.585931 37.419155 
L 317.113781 37.401171 
L 317.641631 37.834199 
L 318.169481 38.713912 
L 318.69733 40.031522 
L 319.22518 41.773862 
L 320.28088 46.459029 
L 321.33658 52.58263 
L 322.39228 59.900538 
L 323.97583 72.468348 
L 328.198629 107.122501 
L 329.254329 114.165004 
L 330.310029 119.946719 
L 331.365729 124.237145 
L 331.893579 125.767148 
L 332.421429 126.865238 
L 332.949278 127.520446 
L 333.477128 127.726224 
L 334.004978 127.480516 
L 334.532828 126.785778 
L 335.060678 125.64895 
L 335.588528 124.081392 
L 336.644228 119.720881 
L 337.699928 113.878087 
L 338.755628 106.785942 
L 340.339177 94.434567 
L 344.561977 59.555284 
L 345.617677 52.284374 
L 346.673377 46.219661 
L 347.729076 41.602925 
L 348.256926 39.897538 
L 348.784776 38.618221 
L 349.312626 37.777756 
L 349.840476 37.38454 
L 350.368326 37.442502 
L 350.896176 37.951064 
L 351.424026 38.905144 
L 351.951876 40.295209 
L 352.479726 42.10737 
L 353.535426 46.921517 
L 354.591126 53.15566 
L 356.174675 64.612616 
L 358.286075 82.18017 
L 360.925325 103.887175 
L 362.508874 114.703207 
L 363.564574 120.367646 
L 364.620274 124.524017 
L 365.148124 125.982348 
L 365.675974 127.006617 
L 366.203824 127.586591 
L 366.731674 127.716474 
L 367.259524 127.394969 
L 367.787374 126.625287 
L 368.315224 125.41512 
L 368.843074 123.776559 
L 369.898773 119.283859 
L 370.954473 113.326298 
L 372.010173 106.141384 
L 373.593723 93.699917 
L 377.816522 58.904402 
L 378.872222 51.724337 
L 379.927922 45.772796 
L 380.983622 41.287047 
L 381.511472 39.652225 
L 382.039322 38.445924 
L 382.567172 37.680195 
L 383.095022 37.362691 
L 383.622872 37.496584 
L 384.150722 38.080536 
L 384.678571 39.108712 
L 385.206421 40.570839 
L 386.262121 44.734321 
L 387.317821 50.404995 
L 388.373521 57.35679 
L 389.957071 69.569048 
L 394.70772 108.383414 
L 395.76342 115.232316 
L 396.81912 120.777879 
L 397.87482 124.799019 
L 398.40267 126.185266 
L 398.930519 127.135424 
L 399.458369 127.64 
L 399.986219 127.693951 
L 400.514069 127.296739 
L 401.041919 126.452332 
L 401.569769 125.169168 
L 402.097619 123.460068 
L 403.153319 118.836449 
L 404.209019 112.765805 
L 405.264719 105.490154 
L 406.848268 92.962111 
L 411.071068 58.260202 
L 412.126768 51.173013 
L 413.182468 45.336326 
L 414.238167 40.982833 
L 414.766017 39.419038 
L 415.293867 38.286093 
L 415.821717 37.595318 
L 416.349567 37.353616 
L 416.877417 37.563401 
L 417.405267 38.222578 
L 417.933117 39.32456 
L 418.460967 40.858336 
L 419.516667 45.15581 
L 420.572367 50.943674 
L 421.628066 57.991183 
L 423.211616 70.29867 
L 427.962266 109.002999 
L 429.017965 115.752183 
L 430.073665 121.177301 
L 431.129365 125.062073 
L 431.657215 126.375844 
L 432.185065 127.251623 
L 432.712915 127.680658 
L 433.240765 127.658662 
L 433.768615 127.185856 
L 434.296465 126.266963 
L 434.824315 124.911164 
L 435.352165 123.132007 
L 436.407864 118.378776 
L 437.463564 112.196766 
L 439.047114 100.797114 
L 441.158514 83.259637 
L 441.686364 78.745474 
L 441.686364 78.745474 
" style="fill:none;stroke:#0000ff;stroke-linecap:square;stroke-width:1.5;"/>
   </g>
   <g id="line2d_28">
    <path clip-path="url(#p95ee8e7c0a)" d="M 275.413636 82.54 
L 276.563292 346.6 
M 289.238551 346.6 
L 291.249134 226.255099 
L 292.832684 143.629725 
L 294.416234 74.413659 
L 295.471934 36.299247 
L 296.752718 -1 
M 308.719672 -1 
L 315.002381 92.034232 
L 316.585931 110.725084 
L 317.641631 121.319659 
L 318.69733 130.280988 
L 319.75303 137.53603 
L 320.80873 143.051097 
L 321.86443 146.828991 
L 322.39228 148.076584 
L 322.92013 148.905867 
L 323.44798 149.326024 
L 323.97583 149.347895 
L 324.50368 148.983869 
L 325.03153 148.247768 
L 325.55938 147.154738 
L 326.087229 145.72113 
L 327.142929 141.902945 
L 328.198629 136.943891 
L 329.254329 131.00679 
L 330.837879 120.643958 
L 332.949278 105.03979 
L 337.699928 69.2223 
L 339.283478 58.934795 
L 340.867027 50.189288 
L 341.922727 45.373629 
L 342.978427 41.455082 
L 344.034127 38.486558 
L 345.089827 36.50266 
L 345.617677 35.885749 
L 346.145527 35.519687 
L 346.673377 35.403693 
L 347.201227 35.535888 
L 347.729076 35.913313 
L 348.256926 36.531955 
L 348.784776 37.386774 
L 349.840476 39.779835 
L 350.896176 43.032874 
L 351.951876 47.072099 
L 353.535426 54.412504 
L 355.118975 62.986384 
L 357.758225 78.965405 
L 361.453175 101.611109 
L 363.036724 110.24012 
L 364.620274 117.65495 
L 365.675974 121.753217 
L 366.731674 125.071744 
L 367.787374 127.535668 
L 368.315224 128.427569 
L 368.843074 129.08419 
L 369.370924 129.500328 
L 369.898773 129.671805 
L 370.426623 129.595493 
L 370.954473 129.26934 
L 371.482323 128.692387 
L 372.010173 127.864791 
L 373.065873 125.46395 
L 374.121573 122.090793 
L 375.177273 117.787633 
L 376.232973 112.615019 
L 377.816522 103.40216 
L 379.400072 92.75001 
L 382.039322 72.959992 
L 385.734271 45.025503 
L 387.317821 34.582976 
L 388.373521 28.575271 
L 389.429221 23.53223 
L 390.484921 19.61749 
L 391.012771 18.131223 
L 391.54062 16.982826 
L 392.06847 16.188833 
L 392.59632 15.764587 
L 393.12417 15.72413 
L 393.65202 16.080086 
L 394.17987 16.843551 
L 394.70772 18.023978 
L 395.23557 19.629071 
L 396.29127 24.134661 
L 397.34697 30.382852 
L 398.40267 38.361474 
L 399.458369 48.020626 
L 401.041919 65.451044 
L 402.625469 85.961728 
L 404.736869 116.827147 
L 409.487518 188.165019 
L 411.071068 207.345867 
L 412.126768 217.357804 
L 413.182468 224.492291 
L 413.710317 226.801111 
L 414.238167 228.175199 
L 414.766017 228.543328 
L 415.293867 227.835277 
L 415.821717 225.9823 
L 416.349567 222.917632 
L 416.877417 218.577027 
L 417.405267 212.899338 
L 418.460967 197.307343 
L 419.516667 175.738868 
L 420.572367 147.884456 
L 421.628066 113.55388 
L 422.683766 72.705112 
L 424.278339 -1 
M 440.910486 -1 
L 441.686364 210.387357 
L 441.686364 210.387357 
" style="fill:none;stroke:#ff0000;stroke-linecap:square;stroke-width:1.5;"/>
   </g>
   <g id="patch_9">
    <path d="M 267.1 150.32 
L 267.1 14.76 
" style="fill:none;stroke:#000000;stroke-linecap:square;stroke-linejoin:miter;stroke-width:0.8;"/>
   </g>
   <g id="patch_10">
    <path d="M 450 150.32 
L 450 14.76 
" style="fill:none;stroke:#000000;stroke-linecap:square;stroke-linejoin:miter;stroke-width:0.8;"/>
   </g>
   <g id="patch_11">
    <path d="M 267.1 150.32 
L 450 150.32 
" style="fill:none;stroke:#000000;stroke-linecap:square;stroke-linejoin:miter;stroke-width:0.8;"/>
   </g>
   <g id="patch_12">
    <path d="M 267.1 14.76 
L 450 14.76 
" style="fill:none;stroke:#000000;stroke-linecap:square;stroke-linejoin:miter;stroke-width:0.8;"/>
   </g>
   <g id="legend_2">
    <g id="patch_13">
     <path d="M 274.1 37.438125 
L 338.6 37.438125 
Q 340.6 37.438125 340.6 35.438125 
L 340.6 21.76 
Q 340.6 19.76 338.6 19.76 
L 274.1 19.76 
Q 272.1 19.76 272.1 21.76 
L 272.1 35.438125 
Q 272.1 37.438125 274.1 37.438125 
z
" style="fill:#ffffff;opacity:0.8;stroke:#cccccc;stroke-linejoin:miter;"/>
    </g>
    <g id="line2d_29">
     <path d="M 276.1 27.858437 
L 296.1 27.858437 
" style="fill:none;stroke:#ff0000;stroke-linecap:square;stroke-width:1.5;"/>
    </g>
    <g id="line2d_30"/>
    <g id="text_24">
     <!-- $N=10$ -->
     <g transform="translate(304.1 31.358437)scale(0.1 -0.1)">
      <use transform="translate(0 0.78125)" xlink:href="#DejaVuSans-Oblique-78"/>
      <use transform="translate(94.287109 0.78125)" xlink:href="#DejaVuSans-61"/>
      <use transform="translate(197.558594 0.78125)" xlink:href="#DejaVuSans-49"/>
      <use transform="translate(261.181641 0.78125)" xlink:href="#DejaVuSans-48"/>
     </g>
    </g>
   </g>
  </g>
  <g id="axes_3">
   <g id="patch_14">
    <path d="M 42.1 317.72 
L 225 317.72 
L 225 182.16 
L 42.1 182.16 
z
" style="fill:#ffffff;"/>
   </g>
   <g id="matplotlib.axis_5">
    <g id="xtick_9">
     <g id="line2d_31">
      <g>
       <use style="stroke:#000000;stroke-width:0.8;" x="50.413636" xlink:href="#m319fb65018" y="317.72"/>
      </g>
     </g>
     <g id="text_25">
      <!-- 0 -->
      <g transform="translate(47.232386 332.318438)scale(0.1 -0.1)">
       <use xlink:href="#DejaVuSans-48"/>
      </g>
     </g>
    </g>
    <g id="xtick_10">
     <g id="line2d_32">
      <g>
       <use style="stroke:#000000;stroke-width:0.8;" x="103.198629" xlink:href="#m319fb65018" y="317.72"/>
      </g>
     </g>
     <g id="text_26">
      <!-- 1 -->
      <g transform="translate(100.017379 332.318438)scale(0.1 -0.1)">
       <use xlink:href="#DejaVuSans-49"/>
      </g>
     </g>
    </g>
    <g id="xtick_11">
     <g id="line2d_33">
      <g>
       <use style="stroke:#000000;stroke-width:0.8;" x="155.983622" xlink:href="#m319fb65018" y="317.72"/>
      </g>
     </g>
     <g id="text_27">
      <!-- 2 -->
      <g transform="translate(152.802372 332.318438)scale(0.1 -0.1)">
       <use xlink:href="#DejaVuSans-50"/>
      </g>
     </g>
    </g>
    <g id="xtick_12">
     <g id="line2d_34">
      <g>
       <use style="stroke:#000000;stroke-width:0.8;" x="208.768615" xlink:href="#m319fb65018" y="317.72"/>
      </g>
     </g>
     <g id="text_28">
      <!-- 3 -->
      <g transform="translate(205.587365 332.318438)scale(0.1 -0.1)">
       <use xlink:href="#DejaVuSans-51"/>
      </g>
     </g>
    </g>
   </g>
   <g id="matplotlib.axis_6">
    <g id="ytick_15">
     <g id="line2d_35">
      <g>
       <use style="stroke:#000000;stroke-width:0.8;" x="42.1" xlink:href="#mb85649b6e5" y="317.72"/>
      </g>
     </g>
     <g id="text_29">
      <!-- −1.5 -->
      <g transform="translate(10.817188 321.519219)scale(0.1 -0.1)">
       <use xlink:href="#DejaVuSans-8722"/>
       <use x="83.789062" xlink:href="#DejaVuSans-49"/>
       <use x="147.412109" xlink:href="#DejaVuSans-46"/>
       <use x="179.199219" xlink:href="#DejaVuSans-53"/>
      </g>
     </g>
    </g>
    <g id="ytick_16">
     <g id="line2d_36">
      <g>
       <use style="stroke:#000000;stroke-width:0.8;" x="42.1" xlink:href="#mb85649b6e5" y="295.126667"/>
      </g>
     </g>
     <g id="text_30">
      <!-- −1.0 -->
      <g transform="translate(10.817188 298.925885)scale(0.1 -0.1)">
       <use xlink:href="#DejaVuSans-8722"/>
       <use x="83.789062" xlink:href="#DejaVuSans-49"/>
       <use x="147.412109" xlink:href="#DejaVuSans-46"/>
       <use x="179.199219" xlink:href="#DejaVuSans-48"/>
      </g>
     </g>
    </g>
    <g id="ytick_17">
     <g id="line2d_37">
      <g>
       <use style="stroke:#000000;stroke-width:0.8;" x="42.1" xlink:href="#mb85649b6e5" y="272.533333"/>
      </g>
     </g>
     <g id="text_31">
      <!-- −0.5 -->
      <g transform="translate(10.817188 276.332552)scale(0.1 -0.1)">
       <use xlink:href="#DejaVuSans-8722"/>
       <use x="83.789062" xlink:href="#DejaVuSans-48"/>
       <use x="147.412109" xlink:href="#DejaVuSans-46"/>
       <use x="179.199219" xlink:href="#DejaVuSans-53"/>
      </g>
     </g>
    </g>
    <g id="ytick_18">
     <g id="line2d_38">
      <g>
       <use style="stroke:#000000;stroke-width:0.8;" x="42.1" xlink:href="#mb85649b6e5" y="249.94"/>
      </g>
     </g>
     <g id="text_32">
      <!-- 0.0 -->
      <g transform="translate(19.196875 253.739219)scale(0.1 -0.1)">
       <use xlink:href="#DejaVuSans-48"/>
       <use x="63.623047" xlink:href="#DejaVuSans-46"/>
       <use x="95.410156" xlink:href="#DejaVuSans-48"/>
      </g>
     </g>
    </g>
    <g id="ytick_19">
     <g id="line2d_39">
      <g>
       <use style="stroke:#000000;stroke-width:0.8;" x="42.1" xlink:href="#mb85649b6e5" y="227.346667"/>
      </g>
     </g>
     <g id="text_33">
      <!-- 0.5 -->
      <g transform="translate(19.196875 231.145885)scale(0.1 -0.1)">
       <use xlink:href="#DejaVuSans-48"/>
       <use x="63.623047" xlink:href="#DejaVuSans-46"/>
       <use x="95.410156" xlink:href="#DejaVuSans-53"/>
      </g>
     </g>
    </g>
    <g id="ytick_20">
     <g id="line2d_40">
      <g>
       <use style="stroke:#000000;stroke-width:0.8;" x="42.1" xlink:href="#mb85649b6e5" y="204.753333"/>
      </g>
     </g>
     <g id="text_34">
      <!-- 1.0 -->
      <g transform="translate(19.196875 208.552552)scale(0.1 -0.1)">
       <use xlink:href="#DejaVuSans-49"/>
       <use x="63.623047" xlink:href="#DejaVuSans-46"/>
       <use x="95.410156" xlink:href="#DejaVuSans-48"/>
      </g>
     </g>
    </g>
    <g id="ytick_21">
     <g id="line2d_41">
      <g>
       <use style="stroke:#000000;stroke-width:0.8;" x="42.1" xlink:href="#mb85649b6e5" y="182.16"/>
      </g>
     </g>
     <g id="text_35">
      <!-- 1.5 -->
      <g transform="translate(19.196875 185.959219)scale(0.1 -0.1)">
       <use xlink:href="#DejaVuSans-49"/>
       <use x="63.623047" xlink:href="#DejaVuSans-46"/>
       <use x="95.410156" xlink:href="#DejaVuSans-53"/>
      </g>
     </g>
    </g>
   </g>
   <g id="line2d_42">
    <path clip-path="url(#pcddf76f476)" d="M 50.413636 249.94 
L 53.052886 228.276358 
L 54.636436 217.525069 
L 55.692136 211.916731 
L 56.747835 207.824261 
L 57.275685 206.400017 
L 57.803535 205.410812 
L 58.331385 204.866527 
L 58.859235 204.772601 
L 59.387085 205.129973 
L 59.914935 205.935072 
L 60.442785 207.179853 
L 60.970635 208.85188 
L 62.026335 213.406742 
L 63.082035 219.41807 
L 64.137734 226.646211 
L 65.721284 239.12912 
L 69.944084 273.881529 
L 70.999784 281.01786 
L 72.055483 286.915215 
L 73.111183 291.338485 
L 73.639033 292.939726 
L 74.166883 294.111328 
L 74.694733 294.841584 
L 75.222583 295.123199 
L 75.750433 294.953358 
L 76.278283 294.333759 
L 76.806133 293.270592 
L 77.333983 291.774479 
L 78.389683 287.547391 
L 79.445382 281.821016 
L 80.501082 274.823644 
L 82.084632 262.565855 
L 86.835281 223.802235 
L 87.890981 217.000319 
L 88.946681 211.511604 
L 90.002381 207.554908 
L 90.530231 206.202936 
L 91.058081 205.287971 
L 91.585931 204.819155 
L 92.113781 204.801171 
L 92.641631 205.234199 
L 93.169481 206.113912 
L 93.69733 207.431522 
L 94.22518 209.173862 
L 95.28088 213.859029 
L 96.33658 219.98263 
L 97.39228 227.300538 
L 98.97583 239.868348 
L 103.198629 274.522501 
L 104.254329 281.565004 
L 105.310029 287.346719 
L 106.365729 291.637145 
L 106.893579 293.167148 
L 107.421429 294.265238 
L 107.949278 294.920446 
L 108.477128 295.126224 
L 109.004978 294.880516 
L 109.532828 294.185778 
L 110.060678 293.04895 
L 110.588528 291.481392 
L 111.644228 287.120881 
L 112.699928 281.278087 
L 113.755628 274.185942 
L 115.339177 261.834567 
L 119.561977 226.955284 
L 120.617677 219.684374 
L 121.673377 213.619661 
L 122.729076 209.002925 
L 123.256926 207.297538 
L 123.784776 206.018221 
L 124.312626 205.177756 
L 124.840476 204.78454 
L 125.368326 204.842502 
L 125.896176 205.351064 
L 126.424026 206.305144 
L 126.951876 207.695209 
L 127.479726 209.50737 
L 128.535426 214.321517 
L 129.591126 220.55566 
L 131.174675 232.012616 
L 133.286075 249.58017 
L 135.925325 271.287175 
L 137.508874 282.103207 
L 138.564574 287.767646 
L 139.620274 291.924017 
L 140.148124 293.382348 
L 140.675974 294.406617 
L 141.203824 294.986591 
L 141.731674 295.116474 
L 142.259524 294.794969 
L 142.787374 294.025287 
L 143.315224 292.81512 
L 143.843074 291.176559 
L 144.898773 286.683859 
L 145.954473 280.726298 
L 147.010173 273.541384 
L 148.593723 261.099917 
L 152.816522 226.304402 
L 153.872222 219.124337 
L 154.927922 213.172796 
L 155.983622 208.687047 
L 156.511472 207.052225 
L 157.039322 205.845924 
L 157.567172 205.080195 
L 158.095022 204.762691 
L 158.622872 204.896584 
L 159.150722 205.480536 
L 159.678571 206.508712 
L 160.206421 207.970839 
L 161.262121 212.134321 
L 162.317821 217.804995 
L 163.373521 224.75679 
L 164.957071 236.969048 
L 169.70772 275.783414 
L 170.76342 282.632316 
L 171.81912 288.177879 
L 172.87482 292.199019 
L 173.40267 293.585266 
L 173.930519 294.535424 
L 174.458369 295.04 
L 174.986219 295.093951 
L 175.514069 294.696739 
L 176.041919 293.852332 
L 176.569769 292.569168 
L 177.097619 290.860068 
L 178.153319 286.236449 
L 179.209019 280.165805 
L 180.264719 272.890154 
L 181.848268 260.362111 
L 186.071068 225.660202 
L 187.126768 218.573013 
L 188.182468 212.736326 
L 189.238167 208.382833 
L 189.766017 206.819038 
L 190.293867 205.686093 
L 190.821717 204.995318 
L 191.349567 204.753616 
L 191.877417 204.963401 
L 192.405267 205.622578 
L 192.933117 206.72456 
L 193.460967 208.258336 
L 194.516667 212.55581 
L 195.572367 218.343674 
L 196.628066 225.391183 
L 198.211616 237.69867 
L 202.962266 276.402999 
L 204.017965 283.152183 
L 205.073665 288.577301 
L 206.129365 292.462073 
L 206.657215 293.775844 
L 207.185065 294.651623 
L 207.712915 295.080658 
L 208.240765 295.058662 
L 208.768615 294.585856 
L 209.296465 293.666963 
L 209.824315 292.311164 
L 210.352165 290.532007 
L 211.407864 285.778776 
L 212.463564 279.596766 
L 214.047114 268.197114 
L 216.158514 250.659637 
L 216.686364 246.145474 
L 216.686364 246.145474 
" style="fill:none;stroke:#0000ff;stroke-linecap:square;stroke-width:1.5;"/>
   </g>
   <g id="line2d_43">
    <path clip-path="url(#pcddf76f476)" d="M 50.413636 249.94 
L 50.941486 62.95221 
L 51.238857 -1 
M 55.072809 -1 
L 56.219986 79.687567 
L 57.275685 139.400683 
L 58.331385 182.347635 
L 58.859235 197.969452 
L 59.387085 210.214758 
L 59.914935 219.556556 
L 60.442785 226.483487 
L 60.970635 231.472442 
L 61.498485 234.969557 
L 62.026335 237.377855 
L 62.554185 239.050079 
L 63.609885 241.329751 
L 64.665584 243.572092 
L 65.721284 246.777165 
L 66.776984 251.327873 
L 67.832684 257.156114 
L 69.416234 267.456675 
L 71.527633 281.245626 
L 72.583333 286.938778 
L 73.639033 291.239033 
L 74.166883 292.766845 
L 74.694733 293.841843 
L 75.222583 294.445257 
L 75.750433 294.565897 
L 76.278283 294.19987 
L 76.806133 293.350231 
L 77.333983 292.026564 
L 77.861833 290.244513 
L 78.917532 285.395119 
L 79.973232 279.028931 
L 81.556782 267.283615 
L 84.196032 244.791973 
L 86.307431 227.537775 
L 87.363131 220.129309 
L 88.418831 213.934798 
L 89.474531 209.19474 
L 90.002381 207.429423 
L 90.530231 206.090951 
L 91.058081 205.191871 
L 91.585931 204.740417 
L 92.113781 204.740436 
L 92.641631 205.191365 
L 93.169481 206.08824 
L 93.69733 207.421743 
L 94.22518 209.178298 
L 95.28088 213.885778 
L 96.33658 220.022762 
L 97.92013 231.362166 
L 100.03153 248.84988 
L 102.670779 270.615553 
L 104.254329 281.553917 
L 105.310029 287.331268 
L 106.365729 291.620335 
L 106.893579 293.150664 
L 107.421429 294.249651 
L 107.949278 294.906232 
L 108.477128 295.113762 
L 109.004978 294.870082 
L 109.532828 294.177546 
L 110.060678 293.042998 
L 110.588528 291.477707 
L 111.644228 287.121379 
L 112.699928 281.281901 
L 113.755628 274.191915 
L 115.339177 261.841487 
L 119.561977 226.956383 
L 120.617677 219.683816 
L 121.673377 213.617869 
L 122.729076 209.000422 
L 123.256926 207.29488 
L 123.784776 206.015531 
L 124.312626 205.175147 
L 124.840476 204.782107 
L 125.368326 204.840323 
L 125.896176 205.349193 
L 126.424026 206.303617 
L 126.951876 207.694039 
L 127.479726 209.506551 
L 128.535426 214.321317 
L 129.591126 220.555884 
L 131.174675 232.013024 
L 133.286075 249.580181 
L 135.925325 271.286765 
L 137.508874 282.103133 
L 138.564574 287.768087 
L 139.620274 291.92513 
L 140.148124 293.383819 
L 140.675974 294.408435 
L 141.203824 294.988725 
L 141.731674 295.118871 
L 142.259524 294.797555 
L 142.787374 294.027971 
L 143.315224 292.817792 
L 143.843074 291.179096 
L 144.898773 286.685728 
L 145.954473 280.726972 
L 147.010173 273.540428 
L 148.593723 261.096145 
L 152.816522 226.29831 
L 153.872222 219.120307 
L 154.927922 213.171997 
L 155.983622 208.690378 
L 156.511472 207.057813 
L 157.039322 205.853794 
L 157.567172 205.090288 
L 158.095022 204.774846 
L 158.622872 204.910542 
L 159.150722 205.495934 
L 159.678571 206.525089 
L 160.206421 207.987639 
L 161.262121 212.149986 
L 162.317821 217.816544 
L 163.373521 224.76117 
L 164.957071 236.958015 
L 169.70772 275.739541 
L 170.76342 282.596713 
L 171.81912 288.159451 
L 172.87482 292.206412 
L 173.40267 293.608311 
L 173.930519 294.57546 
L 174.458369 295.097859 
L 174.986219 295.169844 
L 175.514069 294.79015 
L 176.041919 293.961923 
L 176.569769 292.692702 
L 177.097619 290.994352 
L 178.153319 286.378753 
L 179.209019 280.291978 
L 180.264719 272.970126 
L 181.848268 260.31174 
L 186.071068 225.123367 
L 187.126768 218.007521 
L 188.182468 212.246844 
L 189.238167 208.107051 
L 189.766017 206.709182 
L 190.293867 205.783243 
L 190.821717 205.339815 
L 191.349567 205.383021 
L 191.877417 205.910103 
L 192.405267 206.911052 
L 192.933117 208.36832 
L 193.988817 212.542952 
L 195.044517 218.139157 
L 196.628066 228.270778 
L 198.739466 242.214216 
L 199.795166 248.131526 
L 200.850866 252.791282 
L 201.906566 256.096484 
L 202.962266 258.388009 
L 204.017965 260.610904 
L 204.545815 262.194924 
L 205.073665 264.463738 
L 205.601515 267.761698 
L 206.129365 272.484184 
L 206.657215 279.071142 
L 207.185065 287.995647 
L 207.712915 299.746061 
L 208.240765 314.800115 
L 209.069058 346.6 
M 215.973184 346.6 
L 216.158514 285.586672 
L 216.686364 17.964309 
L 216.686364 17.964309 
" style="fill:none;stroke:#ff0000;stroke-linecap:square;stroke-width:1.5;"/>
   </g>
   <g id="patch_15">
    <path d="M 42.1 317.72 
L 42.1 182.16 
" style="fill:none;stroke:#000000;stroke-linecap:square;stroke-linejoin:miter;stroke-width:0.8;"/>
   </g>
   <g id="patch_16">
    <path d="M 225 317.72 
L 225 182.16 
" style="fill:none;stroke:#000000;stroke-linecap:square;stroke-linejoin:miter;stroke-width:0.8;"/>
   </g>
   <g id="patch_17">
    <path d="M 42.1 317.72 
L 225 317.72 
" style="fill:none;stroke:#000000;stroke-linecap:square;stroke-linejoin:miter;stroke-width:0.8;"/>
   </g>
   <g id="patch_18">
    <path d="M 42.1 182.16 
L 225 182.16 
" style="fill:none;stroke:#000000;stroke-linecap:square;stroke-linejoin:miter;stroke-width:0.8;"/>
   </g>
   <g id="legend_3">
    <g id="patch_19">
     <path d="M 153.5 204.838125 
L 218 204.838125 
Q 220 204.838125 220 202.838125 
L 220 189.16 
Q 220 187.16 218 187.16 
L 153.5 187.16 
Q 151.5 187.16 151.5 189.16 
L 151.5 202.838125 
Q 151.5 204.838125 153.5 204.838125 
z
" style="fill:#ffffff;opacity:0.8;stroke:#cccccc;stroke-linejoin:miter;"/>
    </g>
    <g id="line2d_44">
     <path d="M 155.5 195.258437 
L 175.5 195.258437 
" style="fill:none;stroke:#ff0000;stroke-linecap:square;stroke-width:1.5;"/>
    </g>
    <g id="line2d_45"/>
    <g id="text_36">
     <!-- $N=20$ -->
     <g transform="translate(183.5 198.758437)scale(0.1 -0.1)">
      <use transform="translate(0 0.78125)" xlink:href="#DejaVuSans-Oblique-78"/>
      <use transform="translate(94.287109 0.78125)" xlink:href="#DejaVuSans-61"/>
      <use transform="translate(197.558594 0.78125)" xlink:href="#DejaVuSans-50"/>
      <use transform="translate(261.181641 0.78125)" xlink:href="#DejaVuSans-48"/>
     </g>
    </g>
   </g>
  </g>
  <g id="axes_4">
   <g id="patch_20">
    <path d="M 267.1 317.72 
L 450 317.72 
L 450 182.16 
L 267.1 182.16 
z
" style="fill:#ffffff;"/>
   </g>
   <g id="matplotlib.axis_7">
    <g id="xtick_13">
     <g id="line2d_46">
      <g>
       <use style="stroke:#000000;stroke-width:0.8;" x="275.413636" xlink:href="#m319fb65018" y="317.72"/>
      </g>
     </g>
     <g id="text_37">
      <!-- 0 -->
      <g transform="translate(272.232386 332.318438)scale(0.1 -0.1)">
       <use xlink:href="#DejaVuSans-48"/>
      </g>
     </g>
    </g>
    <g id="xtick_14">
     <g id="line2d_47">
      <g>
       <use style="stroke:#000000;stroke-width:0.8;" x="328.198629" xlink:href="#m319fb65018" y="317.72"/>
      </g>
     </g>
     <g id="text_38">
      <!-- 1 -->
      <g transform="translate(325.017379 332.318438)scale(0.1 -0.1)">
       <use xlink:href="#DejaVuSans-49"/>
      </g>
     </g>
    </g>
    <g id="xtick_15">
     <g id="line2d_48">
      <g>
       <use style="stroke:#000000;stroke-width:0.8;" x="380.983622" xlink:href="#m319fb65018" y="317.72"/>
      </g>
     </g>
     <g id="text_39">
      <!-- 2 -->
      <g transform="translate(377.802372 332.318438)scale(0.1 -0.1)">
       <use xlink:href="#DejaVuSans-50"/>
      </g>
     </g>
    </g>
    <g id="xtick_16">
     <g id="line2d_49">
      <g>
       <use style="stroke:#000000;stroke-width:0.8;" x="433.768615" xlink:href="#m319fb65018" y="317.72"/>
      </g>
     </g>
     <g id="text_40">
      <!-- 3 -->
      <g transform="translate(430.587365 332.318438)scale(0.1 -0.1)">
       <use xlink:href="#DejaVuSans-51"/>
      </g>
     </g>
    </g>
   </g>
   <g id="matplotlib.axis_8">
    <g id="ytick_22">
     <g id="line2d_50">
      <g>
       <use style="stroke:#000000;stroke-width:0.8;" x="267.1" xlink:href="#mb85649b6e5" y="317.72"/>
      </g>
     </g>
     <g id="text_41">
      <!-- −1.5 -->
      <g transform="translate(235.817188 321.519219)scale(0.1 -0.1)">
       <use xlink:href="#DejaVuSans-8722"/>
       <use x="83.789062" xlink:href="#DejaVuSans-49"/>
       <use x="147.412109" xlink:href="#DejaVuSans-46"/>
       <use x="179.199219" xlink:href="#DejaVuSans-53"/>
      </g>
     </g>
    </g>
    <g id="ytick_23">
     <g id="line2d_51">
      <g>
       <use style="stroke:#000000;stroke-width:0.8;" x="267.1" xlink:href="#mb85649b6e5" y="295.126667"/>
      </g>
     </g>
     <g id="text_42">
      <!-- −1.0 -->
      <g transform="translate(235.817188 298.925885)scale(0.1 -0.1)">
       <use xlink:href="#DejaVuSans-8722"/>
       <use x="83.789062" xlink:href="#DejaVuSans-49"/>
       <use x="147.412109" xlink:href="#DejaVuSans-46"/>
       <use x="179.199219" xlink:href="#DejaVuSans-48"/>
      </g>
     </g>
    </g>
    <g id="ytick_24">
     <g id="line2d_52">
      <g>
       <use style="stroke:#000000;stroke-width:0.8;" x="267.1" xlink:href="#mb85649b6e5" y="272.533333"/>
      </g>
     </g>
     <g id="text_43">
      <!-- −0.5 -->
      <g transform="translate(235.817188 276.332552)scale(0.1 -0.1)">
       <use xlink:href="#DejaVuSans-8722"/>
       <use x="83.789062" xlink:href="#DejaVuSans-48"/>
       <use x="147.412109" xlink:href="#DejaVuSans-46"/>
       <use x="179.199219" xlink:href="#DejaVuSans-53"/>
      </g>
     </g>
    </g>
    <g id="ytick_25">
     <g id="line2d_53">
      <g>
       <use style="stroke:#000000;stroke-width:0.8;" x="267.1" xlink:href="#mb85649b6e5" y="249.94"/>
      </g>
     </g>
     <g id="text_44">
      <!-- 0.0 -->
      <g transform="translate(244.196875 253.739219)scale(0.1 -0.1)">
       <use xlink:href="#DejaVuSans-48"/>
       <use x="63.623047" xlink:href="#DejaVuSans-46"/>
       <use x="95.410156" xlink:href="#DejaVuSans-48"/>
      </g>
     </g>
    </g>
    <g id="ytick_26">
     <g id="line2d_54">
      <g>
       <use style="stroke:#000000;stroke-width:0.8;" x="267.1" xlink:href="#mb85649b6e5" y="227.346667"/>
      </g>
     </g>
     <g id="text_45">
      <!-- 0.5 -->
      <g transform="translate(244.196875 231.145885)scale(0.1 -0.1)">
       <use xlink:href="#DejaVuSans-48"/>
       <use x="63.623047" xlink:href="#DejaVuSans-46"/>
       <use x="95.410156" xlink:href="#DejaVuSans-53"/>
      </g>
     </g>
    </g>
    <g id="ytick_27">
     <g id="line2d_55">
      <g>
       <use style="stroke:#000000;stroke-width:0.8;" x="267.1" xlink:href="#mb85649b6e5" y="204.753333"/>
      </g>
     </g>
     <g id="text_46">
      <!-- 1.0 -->
      <g transform="translate(244.196875 208.552552)scale(0.1 -0.1)">
       <use xlink:href="#DejaVuSans-49"/>
       <use x="63.623047" xlink:href="#DejaVuSans-46"/>
       <use x="95.410156" xlink:href="#DejaVuSans-48"/>
      </g>
     </g>
    </g>
    <g id="ytick_28">
     <g id="line2d_56">
      <g>
       <use style="stroke:#000000;stroke-width:0.8;" x="267.1" xlink:href="#mb85649b6e5" y="182.16"/>
      </g>
     </g>
     <g id="text_47">
      <!-- 1.5 -->
      <g transform="translate(244.196875 185.959219)scale(0.1 -0.1)">
       <use xlink:href="#DejaVuSans-49"/>
       <use x="63.623047" xlink:href="#DejaVuSans-46"/>
       <use x="95.410156" xlink:href="#DejaVuSans-53"/>
      </g>
     </g>
    </g>
   </g>
   <g id="line2d_57">
    <path clip-path="url(#pc57e42ed45)" d="M 275.413636 249.94 
L 278.052886 228.276358 
L 279.636436 217.525069 
L 280.692136 211.916731 
L 281.747835 207.824261 
L 282.275685 206.400017 
L 282.803535 205.410812 
L 283.331385 204.866527 
L 283.859235 204.772601 
L 284.387085 205.129973 
L 284.914935 205.935072 
L 285.442785 207.179853 
L 285.970635 208.85188 
L 287.026335 213.406742 
L 288.082035 219.41807 
L 289.137734 226.646211 
L 290.721284 239.12912 
L 294.944084 273.881529 
L 295.999784 281.01786 
L 297.055483 286.915215 
L 298.111183 291.338485 
L 298.639033 292.939726 
L 299.166883 294.111328 
L 299.694733 294.841584 
L 300.222583 295.123199 
L 300.750433 294.953358 
L 301.278283 294.333759 
L 301.806133 293.270592 
L 302.333983 291.774479 
L 303.389683 287.547391 
L 304.445382 281.821016 
L 305.501082 274.823644 
L 307.084632 262.565855 
L 311.835281 223.802235 
L 312.890981 217.000319 
L 313.946681 211.511604 
L 315.002381 207.554908 
L 315.530231 206.202936 
L 316.058081 205.287971 
L 316.585931 204.819155 
L 317.113781 204.801171 
L 317.641631 205.234199 
L 318.169481 206.113912 
L 318.69733 207.431522 
L 319.22518 209.173862 
L 320.28088 213.859029 
L 321.33658 219.98263 
L 322.39228 227.300538 
L 323.97583 239.868348 
L 328.198629 274.522501 
L 329.254329 281.565004 
L 330.310029 287.346719 
L 331.365729 291.637145 
L 331.893579 293.167148 
L 332.421429 294.265238 
L 332.949278 294.920446 
L 333.477128 295.126224 
L 334.004978 294.880516 
L 334.532828 294.185778 
L 335.060678 293.04895 
L 335.588528 291.481392 
L 336.644228 287.120881 
L 337.699928 281.278087 
L 338.755628 274.185942 
L 340.339177 261.834567 
L 344.561977 226.955284 
L 345.617677 219.684374 
L 346.673377 213.619661 
L 347.729076 209.002925 
L 348.256926 207.297538 
L 348.784776 206.018221 
L 349.312626 205.177756 
L 349.840476 204.78454 
L 350.368326 204.842502 
L 350.896176 205.351064 
L 351.424026 206.305144 
L 351.951876 207.695209 
L 352.479726 209.50737 
L 353.535426 214.321517 
L 354.591126 220.55566 
L 356.174675 232.012616 
L 358.286075 249.58017 
L 360.925325 271.287175 
L 362.508874 282.103207 
L 363.564574 287.767646 
L 364.620274 291.924017 
L 365.148124 293.382348 
L 365.675974 294.406617 
L 366.203824 294.986591 
L 366.731674 295.116474 
L 367.259524 294.794969 
L 367.787374 294.025287 
L 368.315224 292.81512 
L 368.843074 291.176559 
L 369.898773 286.683859 
L 370.954473 280.726298 
L 372.010173 273.541384 
L 373.593723 261.099917 
L 377.816522 226.304402 
L 378.872222 219.124337 
L 379.927922 213.172796 
L 380.983622 208.687047 
L 381.511472 207.052225 
L 382.039322 205.845924 
L 382.567172 205.080195 
L 383.095022 204.762691 
L 383.622872 204.896584 
L 384.150722 205.480536 
L 384.678571 206.508712 
L 385.206421 207.970839 
L 386.262121 212.134321 
L 387.317821 217.804995 
L 388.373521 224.75679 
L 389.957071 236.969048 
L 394.70772 275.783414 
L 395.76342 282.632316 
L 396.81912 288.177879 
L 397.87482 292.199019 
L 398.40267 293.585266 
L 398.930519 294.535424 
L 399.458369 295.04 
L 399.986219 295.093951 
L 400.514069 294.696739 
L 401.041919 293.852332 
L 401.569769 292.569168 
L 402.097619 290.860068 
L 403.153319 286.236449 
L 404.209019 280.165805 
L 405.264719 272.890154 
L 406.848268 260.362111 
L 411.071068 225.660202 
L 412.126768 218.573013 
L 413.182468 212.736326 
L 414.238167 208.382833 
L 414.766017 206.819038 
L 415.293867 205.686093 
L 415.821717 204.995318 
L 416.349567 204.753616 
L 416.877417 204.963401 
L 417.405267 205.622578 
L 417.933117 206.72456 
L 418.460967 208.258336 
L 419.516667 212.55581 
L 420.572367 218.343674 
L 421.628066 225.391183 
L 423.211616 237.69867 
L 427.962266 276.402999 
L 429.017965 283.152183 
L 430.073665 288.577301 
L 431.129365 292.462073 
L 431.657215 293.775844 
L 432.185065 294.651623 
L 432.712915 295.080658 
L 433.240765 295.058662 
L 433.768615 294.585856 
L 434.296465 293.666963 
L 434.824315 292.311164 
L 435.352165 290.532007 
L 436.407864 285.778776 
L 437.463564 279.596766 
L 439.047114 268.197114 
L 441.158514 250.659637 
L 441.686364 246.145474 
L 441.686364 246.145474 
" style="fill:none;stroke:#0000ff;stroke-linecap:square;stroke-width:1.5;"/>
   </g>
   <g id="line2d_58">
    <path clip-path="url(#pc57e42ed45)" d="M 275.413636 249.94 
L 278.052886 228.277246 
L 279.636436 217.525195 
L 280.692136 211.916691 
L 281.747835 207.824193 
L 282.275685 206.399959 
L 282.803535 205.410766 
L 283.331385 204.866495 
L 283.859235 204.772582 
L 284.387085 205.129964 
L 284.914935 205.935069 
L 285.442785 207.179855 
L 285.970635 208.851884 
L 287.026335 213.406747 
L 288.082035 219.418073 
L 289.137734 226.646212 
L 290.721284 239.12912 
L 294.944084 273.881529 
L 295.999784 281.01786 
L 297.055483 286.915215 
L 298.111183 291.338485 
L 298.639033 292.939726 
L 299.166883 294.111328 
L 299.694733 294.841584 
L 300.222583 295.123199 
L 300.750433 294.953358 
L 301.278283 294.333759 
L 301.806133 293.270592 
L 302.333983 291.774479 
L 303.389683 287.547391 
L 304.445382 281.821016 
L 305.501082 274.823644 
L 307.084632 262.565855 
L 311.835281 223.802235 
L 312.890981 217.000319 
L 313.946681 211.511604 
L 315.002381 207.554908 
L 315.530231 206.202936 
L 316.058081 205.287971 
L 316.585931 204.819155 
L 317.113781 204.801171 
L 317.641631 205.234199 
L 318.169481 206.113912 
L 318.69733 207.431522 
L 319.22518 209.173862 
L 320.28088 213.859029 
L 321.33658 219.98263 
L 322.39228 227.300538 
L 323.97583 239.868348 
L 328.198629 274.522501 
L 329.254329 281.565004 
L 330.310029 287.346719 
L 331.365729 291.637145 
L 331.893579 293.167148 
L 332.421429 294.265238 
L 332.949278 294.920446 
L 333.477128 295.126224 
L 334.004978 294.880516 
L 334.532828 294.185778 
L 335.060678 293.04895 
L 335.588528 291.481392 
L 336.644228 287.120881 
L 337.699928 281.278087 
L 338.755628 274.185942 
L 340.339177 261.834567 
L 344.561977 226.955284 
L 345.617677 219.684374 
L 346.673377 213.619661 
L 347.729076 209.002925 
L 348.256926 207.297538 
L 348.784776 206.018221 
L 349.312626 205.177756 
L 349.840476 204.78454 
L 350.368326 204.842502 
L 350.896176 205.351064 
L 351.424026 206.305144 
L 351.951876 207.695209 
L 352.479726 209.50737 
L 353.535426 214.321517 
L 354.591126 220.55566 
L 356.174675 232.012616 
L 358.286075 249.58017 
L 360.925325 271.287175 
L 362.508874 282.103207 
L 363.564574 287.767646 
L 364.620274 291.924017 
L 365.148124 293.382348 
L 365.675974 294.406617 
L 366.203824 294.986591 
L 366.731674 295.116474 
L 367.259524 294.794969 
L 367.787374 294.025287 
L 368.315224 292.81512 
L 368.843074 291.176559 
L 369.898773 286.683859 
L 370.954473 280.726298 
L 372.010173 273.541384 
L 373.593723 261.099917 
L 377.816522 226.304402 
L 378.872222 219.124337 
L 379.927922 213.172796 
L 380.983622 208.687047 
L 381.511472 207.052225 
L 382.039322 205.845924 
L 382.567172 205.080195 
L 383.095022 204.762691 
L 383.622872 204.896584 
L 384.150722 205.480536 
L 384.678571 206.508712 
L 385.206421 207.970839 
L 386.262121 212.134321 
L 387.317821 217.804995 
L 388.373521 224.75679 
L 389.957071 236.969048 
L 394.70772 275.783414 
L 395.76342 282.632316 
L 396.81912 288.177879 
L 397.87482 292.199019 
L 398.40267 293.585266 
L 398.930519 294.535424 
L 399.458369 295.04 
L 399.986219 295.093951 
L 400.514069 294.696739 
L 401.041919 293.852332 
L 401.569769 292.569168 
L 402.097619 290.860068 
L 403.153319 286.236449 
L 404.209019 280.165805 
L 405.264719 272.890154 
L 406.848268 260.362111 
L 411.071068 225.660202 
L 412.126768 218.573013 
L 413.182468 212.736326 
L 414.238167 208.382833 
L 414.766017 206.819038 
L 415.293867 205.686093 
L 415.821717 204.995318 
L 416.349567 204.753616 
L 416.877417 204.963401 
L 417.405267 205.622578 
L 417.933117 206.72456 
L 418.460967 208.258336 
L 419.516667 212.55581 
L 420.572367 218.343674 
L 421.628066 225.391183 
L 423.211616 237.698671 
L 427.962266 276.402998 
L 429.017965 283.152179 
L 430.073665 288.577296 
L 431.129365 292.46207 
L 431.657215 293.775846 
L 432.185065 294.651631 
L 432.712915 295.080675 
L 433.240765 295.058691 
L 433.768615 294.585899 
L 434.296465 293.667019 
L 434.824315 292.31123 
L 435.352165 290.532073 
L 436.407864 285.77877 
L 437.463564 279.596499 
L 439.047114 268.195901 
L 441.158514 250.659296 
L 441.686364 246.148256 
L 441.686364 246.148256 
" style="fill:none;stroke:#ff0000;stroke-linecap:square;stroke-width:1.5;"/>
   </g>
   <g id="patch_21">
    <path d="M 267.1 317.72 
L 267.1 182.16 
" style="fill:none;stroke:#000000;stroke-linecap:square;stroke-linejoin:miter;stroke-width:0.8;"/>
   </g>
   <g id="patch_22">
    <path d="M 450 317.72 
L 450 182.16 
" style="fill:none;stroke:#000000;stroke-linecap:square;stroke-linejoin:miter;stroke-width:0.8;"/>
   </g>
   <g id="patch_23">
    <path d="M 267.1 317.72 
L 450 317.72 
" style="fill:none;stroke:#000000;stroke-linecap:square;stroke-linejoin:miter;stroke-width:0.8;"/>
   </g>
   <g id="patch_24">
    <path d="M 267.1 182.16 
L 450 182.16 
" style="fill:none;stroke:#000000;stroke-linecap:square;stroke-linejoin:miter;stroke-width:0.8;"/>
   </g>
   <g id="legend_4">
    <g id="patch_25">
     <path d="M 378.5 204.838125 
L 443 204.838125 
Q 445 204.838125 445 202.838125 
L 445 189.16 
Q 445 187.16 443 187.16 
L 378.5 187.16 
Q 376.5 187.16 376.5 189.16 
L 376.5 202.838125 
Q 376.5 204.838125 378.5 204.838125 
z
" style="fill:#ffffff;opacity:0.8;stroke:#cccccc;stroke-linejoin:miter;"/>
    </g>
    <g id="line2d_59">
     <path d="M 380.5 195.258437 
L 400.5 195.258437 
" style="fill:none;stroke:#ff0000;stroke-linecap:square;stroke-width:1.5;"/>
    </g>
    <g id="line2d_60"/>
    <g id="text_48">
     <!-- $N=35$ -->
     <g transform="translate(408.5 198.758437)scale(0.1 -0.1)">
      <use transform="translate(0 0.78125)" xlink:href="#DejaVuSans-Oblique-78"/>
      <use transform="translate(94.287109 0.78125)" xlink:href="#DejaVuSans-61"/>
      <use transform="translate(197.558594 0.78125)" xlink:href="#DejaVuSans-51"/>
      <use transform="translate(261.181641 0.78125)" xlink:href="#DejaVuSans-53"/>
     </g>
    </g>
   </g>
  </g>
 </g>
 <defs>
  <clipPath id="pd3c19be2a3">
   <rect height="135.56" width="182.9" x="42.1" y="14.76"/>
  </clipPath>
  <clipPath id="p95ee8e7c0a">
   <rect height="135.56" width="182.9" x="267.1" y="14.76"/>
  </clipPath>
  <clipPath id="pcddf76f476">
   <rect height="135.56" width="182.9" x="42.1" y="182.16"/>
  </clipPath>
  <clipPath id="pc57e42ed45">
   <rect height="135.56" width="182.9" x="267.1" y="182.16"/>
  </clipPath>
 </defs>
</svg>
