<?xml version="1.0" encoding="utf-8" standalone="no"?>
<!DOCTYPE svg PUBLIC "-//W3C//DTD SVG 1.1//EN"
  "http://www.w3.org/Graphics/SVG/1.1/DTD/svg11.dtd">
<!-- Created with matplotlib (https://matplotlib.org/) -->
<svg height="345.6pt" version="1.1" viewBox="0 0 460.8 345.6" width="460.8pt" xmlns="http://www.w3.org/2000/svg" xmlns:xlink="http://www.w3.org/1999/xlink">
 <metadata>
  <rdf:RDF xmlns:cc="http://creativecommons.org/ns#" xmlns:dc="http://purl.org/dc/elements/1.1/" xmlns:rdf="http://www.w3.org/1999/02/22-rdf-syntax-ns#">
   <cc:Work>
    <dc:type rdf:resource="http://purl.org/dc/dcmitype/StillImage"/>
    <dc:date>2022-12-03T18:16:58.486026</dc:date>
    <dc:format>image/svg+xml</dc:format>
    <dc:creator>
     <cc:Agent>
      <dc:title>Matplotlib v3.3.4, https://matplotlib.org/</dc:title>
     </cc:Agent>
    </dc:creator>
   </cc:Work>
  </rdf:RDF>
 </metadata>
 <defs>
  <style type="text/css">*{stroke-linecap:butt;stroke-linejoin:round;}</style>
 </defs>
 <g id="figure_1">
  <g id="patch_1">
   <path d="M 0 345.6 
L 460.8 345.6 
L 460.8 0 
L 0 0 
z
" style="fill:#ffffff;"/>
  </g>
  <g id="axes_1">
   <g id="patch_2">
    <path d="M 48.49 317.72 
L 450 317.72 
L 450 14.76 
L 48.49 14.76 
z
" style="fill:#ffffff;"/>
   </g>
   <g id="matplotlib.axis_1">
    <g id="xtick_1">
     <g id="line2d_1">
      <defs>
       <path d="M 0 0 
L 0 3.5 
" id="mecca4ab086" style="stroke:#000000;stroke-width:0.8;"/>
      </defs>
      <g>
       <use style="stroke:#000000;stroke-width:0.8;" x="66.740455" xlink:href="#mecca4ab086" y="317.72"/>
      </g>
     </g>
     <g id="text_1">
      <!-- −1.00 -->
      <g transform="translate(51.417798 332.318437)scale(0.1 -0.1)">
       <defs>
        <path d="M 10.59375 35.5 
L 73.1875 35.5 
L 73.1875 27.203125 
L 10.59375 27.203125 
z
" id="DejaVuSans-8722"/>
        <path d="M 12.40625 8.296875 
L 28.515625 8.296875 
L 28.515625 63.921875 
L 10.984375 60.40625 
L 10.984375 69.390625 
L 28.421875 72.90625 
L 38.28125 72.90625 
L 38.28125 8.296875 
L 54.390625 8.296875 
L 54.390625 0 
L 12.40625 0 
z
" id="DejaVuSans-49"/>
        <path d="M 10.6875 12.40625 
L 21 12.40625 
L 21 0 
L 10.6875 0 
z
" id="DejaVuSans-46"/>
        <path d="M 31.78125 66.40625 
Q 24.171875 66.40625 20.328125 58.90625 
Q 16.5 51.421875 16.5 36.375 
Q 16.5 21.390625 20.328125 13.890625 
Q 24.171875 6.390625 31.78125 6.390625 
Q 39.453125 6.390625 43.28125 13.890625 
Q 47.125 21.390625 47.125 36.375 
Q 47.125 51.421875 43.28125 58.90625 
Q 39.453125 66.40625 31.78125 66.40625 
z
M 31.78125 74.21875 
Q 44.046875 74.21875 50.515625 64.515625 
Q 56.984375 54.828125 56.984375 36.375 
Q 56.984375 17.96875 50.515625 8.265625 
Q 44.046875 -1.421875 31.78125 -1.421875 
Q 19.53125 -1.421875 13.0625 8.265625 
Q 6.59375 17.96875 6.59375 36.375 
Q 6.59375 54.828125 13.0625 64.515625 
Q 19.53125 74.21875 31.78125 74.21875 
z
" id="DejaVuSans-48"/>
       </defs>
       <use xlink:href="#DejaVuSans-8722"/>
       <use x="83.789062" xlink:href="#DejaVuSans-49"/>
       <use x="147.412109" xlink:href="#DejaVuSans-46"/>
       <use x="179.199219" xlink:href="#DejaVuSans-48"/>
       <use x="242.822266" xlink:href="#DejaVuSans-48"/>
      </g>
     </g>
    </g>
    <g id="xtick_2">
     <g id="line2d_2">
      <g>
       <use style="stroke:#000000;stroke-width:0.8;" x="112.480942" xlink:href="#mecca4ab086" y="317.72"/>
      </g>
     </g>
     <g id="text_2">
      <!-- −0.75 -->
      <g transform="translate(97.158286 332.318437)scale(0.1 -0.1)">
       <defs>
        <path d="M 8.203125 72.90625 
L 55.078125 72.90625 
L 55.078125 68.703125 
L 28.609375 0 
L 18.3125 0 
L 43.21875 64.59375 
L 8.203125 64.59375 
z
" id="DejaVuSans-55"/>
        <path d="M 10.796875 72.90625 
L 49.515625 72.90625 
L 49.515625 64.59375 
L 19.828125 64.59375 
L 19.828125 46.734375 
Q 21.96875 47.46875 24.109375 47.828125 
Q 26.265625 48.1875 28.421875 48.1875 
Q 40.625 48.1875 47.75 41.5 
Q 54.890625 34.8125 54.890625 23.390625 
Q 54.890625 11.625 47.5625 5.09375 
Q 40.234375 -1.421875 26.90625 -1.421875 
Q 22.3125 -1.421875 17.546875 -0.640625 
Q 12.796875 0.140625 7.71875 1.703125 
L 7.71875 11.625 
Q 12.109375 9.234375 16.796875 8.0625 
Q 21.484375 6.890625 26.703125 6.890625 
Q 35.15625 6.890625 40.078125 11.328125 
Q 45.015625 15.765625 45.015625 23.390625 
Q 45.015625 31 40.078125 35.4375 
Q 35.15625 39.890625 26.703125 39.890625 
Q 22.75 39.890625 18.8125 39.015625 
Q 14.890625 38.140625 10.796875 36.28125 
z
" id="DejaVuSans-53"/>
       </defs>
       <use xlink:href="#DejaVuSans-8722"/>
       <use x="83.789062" xlink:href="#DejaVuSans-48"/>
       <use x="147.412109" xlink:href="#DejaVuSans-46"/>
       <use x="179.199219" xlink:href="#DejaVuSans-55"/>
       <use x="242.822266" xlink:href="#DejaVuSans-53"/>
      </g>
     </g>
    </g>
    <g id="xtick_3">
     <g id="line2d_3">
      <g>
       <use style="stroke:#000000;stroke-width:0.8;" x="158.22143" xlink:href="#mecca4ab086" y="317.72"/>
      </g>
     </g>
     <g id="text_3">
      <!-- −0.50 -->
      <g transform="translate(142.898773 332.318437)scale(0.1 -0.1)">
       <use xlink:href="#DejaVuSans-8722"/>
       <use x="83.789062" xlink:href="#DejaVuSans-48"/>
       <use x="147.412109" xlink:href="#DejaVuSans-46"/>
       <use x="179.199219" xlink:href="#DejaVuSans-53"/>
       <use x="242.822266" xlink:href="#DejaVuSans-48"/>
      </g>
     </g>
    </g>
    <g id="xtick_4">
     <g id="line2d_4">
      <g>
       <use style="stroke:#000000;stroke-width:0.8;" x="203.961917" xlink:href="#mecca4ab086" y="317.72"/>
      </g>
     </g>
     <g id="text_4">
      <!-- −0.25 -->
      <g transform="translate(188.639261 332.318437)scale(0.1 -0.1)">
       <defs>
        <path d="M 19.1875 8.296875 
L 53.609375 8.296875 
L 53.609375 0 
L 7.328125 0 
L 7.328125 8.296875 
Q 12.9375 14.109375 22.625 23.890625 
Q 32.328125 33.6875 34.8125 36.53125 
Q 39.546875 41.84375 41.421875 45.53125 
Q 43.3125 49.21875 43.3125 52.78125 
Q 43.3125 58.59375 39.234375 62.25 
Q 35.15625 65.921875 28.609375 65.921875 
Q 23.96875 65.921875 18.8125 64.3125 
Q 13.671875 62.703125 7.8125 59.421875 
L 7.8125 69.390625 
Q 13.765625 71.78125 18.9375 73 
Q 24.125 74.21875 28.421875 74.21875 
Q 39.75 74.21875 46.484375 68.546875 
Q 53.21875 62.890625 53.21875 53.421875 
Q 53.21875 48.921875 51.53125 44.890625 
Q 49.859375 40.875 45.40625 35.40625 
Q 44.1875 33.984375 37.640625 27.21875 
Q 31.109375 20.453125 19.1875 8.296875 
z
" id="DejaVuSans-50"/>
       </defs>
       <use xlink:href="#DejaVuSans-8722"/>
       <use x="83.789062" xlink:href="#DejaVuSans-48"/>
       <use x="147.412109" xlink:href="#DejaVuSans-46"/>
       <use x="179.199219" xlink:href="#DejaVuSans-50"/>
       <use x="242.822266" xlink:href="#DejaVuSans-53"/>
      </g>
     </g>
    </g>
    <g id="xtick_5">
     <g id="line2d_5">
      <g>
       <use style="stroke:#000000;stroke-width:0.8;" x="249.702405" xlink:href="#mecca4ab086" y="317.72"/>
      </g>
     </g>
     <g id="text_5">
      <!-- 0.00 -->
      <g transform="translate(238.569592 332.318437)scale(0.1 -0.1)">
       <use xlink:href="#DejaVuSans-48"/>
       <use x="63.623047" xlink:href="#DejaVuSans-46"/>
       <use x="95.410156" xlink:href="#DejaVuSans-48"/>
       <use x="159.033203" xlink:href="#DejaVuSans-48"/>
      </g>
     </g>
    </g>
    <g id="xtick_6">
     <g id="line2d_6">
      <g>
       <use style="stroke:#000000;stroke-width:0.8;" x="295.442892" xlink:href="#mecca4ab086" y="317.72"/>
      </g>
     </g>
     <g id="text_6">
      <!-- 0.25 -->
      <g transform="translate(284.31008 332.318437)scale(0.1 -0.1)">
       <use xlink:href="#DejaVuSans-48"/>
       <use x="63.623047" xlink:href="#DejaVuSans-46"/>
       <use x="95.410156" xlink:href="#DejaVuSans-50"/>
       <use x="159.033203" xlink:href="#DejaVuSans-53"/>
      </g>
     </g>
    </g>
    <g id="xtick_7">
     <g id="line2d_7">
      <g>
       <use style="stroke:#000000;stroke-width:0.8;" x="341.18338" xlink:href="#mecca4ab086" y="317.72"/>
      </g>
     </g>
     <g id="text_7">
      <!-- 0.50 -->
      <g transform="translate(330.050568 332.318437)scale(0.1 -0.1)">
       <use xlink:href="#DejaVuSans-48"/>
       <use x="63.623047" xlink:href="#DejaVuSans-46"/>
       <use x="95.410156" xlink:href="#DejaVuSans-53"/>
       <use x="159.033203" xlink:href="#DejaVuSans-48"/>
      </g>
     </g>
    </g>
    <g id="xtick_8">
     <g id="line2d_8">
      <g>
       <use style="stroke:#000000;stroke-width:0.8;" x="386.923868" xlink:href="#mecca4ab086" y="317.72"/>
      </g>
     </g>
     <g id="text_8">
      <!-- 0.75 -->
      <g transform="translate(375.791055 332.318437)scale(0.1 -0.1)">
       <use xlink:href="#DejaVuSans-48"/>
       <use x="63.623047" xlink:href="#DejaVuSans-46"/>
       <use x="95.410156" xlink:href="#DejaVuSans-55"/>
       <use x="159.033203" xlink:href="#DejaVuSans-53"/>
      </g>
     </g>
    </g>
    <g id="xtick_9">
     <g id="line2d_9">
      <g>
       <use style="stroke:#000000;stroke-width:0.8;" x="432.664355" xlink:href="#mecca4ab086" y="317.72"/>
      </g>
     </g>
     <g id="text_9">
      <!-- 1.00 -->
      <g transform="translate(421.531543 332.318437)scale(0.1 -0.1)">
       <use xlink:href="#DejaVuSans-49"/>
       <use x="63.623047" xlink:href="#DejaVuSans-46"/>
       <use x="95.410156" xlink:href="#DejaVuSans-48"/>
       <use x="159.033203" xlink:href="#DejaVuSans-48"/>
      </g>
     </g>
    </g>
   </g>
   <g id="matplotlib.axis_2">
    <g id="ytick_1">
     <g id="line2d_10">
      <defs>
       <path d="M 0 0 
L -3.5 0 
" id="m00431c4f23" style="stroke:#000000;stroke-width:0.8;"/>
      </defs>
      <g>
       <use style="stroke:#000000;stroke-width:0.8;" x="48.49" xlink:href="#m00431c4f23" y="317.72"/>
      </g>
     </g>
     <g id="text_10">
      <!-- −0.50 -->
      <g transform="translate(10.844687 321.519219)scale(0.1 -0.1)">
       <use xlink:href="#DejaVuSans-8722"/>
       <use x="83.789062" xlink:href="#DejaVuSans-48"/>
       <use x="147.412109" xlink:href="#DejaVuSans-46"/>
       <use x="179.199219" xlink:href="#DejaVuSans-53"/>
       <use x="242.822266" xlink:href="#DejaVuSans-48"/>
      </g>
     </g>
    </g>
    <g id="ytick_2">
     <g id="line2d_11">
      <g>
       <use style="stroke:#000000;stroke-width:0.8;" x="48.49" xlink:href="#m00431c4f23" y="279.85"/>
      </g>
     </g>
     <g id="text_11">
      <!-- −0.25 -->
      <g transform="translate(10.844687 283.649219)scale(0.1 -0.1)">
       <use xlink:href="#DejaVuSans-8722"/>
       <use x="83.789062" xlink:href="#DejaVuSans-48"/>
       <use x="147.412109" xlink:href="#DejaVuSans-46"/>
       <use x="179.199219" xlink:href="#DejaVuSans-50"/>
       <use x="242.822266" xlink:href="#DejaVuSans-53"/>
      </g>
     </g>
    </g>
    <g id="ytick_3">
     <g id="line2d_12">
      <g>
       <use style="stroke:#000000;stroke-width:0.8;" x="48.49" xlink:href="#m00431c4f23" y="241.98"/>
      </g>
     </g>
     <g id="text_12">
      <!-- 0.00 -->
      <g transform="translate(19.224375 245.779219)scale(0.1 -0.1)">
       <use xlink:href="#DejaVuSans-48"/>
       <use x="63.623047" xlink:href="#DejaVuSans-46"/>
       <use x="95.410156" xlink:href="#DejaVuSans-48"/>
       <use x="159.033203" xlink:href="#DejaVuSans-48"/>
      </g>
     </g>
    </g>
    <g id="ytick_4">
     <g id="line2d_13">
      <g>
       <use style="stroke:#000000;stroke-width:0.8;" x="48.49" xlink:href="#m00431c4f23" y="204.11"/>
      </g>
     </g>
     <g id="text_13">
      <!-- 0.25 -->
      <g transform="translate(19.224375 207.909219)scale(0.1 -0.1)">
       <use xlink:href="#DejaVuSans-48"/>
       <use x="63.623047" xlink:href="#DejaVuSans-46"/>
       <use x="95.410156" xlink:href="#DejaVuSans-50"/>
       <use x="159.033203" xlink:href="#DejaVuSans-53"/>
      </g>
     </g>
    </g>
    <g id="ytick_5">
     <g id="line2d_14">
      <g>
       <use style="stroke:#000000;stroke-width:0.8;" x="48.49" xlink:href="#m00431c4f23" y="166.24"/>
      </g>
     </g>
     <g id="text_14">
      <!-- 0.50 -->
      <g transform="translate(19.224375 170.039219)scale(0.1 -0.1)">
       <use xlink:href="#DejaVuSans-48"/>
       <use x="63.623047" xlink:href="#DejaVuSans-46"/>
       <use x="95.410156" xlink:href="#DejaVuSans-53"/>
       <use x="159.033203" xlink:href="#DejaVuSans-48"/>
      </g>
     </g>
    </g>
    <g id="ytick_6">
     <g id="line2d_15">
      <g>
       <use style="stroke:#000000;stroke-width:0.8;" x="48.49" xlink:href="#m00431c4f23" y="128.37"/>
      </g>
     </g>
     <g id="text_15">
      <!-- 0.75 -->
      <g transform="translate(19.224375 132.169219)scale(0.1 -0.1)">
       <use xlink:href="#DejaVuSans-48"/>
       <use x="63.623047" xlink:href="#DejaVuSans-46"/>
       <use x="95.410156" xlink:href="#DejaVuSans-55"/>
       <use x="159.033203" xlink:href="#DejaVuSans-53"/>
      </g>
     </g>
    </g>
    <g id="ytick_7">
     <g id="line2d_16">
      <g>
       <use style="stroke:#000000;stroke-width:0.8;" x="48.49" xlink:href="#m00431c4f23" y="90.5"/>
      </g>
     </g>
     <g id="text_16">
      <!-- 1.00 -->
      <g transform="translate(19.224375 94.299219)scale(0.1 -0.1)">
       <use xlink:href="#DejaVuSans-49"/>
       <use x="63.623047" xlink:href="#DejaVuSans-46"/>
       <use x="95.410156" xlink:href="#DejaVuSans-48"/>
       <use x="159.033203" xlink:href="#DejaVuSans-48"/>
      </g>
     </g>
    </g>
    <g id="ytick_8">
     <g id="line2d_17">
      <g>
       <use style="stroke:#000000;stroke-width:0.8;" x="48.49" xlink:href="#m00431c4f23" y="52.63"/>
      </g>
     </g>
     <g id="text_17">
      <!-- 1.25 -->
      <g transform="translate(19.224375 56.429219)scale(0.1 -0.1)">
       <use xlink:href="#DejaVuSans-49"/>
       <use x="63.623047" xlink:href="#DejaVuSans-46"/>
       <use x="95.410156" xlink:href="#DejaVuSans-50"/>
       <use x="159.033203" xlink:href="#DejaVuSans-53"/>
      </g>
     </g>
    </g>
    <g id="ytick_9">
     <g id="line2d_18">
      <g>
       <use style="stroke:#000000;stroke-width:0.8;" x="48.49" xlink:href="#m00431c4f23" y="14.76"/>
      </g>
     </g>
     <g id="text_18">
      <!-- 1.50 -->
      <g transform="translate(19.224375 18.559219)scale(0.1 -0.1)">
       <use xlink:href="#DejaVuSans-49"/>
       <use x="63.623047" xlink:href="#DejaVuSans-46"/>
       <use x="95.410156" xlink:href="#DejaVuSans-53"/>
       <use x="159.033203" xlink:href="#DejaVuSans-48"/>
      </g>
     </g>
    </g>
   </g>
   <g id="line2d_19">
    <path clip-path="url(#p297b4734d7)" d="M 66.740455 236.153846 
L 81.377411 235.14426 
L 94.184747 234.033508 
L 105.162464 232.856073 
L 114.310562 231.668223 
L 122.543849 230.395085 
L 129.862327 229.061286 
L 137.180805 227.492105 
L 143.584474 225.882232 
L 149.073332 224.288905 
L 154.562191 222.459381 
L 159.136239 220.721514 
L 163.710288 218.755776 
L 168.284337 216.52385 
L 171.943576 214.516204 
L 175.602815 212.281679 
L 179.262054 209.78874 
L 182.921293 207.001215 
L 186.580532 203.877815 
L 189.324961 201.286917 
L 192.069391 198.459081 
L 194.81382 195.370769 
L 197.558249 191.996911 
L 200.302678 188.311267 
L 203.047108 184.28707 
L 205.791537 179.898033 
L 208.535966 175.119862 
L 211.280395 169.932438 
L 214.024825 164.322839 
L 216.769254 158.289392 
L 220.428493 149.614146 
L 224.087732 140.31557 
L 230.4914 123.230367 
L 234.150639 113.675077 
L 236.895068 107.031225 
L 238.724688 103.007523 
L 240.554307 99.410588 
L 242.383927 96.326154 
L 244.213546 93.833301 
L 245.128356 92.830462 
L 246.043166 91.999802 
L 246.957976 91.347309 
L 247.872785 90.877756 
L 248.787595 90.594616 
L 249.702405 90.5 
L 250.617215 90.594616 
L 251.532024 90.877756 
L 252.446834 91.347309 
L 253.361644 91.999802 
L 254.276454 92.830462 
L 255.191263 93.833301 
L 257.020883 96.326154 
L 258.850502 99.410588 
L 260.680122 103.007523 
L 262.509741 107.031225 
L 265.254171 113.675077 
L 268.91341 123.230367 
L 277.146697 145.0328 
L 280.805936 154.038055 
L 284.465175 162.358449 
L 287.209605 168.109838 
L 289.954034 173.437014 
L 292.698463 178.349651 
L 295.442892 182.865854 
L 298.187322 187.008805 
L 300.931751 190.804324 
L 303.67618 194.279154 
L 306.420609 197.459794 
L 309.165039 200.37176 
L 312.824278 203.877815 
L 316.483517 207.001215 
L 320.142756 209.78874 
L 323.801995 212.281679 
L 327.461234 214.516204 
L 331.120473 216.52385 
L 335.694522 218.755776 
L 340.26857 220.721514 
L 344.842619 222.459381 
L 350.331478 224.288905 
L 355.820336 225.882232 
L 362.224004 227.492105 
L 368.627673 228.879027 
L 375.946151 230.23964 
L 384.179438 231.537155 
L 393.327536 232.746582 
L 403.390443 233.853391 
L 415.28297 234.926422 
L 429.005116 235.923223 
L 431.749545 236.097424 
L 431.749545 236.097424 
" style="fill:none;stroke:#0000ff;stroke-linecap:square;stroke-width:1.5;"/>
   </g>
   <g id="line2d_20">
    <path clip-path="url(#p297b4734d7)" d="M 66.740455 236.153846 
L 66.740455 -1 
M 70.502355 -1 
L 70.502355 346.6 
M 74.231274 346.6 
L 74.231274 -1 
M 77.94643 -1 
L 77.94643 346.6 
M 81.65408 346.6 
L 81.65408 -1 
M 85.355704 -1 
L 85.355704 346.6 
M 89.054043 346.6 
L 89.054047 -1 
M 92.749173 -1 
L 92.749219 346.6 
M 96.442246 346.6 
L 96.442718 -1 
M 100.13147 -1 
L 100.135782 346.6 
M 103.812785 346.6 
L 103.848041 -1 
M 107.338056 -1 
L 107.598519 346.6 
M 110.636558 346.6 
L 110.651323 341.323564 
L 111.566132 159.725687 
L 112.480942 124.112423 
L 113.395752 163.35981 
L 114.310562 213.014888 
L 115.225371 242.367629 
L 116.140181 248.991511 
L 117.054991 242.954634 
L 117.969801 234.577154 
L 118.88461 229.23533 
L 119.79942 227.727367 
L 120.71423 228.527637 
L 121.62904 229.860196 
L 122.543849 230.699447 
L 123.458659 230.835698 
L 124.373469 230.515507 
L 126.203088 229.698315 
L 128.032708 229.321346 
L 130.777137 228.906144 
L 138.095615 227.278387 
L 144.499283 225.631425 
L 149.988142 224.001475 
L 155.477 222.128415 
L 160.051049 220.347727 
L 164.625098 218.332034 
L 169.199147 216.041644 
L 172.858386 213.98 
L 176.517625 211.684 
L 180.176864 209.120998 
L 183.836103 206.253585 
L 187.495342 203.039126 
L 190.239771 200.37176 
L 192.9842 197.459794 
L 195.72863 194.279154 
L 198.473059 190.804324 
L 201.217488 187.008805 
L 203.961917 182.865854 
L 206.706347 178.349651 
L 209.450776 173.437014 
L 212.195205 168.109838 
L 214.939634 162.358449 
L 217.684064 156.186018 
L 221.343303 147.341968 
L 225.002542 137.914736 
L 235.065449 111.393793 
L 237.809878 104.971521 
L 239.639498 101.15025 
L 241.469117 97.799155 
L 243.298737 95.001225 
L 245.128356 92.830462 
L 246.043166 91.999802 
L 246.957976 91.347309 
L 247.872785 90.877756 
L 248.787595 90.594616 
L 249.702405 90.5 
L 250.617215 90.594616 
L 251.532024 90.877756 
L 252.446834 91.347309 
L 253.361644 91.999802 
L 254.276454 92.830462 
L 255.191263 93.833301 
L 257.020883 96.326154 
L 258.850502 99.410588 
L 260.680122 103.007523 
L 262.509741 107.031225 
L 265.254171 113.675077 
L 268.91341 123.230367 
L 277.146697 145.0328 
L 280.805936 154.038055 
L 284.465175 162.358449 
L 287.209605 168.109838 
L 289.954034 173.437014 
L 292.698463 178.349651 
L 295.442892 182.865854 
L 298.187322 187.008805 
L 300.931751 190.804324 
L 303.67618 194.279154 
L 306.420609 197.459794 
L 309.165039 200.37176 
L 312.824278 203.877815 
L 316.483517 207.001215 
L 320.142756 209.78874 
L 323.801995 212.281679 
L 327.461234 214.516204 
L 331.120473 216.523851 
L 335.694522 218.755776 
L 340.26857 220.721514 
L 344.842619 222.459388 
L 350.331478 224.288868 
L 355.820336 225.882054 
L 362.224004 227.492599 
L 369.542482 229.072347 
L 373.201721 229.698326 
L 375.946151 230.835487 
L 376.86096 230.69915 
L 377.77577 229.859675 
L 378.69058 228.527926 
L 379.60539 227.728861 
L 380.520199 229.235594 
L 381.435009 234.575765 
L 382.349819 242.975958 
L 383.264629 248.977204 
L 384.179438 242.3656 
L 385.094248 213.037633 
L 386.009058 163.33003 
L 386.923868 124.148841 
L 387.838677 159.678975 
L 388.768053 346.6 
M 391.8061 346.6 
L 392.066651 -1 
M 395.55687 -1 
L 395.592131 346.6 
M 399.268942 346.6 
L 399.27325 -1 
M 402.961806 -1 
L 402.962277 346.6 
M 406.655339 346.6 
L 406.655385 -1 
M 410.350728 -1 
L 410.350732 346.6 
M 414.048932 346.6 
L 414.048932 -1 
M 417.75096 -1 
L 417.75096 346.6 
M 421.458317 346.6 
L 421.458317 -1 
M 425.173784 -1 
L 425.173784 346.6 
M 428.902646 346.6 
L 428.902646 -1 
L 428.902646 -1 
" style="fill:none;stroke:#ff0000;stroke-linecap:square;stroke-width:1.5;"/>
   </g>
   <g id="patch_3">
    <path d="M 48.49 317.72 
L 48.49 14.76 
" style="fill:none;stroke:#000000;stroke-linecap:square;stroke-linejoin:miter;stroke-width:0.8;"/>
   </g>
   <g id="patch_4">
    <path d="M 450 317.72 
L 450 14.76 
" style="fill:none;stroke:#000000;stroke-linecap:square;stroke-linejoin:miter;stroke-width:0.8;"/>
   </g>
   <g id="patch_5">
    <path d="M 48.49 317.72 
L 450 317.72 
" style="fill:none;stroke:#000000;stroke-linecap:square;stroke-linejoin:miter;stroke-width:0.8;"/>
   </g>
   <g id="patch_6">
    <path d="M 48.49 14.76 
L 450 14.76 
" style="fill:none;stroke:#000000;stroke-linecap:square;stroke-linejoin:miter;stroke-width:0.8;"/>
   </g>
  </g>
 </g>
 <defs>
  <clipPath id="p297b4734d7">
   <rect height="302.96" width="401.51" x="48.49" y="14.76"/>
  </clipPath>
 </defs>
</svg>
