<?xml version="1.0" encoding="utf-8" standalone="no"?>
<!DOCTYPE svg PUBLIC "-//W3C//DTD SVG 1.1//EN"
  "http://www.w3.org/Graphics/SVG/1.1/DTD/svg11.dtd">
<svg xmlns:xlink="http://www.w3.org/1999/xlink" width="864pt" height="360pt" viewBox="0 0 864 360" xmlns="http://www.w3.org/2000/svg" version="1.1">
 <metadata>
  <rdf:RDF xmlns:dc="http://purl.org/dc/elements/1.1/" xmlns:cc="http://creativecommons.org/ns#" xmlns:rdf="http://www.w3.org/1999/02/22-rdf-syntax-ns#">
   <cc:Work>
    <dc:type rdf:resource="http://purl.org/dc/dcmitype/StillImage"/>
    <dc:date>2023-07-24T19:32:08.878770</dc:date>
    <dc:format>image/svg+xml</dc:format>
    <dc:creator>
     <cc:Agent>
      <dc:title>Matplotlib v3.7.1, https://matplotlib.org/</dc:title>
     </cc:Agent>
    </dc:creator>
   </cc:Work>
  </rdf:RDF>
 </metadata>
 <defs>
  <style type="text/css">*{stroke-linejoin: round; stroke-linecap: butt}</style>
 </defs>
 <g id="figure_1">
  <g id="patch_1">
   <path d="M 0 360 
L 864 360 
L 864 0 
L 0 0 
z
" style="fill: #ffffff"/>
  </g>
  <g id="axes_1">
   <g id="patch_2">
    <path d="M 44.665 312.64 
L 426.6 312.64 
L 426.6 10.8 
L 44.665 10.8 
z
" style="fill: #ffffff"/>
   </g>
   <g id="matplotlib.axis_1">
    <g id="xtick_1">
     <g id="line2d_1">
      <defs>
       <path id="m4610e7a0a0" d="M 0 0 
L 0 3.5 
" style="stroke: #000000; stroke-width: 0.8"/>
      </defs>
      <g>
       <use xlink:href="#m4610e7a0a0" x="62.025682" y="312.64" style="stroke: #000000; stroke-width: 0.8"/>
      </g>
     </g>
     <g id="text_1">
      <!-- 80 -->
      <g transform="translate(54.390682 328.758125) scale(0.12 -0.12)">
       <defs>
        <path id="DejaVuSans-38" d="M 2034 2216 
Q 1584 2216 1326 1975 
Q 1069 1734 1069 1313 
Q 1069 891 1326 650 
Q 1584 409 2034 409 
Q 2484 409 2743 651 
Q 3003 894 3003 1313 
Q 3003 1734 2745 1975 
Q 2488 2216 2034 2216 
z
M 1403 2484 
Q 997 2584 770 2862 
Q 544 3141 544 3541 
Q 544 4100 942 4425 
Q 1341 4750 2034 4750 
Q 2731 4750 3128 4425 
Q 3525 4100 3525 3541 
Q 3525 3141 3298 2862 
Q 3072 2584 2669 2484 
Q 3125 2378 3379 2068 
Q 3634 1759 3634 1313 
Q 3634 634 3220 271 
Q 2806 -91 2034 -91 
Q 1263 -91 848 271 
Q 434 634 434 1313 
Q 434 1759 690 2068 
Q 947 2378 1403 2484 
z
M 1172 3481 
Q 1172 3119 1398 2916 
Q 1625 2713 2034 2713 
Q 2441 2713 2670 2916 
Q 2900 3119 2900 3481 
Q 2900 3844 2670 4047 
Q 2441 4250 2034 4250 
Q 1625 4250 1398 4047 
Q 1172 3844 1172 3481 
z
" transform="scale(0.015625)"/>
        <path id="DejaVuSans-30" d="M 2034 4250 
Q 1547 4250 1301 3770 
Q 1056 3291 1056 2328 
Q 1056 1369 1301 889 
Q 1547 409 2034 409 
Q 2525 409 2770 889 
Q 3016 1369 3016 2328 
Q 3016 3291 2770 3770 
Q 2525 4250 2034 4250 
z
M 2034 4750 
Q 2819 4750 3233 4129 
Q 3647 3509 3647 2328 
Q 3647 1150 3233 529 
Q 2819 -91 2034 -91 
Q 1250 -91 836 529 
Q 422 1150 422 2328 
Q 422 3509 836 4129 
Q 1250 4750 2034 4750 
z
" transform="scale(0.015625)"/>
       </defs>
       <use xlink:href="#DejaVuSans-38"/>
       <use xlink:href="#DejaVuSans-30" x="63.623047"/>
      </g>
     </g>
    </g>
    <g id="xtick_2">
     <g id="line2d_2">
      <g>
       <use xlink:href="#m4610e7a0a0" x="105.427386" y="312.64" style="stroke: #000000; stroke-width: 0.8"/>
      </g>
     </g>
     <g id="text_2">
      <!-- 85 -->
      <g transform="translate(97.792386 328.758125) scale(0.12 -0.12)">
       <defs>
        <path id="DejaVuSans-35" d="M 691 4666 
L 3169 4666 
L 3169 4134 
L 1269 4134 
L 1269 2991 
Q 1406 3038 1543 3061 
Q 1681 3084 1819 3084 
Q 2600 3084 3056 2656 
Q 3513 2228 3513 1497 
Q 3513 744 3044 326 
Q 2575 -91 1722 -91 
Q 1428 -91 1123 -41 
Q 819 9 494 109 
L 494 744 
Q 775 591 1075 516 
Q 1375 441 1709 441 
Q 2250 441 2565 725 
Q 2881 1009 2881 1497 
Q 2881 1984 2565 2268 
Q 2250 2553 1709 2553 
Q 1456 2553 1204 2497 
Q 953 2441 691 2322 
L 691 4666 
z
" transform="scale(0.015625)"/>
       </defs>
       <use xlink:href="#DejaVuSans-38"/>
       <use xlink:href="#DejaVuSans-35" x="63.623047"/>
      </g>
     </g>
    </g>
    <g id="xtick_3">
     <g id="line2d_3">
      <g>
       <use xlink:href="#m4610e7a0a0" x="148.829091" y="312.64" style="stroke: #000000; stroke-width: 0.8"/>
      </g>
     </g>
     <g id="text_3">
      <!-- 90 -->
      <g transform="translate(141.194091 328.758125) scale(0.12 -0.12)">
       <defs>
        <path id="DejaVuSans-39" d="M 703 97 
L 703 672 
Q 941 559 1184 500 
Q 1428 441 1663 441 
Q 2288 441 2617 861 
Q 2947 1281 2994 2138 
Q 2813 1869 2534 1725 
Q 2256 1581 1919 1581 
Q 1219 1581 811 2004 
Q 403 2428 403 3163 
Q 403 3881 828 4315 
Q 1253 4750 1959 4750 
Q 2769 4750 3195 4129 
Q 3622 3509 3622 2328 
Q 3622 1225 3098 567 
Q 2575 -91 1691 -91 
Q 1453 -91 1209 -44 
Q 966 3 703 97 
z
M 1959 2075 
Q 2384 2075 2632 2365 
Q 2881 2656 2881 3163 
Q 2881 3666 2632 3958 
Q 2384 4250 1959 4250 
Q 1534 4250 1286 3958 
Q 1038 3666 1038 3163 
Q 1038 2656 1286 2365 
Q 1534 2075 1959 2075 
z
" transform="scale(0.015625)"/>
       </defs>
       <use xlink:href="#DejaVuSans-39"/>
       <use xlink:href="#DejaVuSans-30" x="63.623047"/>
      </g>
     </g>
    </g>
    <g id="xtick_4">
     <g id="line2d_4">
      <g>
       <use xlink:href="#m4610e7a0a0" x="192.230795" y="312.64" style="stroke: #000000; stroke-width: 0.8"/>
      </g>
     </g>
     <g id="text_4">
      <!-- 95 -->
      <g transform="translate(184.595795 328.758125) scale(0.12 -0.12)">
       <use xlink:href="#DejaVuSans-39"/>
       <use xlink:href="#DejaVuSans-35" x="63.623047"/>
      </g>
     </g>
    </g>
    <g id="xtick_5">
     <g id="line2d_5">
      <g>
       <use xlink:href="#m4610e7a0a0" x="235.6325" y="312.64" style="stroke: #000000; stroke-width: 0.8"/>
      </g>
     </g>
     <g id="text_5">
      <!-- 100 -->
      <g transform="translate(224.18 328.758125) scale(0.12 -0.12)">
       <defs>
        <path id="DejaVuSans-31" d="M 794 531 
L 1825 531 
L 1825 4091 
L 703 3866 
L 703 4441 
L 1819 4666 
L 2450 4666 
L 2450 531 
L 3481 531 
L 3481 0 
L 794 0 
L 794 531 
z
" transform="scale(0.015625)"/>
       </defs>
       <use xlink:href="#DejaVuSans-31"/>
       <use xlink:href="#DejaVuSans-30" x="63.623047"/>
       <use xlink:href="#DejaVuSans-30" x="127.246094"/>
      </g>
     </g>
    </g>
    <g id="xtick_6">
     <g id="line2d_6">
      <g>
       <use xlink:href="#m4610e7a0a0" x="279.034205" y="312.64" style="stroke: #000000; stroke-width: 0.8"/>
      </g>
     </g>
     <g id="text_6">
      <!-- 105 -->
      <g transform="translate(267.581705 328.758125) scale(0.12 -0.12)">
       <use xlink:href="#DejaVuSans-31"/>
       <use xlink:href="#DejaVuSans-30" x="63.623047"/>
       <use xlink:href="#DejaVuSans-35" x="127.246094"/>
      </g>
     </g>
    </g>
    <g id="xtick_7">
     <g id="line2d_7">
      <g>
       <use xlink:href="#m4610e7a0a0" x="322.435909" y="312.64" style="stroke: #000000; stroke-width: 0.8"/>
      </g>
     </g>
     <g id="text_7">
      <!-- 110 -->
      <g transform="translate(310.983409 328.758125) scale(0.12 -0.12)">
       <use xlink:href="#DejaVuSans-31"/>
       <use xlink:href="#DejaVuSans-31" x="63.623047"/>
       <use xlink:href="#DejaVuSans-30" x="127.246094"/>
      </g>
     </g>
    </g>
    <g id="xtick_8">
     <g id="line2d_8">
      <g>
       <use xlink:href="#m4610e7a0a0" x="365.837614" y="312.64" style="stroke: #000000; stroke-width: 0.8"/>
      </g>
     </g>
     <g id="text_8">
      <!-- 115 -->
      <g transform="translate(354.385114 328.758125) scale(0.12 -0.12)">
       <use xlink:href="#DejaVuSans-31"/>
       <use xlink:href="#DejaVuSans-31" x="63.623047"/>
       <use xlink:href="#DejaVuSans-35" x="127.246094"/>
      </g>
     </g>
    </g>
    <g id="xtick_9">
     <g id="line2d_9">
      <g>
       <use xlink:href="#m4610e7a0a0" x="409.239318" y="312.64" style="stroke: #000000; stroke-width: 0.8"/>
      </g>
     </g>
     <g id="text_9">
      <!-- 120 -->
      <g transform="translate(397.786818 328.758125) scale(0.12 -0.12)">
       <defs>
        <path id="DejaVuSans-32" d="M 1228 531 
L 3431 531 
L 3431 0 
L 469 0 
L 469 531 
Q 828 903 1448 1529 
Q 2069 2156 2228 2338 
Q 2531 2678 2651 2914 
Q 2772 3150 2772 3378 
Q 2772 3750 2511 3984 
Q 2250 4219 1831 4219 
Q 1534 4219 1204 4116 
Q 875 4013 500 3803 
L 500 4441 
Q 881 4594 1212 4672 
Q 1544 4750 1819 4750 
Q 2544 4750 2975 4387 
Q 3406 4025 3406 3419 
Q 3406 3131 3298 2873 
Q 3191 2616 2906 2266 
Q 2828 2175 2409 1742 
Q 1991 1309 1228 531 
z
" transform="scale(0.015625)"/>
       </defs>
       <use xlink:href="#DejaVuSans-31"/>
       <use xlink:href="#DejaVuSans-32" x="63.623047"/>
       <use xlink:href="#DejaVuSans-30" x="127.246094"/>
      </g>
     </g>
    </g>
    <g id="text_10">
     <!-- $S$ -->
     <g transform="translate(231.1525 345.891563) scale(0.14 -0.14)">
      <defs>
       <path id="DejaVuSans-Oblique-53" d="M 3859 4513 
L 3738 3897 
Q 3422 4066 3111 4152 
Q 2800 4238 2509 4238 
Q 1944 4238 1609 3991 
Q 1275 3744 1275 3334 
Q 1275 3109 1398 2989 
Q 1522 2869 2034 2731 
L 2413 2638 
Q 3053 2472 3303 2217 
Q 3553 1963 3553 1503 
Q 3553 797 2998 353 
Q 2444 -91 1538 -91 
Q 1166 -91 791 -17 
Q 416 56 38 206 
L 166 856 
Q 513 641 861 531 
Q 1209 422 1556 422 
Q 2147 422 2503 684 
Q 2859 947 2859 1369 
Q 2859 1650 2717 1795 
Q 2575 1941 2106 2059 
L 1728 2156 
Q 1081 2325 845 2545 
Q 609 2766 609 3163 
Q 609 3859 1145 4304 
Q 1681 4750 2541 4750 
Q 2875 4750 3203 4690 
Q 3531 4631 3859 4513 
z
" transform="scale(0.015625)"/>
      </defs>
      <use xlink:href="#DejaVuSans-Oblique-53" transform="translate(0 0.78125)"/>
     </g>
    </g>
   </g>
   <g id="matplotlib.axis_2">
    <g id="ytick_1">
     <g id="line2d_10">
      <defs>
       <path id="m5fb2639123" d="M 0 0 
L -3.5 0 
" style="stroke: #000000; stroke-width: 0.8"/>
      </defs>
      <g>
       <use xlink:href="#m5fb2639123" x="44.665" y="298.92" style="stroke: #000000; stroke-width: 0.8"/>
      </g>
     </g>
     <g id="text_11">
      <!-- 0.0 -->
      <g transform="translate(18.58125 303.479062) scale(0.12 -0.12)">
       <defs>
        <path id="DejaVuSans-2e" d="M 684 794 
L 1344 794 
L 1344 0 
L 684 0 
L 684 794 
z
" transform="scale(0.015625)"/>
       </defs>
       <use xlink:href="#DejaVuSans-30"/>
       <use xlink:href="#DejaVuSans-2e" x="63.623047"/>
       <use xlink:href="#DejaVuSans-30" x="95.410156"/>
      </g>
     </g>
    </g>
    <g id="ytick_2">
     <g id="line2d_11">
      <g>
       <use xlink:href="#m5fb2639123" x="44.665" y="264.708427" style="stroke: #000000; stroke-width: 0.8"/>
      </g>
     </g>
     <g id="text_12">
      <!-- 2.5 -->
      <g transform="translate(18.58125 269.267489) scale(0.12 -0.12)">
       <use xlink:href="#DejaVuSans-32"/>
       <use xlink:href="#DejaVuSans-2e" x="63.623047"/>
       <use xlink:href="#DejaVuSans-35" x="95.410156"/>
      </g>
     </g>
    </g>
    <g id="ytick_3">
     <g id="line2d_12">
      <g>
       <use xlink:href="#m5fb2639123" x="44.665" y="230.496853" style="stroke: #000000; stroke-width: 0.8"/>
      </g>
     </g>
     <g id="text_13">
      <!-- 5.0 -->
      <g transform="translate(18.58125 235.055916) scale(0.12 -0.12)">
       <use xlink:href="#DejaVuSans-35"/>
       <use xlink:href="#DejaVuSans-2e" x="63.623047"/>
       <use xlink:href="#DejaVuSans-30" x="95.410156"/>
      </g>
     </g>
    </g>
    <g id="ytick_4">
     <g id="line2d_13">
      <g>
       <use xlink:href="#m5fb2639123" x="44.665" y="196.28528" style="stroke: #000000; stroke-width: 0.8"/>
      </g>
     </g>
     <g id="text_14">
      <!-- 7.5 -->
      <g transform="translate(18.58125 200.844343) scale(0.12 -0.12)">
       <defs>
        <path id="DejaVuSans-37" d="M 525 4666 
L 3525 4666 
L 3525 4397 
L 1831 0 
L 1172 0 
L 2766 4134 
L 525 4134 
L 525 4666 
z
" transform="scale(0.015625)"/>
       </defs>
       <use xlink:href="#DejaVuSans-37"/>
       <use xlink:href="#DejaVuSans-2e" x="63.623047"/>
       <use xlink:href="#DejaVuSans-35" x="95.410156"/>
      </g>
     </g>
    </g>
    <g id="ytick_5">
     <g id="line2d_14">
      <g>
       <use xlink:href="#m5fb2639123" x="44.665" y="162.073707" style="stroke: #000000; stroke-width: 0.8"/>
      </g>
     </g>
     <g id="text_15">
      <!-- 10.0 -->
      <g transform="translate(10.94625 166.632769) scale(0.12 -0.12)">
       <use xlink:href="#DejaVuSans-31"/>
       <use xlink:href="#DejaVuSans-30" x="63.623047"/>
       <use xlink:href="#DejaVuSans-2e" x="127.246094"/>
       <use xlink:href="#DejaVuSans-30" x="159.033203"/>
      </g>
     </g>
    </g>
    <g id="ytick_6">
     <g id="line2d_15">
      <g>
       <use xlink:href="#m5fb2639123" x="44.665" y="127.862134" style="stroke: #000000; stroke-width: 0.8"/>
      </g>
     </g>
     <g id="text_16">
      <!-- 12.5 -->
      <g transform="translate(10.94625 132.421196) scale(0.12 -0.12)">
       <use xlink:href="#DejaVuSans-31"/>
       <use xlink:href="#DejaVuSans-32" x="63.623047"/>
       <use xlink:href="#DejaVuSans-2e" x="127.246094"/>
       <use xlink:href="#DejaVuSans-35" x="159.033203"/>
      </g>
     </g>
    </g>
    <g id="ytick_7">
     <g id="line2d_16">
      <g>
       <use xlink:href="#m5fb2639123" x="44.665" y="93.65056" style="stroke: #000000; stroke-width: 0.8"/>
      </g>
     </g>
     <g id="text_17">
      <!-- 15.0 -->
      <g transform="translate(10.94625 98.209623) scale(0.12 -0.12)">
       <use xlink:href="#DejaVuSans-31"/>
       <use xlink:href="#DejaVuSans-35" x="63.623047"/>
       <use xlink:href="#DejaVuSans-2e" x="127.246094"/>
       <use xlink:href="#DejaVuSans-30" x="159.033203"/>
      </g>
     </g>
    </g>
    <g id="ytick_8">
     <g id="line2d_17">
      <g>
       <use xlink:href="#m5fb2639123" x="44.665" y="59.438987" style="stroke: #000000; stroke-width: 0.8"/>
      </g>
     </g>
     <g id="text_18">
      <!-- 17.5 -->
      <g transform="translate(10.94625 63.998049) scale(0.12 -0.12)">
       <use xlink:href="#DejaVuSans-31"/>
       <use xlink:href="#DejaVuSans-37" x="63.623047"/>
       <use xlink:href="#DejaVuSans-2e" x="127.246094"/>
       <use xlink:href="#DejaVuSans-35" x="159.033203"/>
      </g>
     </g>
    </g>
    <g id="ytick_9">
     <g id="line2d_18">
      <g>
       <use xlink:href="#m5fb2639123" x="44.665" y="25.227414" style="stroke: #000000; stroke-width: 0.8"/>
      </g>
     </g>
     <g id="text_19">
      <!-- 20.0 -->
      <g transform="translate(10.94625 29.786476) scale(0.12 -0.12)">
       <use xlink:href="#DejaVuSans-32"/>
       <use xlink:href="#DejaVuSans-30" x="63.623047"/>
       <use xlink:href="#DejaVuSans-2e" x="127.246094"/>
       <use xlink:href="#DejaVuSans-30" x="159.033203"/>
      </g>
     </g>
    </g>
   </g>
   <g id="line2d_19">
    <path d="M 62.025682 289.412671 
L 66.365852 288.710142 
L 70.706023 287.959324 
L 75.046193 287.174563 
L 79.386364 286.351587 
L 83.726534 285.472442 
L 88.066705 284.555502 
L 92.406875 283.597845 
L 96.747045 282.579211 
L 101.087216 281.51855 
L 105.427386 280.414381 
L 109.767557 279.24295 
L 114.107727 278.027489 
L 118.447898 276.763643 
L 122.788068 275.428064 
L 127.128239 274.04736 
L 131.468409 272.6095 
L 135.80858 271.100758 
L 140.14875 269.544947 
L 144.48892 267.919481 
L 148.829091 266.228802 
L 153.169261 264.48909 
L 157.509432 262.663796 
L 161.849602 260.782593 
L 166.189773 258.836942 
L 170.529943 256.81464 
L 174.870114 254.735436 
L 179.210284 252.571313 
L 183.550455 250.345615 
L 187.890625 248.049483 
L 192.230795 245.671135 
L 196.570966 243.23556 
L 200.911136 240.705899 
L 205.251307 238.113016 
L 209.591477 235.441275 
L 213.931648 232.693059 
L 218.271818 229.875021 
L 222.611989 226.966079 
L 226.952159 223.993035 
L 231.29233 220.926548 
L 235.6325 217.790792 
L 239.97267 214.57032 
L 244.312841 211.273441 
L 248.653011 207.89599 
L 252.993182 204.434596 
L 257.333352 200.897776 
L 261.673523 197.271275 
L 266.013693 193.570755 
L 270.353864 189.777724 
L 274.694034 185.91135 
L 279.034205 181.954545 
L 283.374375 177.922575 
L 287.714545 173.799911 
L 292.054716 169.602736 
L 296.394886 165.312893 
L 300.735057 160.949767 
L 305.075227 156.491946 
L 309.415398 151.962347 
L 313.755568 147.336372 
L 318.095739 142.639891 
L 322.435909 137.845589 
L 326.77608 132.981641 
L 331.11625 128.019106 
L 335.45642 122.988046 
L 339.796591 117.857183 
L 344.136761 112.658627 
L 348.476932 107.35962 
L 352.817102 101.994427 
L 357.157273 96.527113 
L 361.497443 90.995088 
L 365.837614 85.359551 
L 370.177784 79.662027 
L 374.517955 73.858061 
L 378.858125 67.995069 
L 383.198295 62.022588 
L 387.538466 55.995875 
L 391.878636 49.85429 
L 396.218807 43.664605 
L 400.558977 37.35311 
L 404.899148 31.003173 
L 409.239318 24.52 
" clip-path="url(#p0e82e759e4)" style="fill: none; stroke: #0000ff; stroke-width: 1.5; stroke-linecap: square"/>
   </g>
   <g id="line2d_20">
    <path d="M 62.025682 289.974703 
L 66.365852 289.32069 
L 70.706023 288.63088 
L 75.046193 287.904124 
L 79.386364 287.139283 
L 83.726534 286.335224 
L 88.066705 285.490827 
L 92.406875 284.604985 
L 96.747045 283.676604 
L 101.087216 282.70461 
L 105.427386 281.687945 
L 109.767557 280.625573 
L 114.107727 279.51648 
L 118.447898 278.359678 
L 122.788068 277.154204 
L 127.128239 275.899122 
L 131.468409 274.593524 
L 135.80858 273.236537 
L 140.14875 271.827315 
L 144.48892 270.365048 
L 148.829091 268.848959 
L 153.169261 267.278309 
L 157.509432 265.652393 
L 161.849602 263.970543 
L 166.189773 262.232133 
L 170.529943 260.436571 
L 174.870114 258.583309 
L 179.210284 256.671836 
L 183.550455 254.701683 
L 187.890625 252.672422 
L 192.230795 250.583666 
L 196.570966 248.435069 
L 200.911136 246.226327 
L 205.251307 243.957176 
L 209.591477 241.627394 
L 213.931648 239.236802 
L 218.271818 236.785258 
L 222.611989 234.272663 
L 226.952159 231.698957 
L 231.29233 229.064121 
L 235.6325 226.368174 
L 239.97267 223.611172 
L 244.312841 220.793212 
L 248.653011 217.914424 
L 252.993182 214.974976 
L 257.333352 211.975073 
L 261.673523 208.914952 
L 266.013693 205.794884 
L 270.353864 202.615173 
L 274.694034 199.376155 
L 279.034205 196.078195 
L 283.374375 192.721688 
L 287.714545 189.307059 
L 292.054716 185.834758 
L 296.394886 182.305262 
L 300.735057 178.719074 
L 305.075227 175.076719 
L 309.415398 171.378746 
L 313.755568 167.625726 
L 318.095739 163.81825 
L 322.435909 159.956926 
L 326.77608 156.042384 
L 331.11625 152.075268 
L 335.45642 148.05624 
L 339.796591 143.985974 
L 344.136761 139.865161 
L 348.476932 135.694502 
L 352.817102 131.47471 
L 357.157273 127.206509 
L 361.497443 122.890631 
L 365.837614 118.527819 
L 370.177784 114.118819 
L 374.517955 109.664387 
L 378.858125 105.165284 
L 383.198295 100.622273 
L 387.538466 96.036123 
L 391.878636 91.407605 
L 396.218807 86.737491 
L 400.558977 82.026555 
L 404.899148 77.275572 
L 409.239318 72.485313 
" clip-path="url(#p0e82e759e4)" style="fill: none; stroke-dasharray: 5.55,2.4; stroke-dashoffset: 0; stroke: #ff0000; stroke-width: 1.5"/>
   </g>
   <g id="line2d_21">
    <path d="M 62.025682 298.92 
L 66.365852 298.92 
L 70.706023 298.92 
L 75.046193 298.92 
L 79.386364 298.92 
L 83.726534 298.92 
L 88.066705 298.92 
L 92.406875 298.92 
L 96.747045 298.92 
L 101.087216 298.92 
L 105.427386 298.92 
L 109.767557 298.92 
L 114.107727 298.92 
L 118.447898 298.92 
L 122.788068 298.92 
L 127.128239 298.92 
L 131.468409 298.92 
L 135.80858 298.92 
L 140.14875 298.92 
L 144.48892 298.92 
L 148.829091 298.92 
L 153.169261 298.92 
L 157.509432 298.92 
L 161.849602 298.92 
L 166.189773 298.92 
L 170.529943 298.92 
L 174.870114 298.92 
L 179.210284 298.92 
L 183.550455 298.92 
L 187.890625 298.92 
L 192.230795 298.92 
L 196.570966 298.92 
L 200.911136 298.92 
L 205.251307 298.92 
L 209.591477 298.92 
L 213.931648 298.92 
L 218.271818 298.92 
L 222.611989 298.92 
L 226.952159 298.92 
L 231.29233 298.92 
L 235.6325 298.92 
L 239.97267 292.077685 
L 244.312841 285.235371 
L 248.653011 278.393056 
L 252.993182 271.550741 
L 257.333352 264.708427 
L 261.673523 257.866112 
L 266.013693 251.023797 
L 270.353864 244.181483 
L 274.694034 237.339168 
L 279.034205 230.496853 
L 283.374375 223.654539 
L 287.714545 216.812224 
L 292.054716 209.969909 
L 296.394886 203.127595 
L 300.735057 196.28528 
L 305.075227 189.442965 
L 309.415398 182.600651 
L 313.755568 175.758336 
L 318.095739 168.916021 
L 322.435909 162.073707 
L 326.77608 155.231392 
L 331.11625 148.389077 
L 335.45642 141.546763 
L 339.796591 134.704448 
L 344.136761 127.862134 
L 348.476932 121.019819 
L 352.817102 114.177504 
L 357.157273 107.33519 
L 361.497443 100.492875 
L 365.837614 93.65056 
L 370.177784 86.808246 
L 374.517955 79.965931 
L 378.858125 73.123616 
L 383.198295 66.281302 
L 387.538466 59.438987 
L 391.878636 52.596672 
L 396.218807 45.754358 
L 400.558977 38.912043 
L 404.899148 32.069728 
L 409.239318 25.227414 
" clip-path="url(#p0e82e759e4)" style="fill: none; stroke-dasharray: 1.5,2.475; stroke-dashoffset: 0; stroke: #000000; stroke-width: 1.5"/>
   </g>
   <g id="patch_3">
    <path d="M 44.665 312.64 
L 44.665 10.8 
" style="fill: none; stroke: #000000; stroke-width: 0.8; stroke-linejoin: miter; stroke-linecap: square"/>
   </g>
   <g id="patch_4">
    <path d="M 426.6 312.64 
L 426.6 10.8 
" style="fill: none; stroke: #000000; stroke-width: 0.8; stroke-linejoin: miter; stroke-linecap: square"/>
   </g>
   <g id="patch_5">
    <path d="M 44.665 312.64 
L 426.6 312.64 
" style="fill: none; stroke: #000000; stroke-width: 0.8; stroke-linejoin: miter; stroke-linecap: square"/>
   </g>
   <g id="patch_6">
    <path d="M 44.665 10.8 
L 426.6 10.8 
" style="fill: none; stroke: #000000; stroke-width: 0.8; stroke-linejoin: miter; stroke-linecap: square"/>
   </g>
   <g id="legend_1">
    <g id="patch_7">
     <path d="M 53.065 55.6275 
L 174.833125 55.6275 
Q 177.233125 55.6275 177.233125 53.2275 
L 177.233125 19.2 
Q 177.233125 16.8 174.833125 16.8 
L 53.065 16.8 
Q 50.665 16.8 50.665 19.2 
L 50.665 53.2275 
Q 50.665 55.6275 53.065 55.6275 
z
" style="fill: #ffffff; opacity: 0.8; stroke: #cccccc; stroke-linejoin: miter"/>
    </g>
    <g id="line2d_22">
     <path d="M 55.465 26.518125 
L 67.465 26.518125 
L 79.465 26.518125 
" style="fill: none; stroke: #0000ff; stroke-width: 1.5; stroke-linecap: square"/>
    </g>
    <g id="text_20">
     <!-- American Call -->
     <g transform="translate(89.065 30.718125) scale(0.12 -0.12)">
      <defs>
       <path id="DejaVuSans-41" d="M 2188 4044 
L 1331 1722 
L 3047 1722 
L 2188 4044 
z
M 1831 4666 
L 2547 4666 
L 4325 0 
L 3669 0 
L 3244 1197 
L 1141 1197 
L 716 0 
L 50 0 
L 1831 4666 
z
" transform="scale(0.015625)"/>
       <path id="DejaVuSans-6d" d="M 3328 2828 
Q 3544 3216 3844 3400 
Q 4144 3584 4550 3584 
Q 5097 3584 5394 3201 
Q 5691 2819 5691 2113 
L 5691 0 
L 5113 0 
L 5113 2094 
Q 5113 2597 4934 2840 
Q 4756 3084 4391 3084 
Q 3944 3084 3684 2787 
Q 3425 2491 3425 1978 
L 3425 0 
L 2847 0 
L 2847 2094 
Q 2847 2600 2669 2842 
Q 2491 3084 2119 3084 
Q 1678 3084 1418 2786 
Q 1159 2488 1159 1978 
L 1159 0 
L 581 0 
L 581 3500 
L 1159 3500 
L 1159 2956 
Q 1356 3278 1631 3431 
Q 1906 3584 2284 3584 
Q 2666 3584 2933 3390 
Q 3200 3197 3328 2828 
z
" transform="scale(0.015625)"/>
       <path id="DejaVuSans-65" d="M 3597 1894 
L 3597 1613 
L 953 1613 
Q 991 1019 1311 708 
Q 1631 397 2203 397 
Q 2534 397 2845 478 
Q 3156 559 3463 722 
L 3463 178 
Q 3153 47 2828 -22 
Q 2503 -91 2169 -91 
Q 1331 -91 842 396 
Q 353 884 353 1716 
Q 353 2575 817 3079 
Q 1281 3584 2069 3584 
Q 2775 3584 3186 3129 
Q 3597 2675 3597 1894 
z
M 3022 2063 
Q 3016 2534 2758 2815 
Q 2500 3097 2075 3097 
Q 1594 3097 1305 2825 
Q 1016 2553 972 2059 
L 3022 2063 
z
" transform="scale(0.015625)"/>
       <path id="DejaVuSans-72" d="M 2631 2963 
Q 2534 3019 2420 3045 
Q 2306 3072 2169 3072 
Q 1681 3072 1420 2755 
Q 1159 2438 1159 1844 
L 1159 0 
L 581 0 
L 581 3500 
L 1159 3500 
L 1159 2956 
Q 1341 3275 1631 3429 
Q 1922 3584 2338 3584 
Q 2397 3584 2469 3576 
Q 2541 3569 2628 3553 
L 2631 2963 
z
" transform="scale(0.015625)"/>
       <path id="DejaVuSans-69" d="M 603 3500 
L 1178 3500 
L 1178 0 
L 603 0 
L 603 3500 
z
M 603 4863 
L 1178 4863 
L 1178 4134 
L 603 4134 
L 603 4863 
z
" transform="scale(0.015625)"/>
       <path id="DejaVuSans-63" d="M 3122 3366 
L 3122 2828 
Q 2878 2963 2633 3030 
Q 2388 3097 2138 3097 
Q 1578 3097 1268 2742 
Q 959 2388 959 1747 
Q 959 1106 1268 751 
Q 1578 397 2138 397 
Q 2388 397 2633 464 
Q 2878 531 3122 666 
L 3122 134 
Q 2881 22 2623 -34 
Q 2366 -91 2075 -91 
Q 1284 -91 818 406 
Q 353 903 353 1747 
Q 353 2603 823 3093 
Q 1294 3584 2113 3584 
Q 2378 3584 2631 3529 
Q 2884 3475 3122 3366 
z
" transform="scale(0.015625)"/>
       <path id="DejaVuSans-61" d="M 2194 1759 
Q 1497 1759 1228 1600 
Q 959 1441 959 1056 
Q 959 750 1161 570 
Q 1363 391 1709 391 
Q 2188 391 2477 730 
Q 2766 1069 2766 1631 
L 2766 1759 
L 2194 1759 
z
M 3341 1997 
L 3341 0 
L 2766 0 
L 2766 531 
Q 2569 213 2275 61 
Q 1981 -91 1556 -91 
Q 1019 -91 701 211 
Q 384 513 384 1019 
Q 384 1609 779 1909 
Q 1175 2209 1959 2209 
L 2766 2209 
L 2766 2266 
Q 2766 2663 2505 2880 
Q 2244 3097 1772 3097 
Q 1472 3097 1187 3025 
Q 903 2953 641 2809 
L 641 3341 
Q 956 3463 1253 3523 
Q 1550 3584 1831 3584 
Q 2591 3584 2966 3190 
Q 3341 2797 3341 1997 
z
" transform="scale(0.015625)"/>
       <path id="DejaVuSans-6e" d="M 3513 2113 
L 3513 0 
L 2938 0 
L 2938 2094 
Q 2938 2591 2744 2837 
Q 2550 3084 2163 3084 
Q 1697 3084 1428 2787 
Q 1159 2491 1159 1978 
L 1159 0 
L 581 0 
L 581 3500 
L 1159 3500 
L 1159 2956 
Q 1366 3272 1645 3428 
Q 1925 3584 2291 3584 
Q 2894 3584 3203 3211 
Q 3513 2838 3513 2113 
z
" transform="scale(0.015625)"/>
       <path id="DejaVuSans-20" transform="scale(0.015625)"/>
       <path id="DejaVuSans-43" d="M 4122 4306 
L 4122 3641 
Q 3803 3938 3442 4084 
Q 3081 4231 2675 4231 
Q 1875 4231 1450 3742 
Q 1025 3253 1025 2328 
Q 1025 1406 1450 917 
Q 1875 428 2675 428 
Q 3081 428 3442 575 
Q 3803 722 4122 1019 
L 4122 359 
Q 3791 134 3420 21 
Q 3050 -91 2638 -91 
Q 1578 -91 968 557 
Q 359 1206 359 2328 
Q 359 3453 968 4101 
Q 1578 4750 2638 4750 
Q 3056 4750 3426 4639 
Q 3797 4528 4122 4306 
z
" transform="scale(0.015625)"/>
       <path id="DejaVuSans-6c" d="M 603 4863 
L 1178 4863 
L 1178 0 
L 603 0 
L 603 4863 
z
" transform="scale(0.015625)"/>
      </defs>
      <use xlink:href="#DejaVuSans-41"/>
      <use xlink:href="#DejaVuSans-6d" x="68.408203"/>
      <use xlink:href="#DejaVuSans-65" x="165.820312"/>
      <use xlink:href="#DejaVuSans-72" x="227.34375"/>
      <use xlink:href="#DejaVuSans-69" x="268.457031"/>
      <use xlink:href="#DejaVuSans-63" x="296.240234"/>
      <use xlink:href="#DejaVuSans-61" x="351.220703"/>
      <use xlink:href="#DejaVuSans-6e" x="412.5"/>
      <use xlink:href="#DejaVuSans-20" x="475.878906"/>
      <use xlink:href="#DejaVuSans-43" x="507.666016"/>
      <use xlink:href="#DejaVuSans-61" x="577.490234"/>
      <use xlink:href="#DejaVuSans-6c" x="638.769531"/>
      <use xlink:href="#DejaVuSans-6c" x="666.552734"/>
     </g>
    </g>
    <g id="line2d_23">
     <path d="M 55.465 44.131875 
L 67.465 44.131875 
L 79.465 44.131875 
" style="fill: none; stroke-dasharray: 5.55,2.4; stroke-dashoffset: 0; stroke: #ff0000; stroke-width: 1.5"/>
    </g>
    <g id="text_21">
     <!-- European Call -->
     <g transform="translate(89.065 48.331875) scale(0.12 -0.12)">
      <defs>
       <path id="DejaVuSans-45" d="M 628 4666 
L 3578 4666 
L 3578 4134 
L 1259 4134 
L 1259 2753 
L 3481 2753 
L 3481 2222 
L 1259 2222 
L 1259 531 
L 3634 531 
L 3634 0 
L 628 0 
L 628 4666 
z
" transform="scale(0.015625)"/>
       <path id="DejaVuSans-75" d="M 544 1381 
L 544 3500 
L 1119 3500 
L 1119 1403 
Q 1119 906 1312 657 
Q 1506 409 1894 409 
Q 2359 409 2629 706 
Q 2900 1003 2900 1516 
L 2900 3500 
L 3475 3500 
L 3475 0 
L 2900 0 
L 2900 538 
Q 2691 219 2414 64 
Q 2138 -91 1772 -91 
Q 1169 -91 856 284 
Q 544 659 544 1381 
z
M 1991 3584 
L 1991 3584 
z
" transform="scale(0.015625)"/>
       <path id="DejaVuSans-6f" d="M 1959 3097 
Q 1497 3097 1228 2736 
Q 959 2375 959 1747 
Q 959 1119 1226 758 
Q 1494 397 1959 397 
Q 2419 397 2687 759 
Q 2956 1122 2956 1747 
Q 2956 2369 2687 2733 
Q 2419 3097 1959 3097 
z
M 1959 3584 
Q 2709 3584 3137 3096 
Q 3566 2609 3566 1747 
Q 3566 888 3137 398 
Q 2709 -91 1959 -91 
Q 1206 -91 779 398 
Q 353 888 353 1747 
Q 353 2609 779 3096 
Q 1206 3584 1959 3584 
z
" transform="scale(0.015625)"/>
       <path id="DejaVuSans-70" d="M 1159 525 
L 1159 -1331 
L 581 -1331 
L 581 3500 
L 1159 3500 
L 1159 2969 
Q 1341 3281 1617 3432 
Q 1894 3584 2278 3584 
Q 2916 3584 3314 3078 
Q 3713 2572 3713 1747 
Q 3713 922 3314 415 
Q 2916 -91 2278 -91 
Q 1894 -91 1617 61 
Q 1341 213 1159 525 
z
M 3116 1747 
Q 3116 2381 2855 2742 
Q 2594 3103 2138 3103 
Q 1681 3103 1420 2742 
Q 1159 2381 1159 1747 
Q 1159 1113 1420 752 
Q 1681 391 2138 391 
Q 2594 391 2855 752 
Q 3116 1113 3116 1747 
z
" transform="scale(0.015625)"/>
      </defs>
      <use xlink:href="#DejaVuSans-45"/>
      <use xlink:href="#DejaVuSans-75" x="63.183594"/>
      <use xlink:href="#DejaVuSans-72" x="126.5625"/>
      <use xlink:href="#DejaVuSans-6f" x="165.425781"/>
      <use xlink:href="#DejaVuSans-70" x="226.607422"/>
      <use xlink:href="#DejaVuSans-65" x="290.083984"/>
      <use xlink:href="#DejaVuSans-61" x="351.607422"/>
      <use xlink:href="#DejaVuSans-6e" x="412.886719"/>
      <use xlink:href="#DejaVuSans-20" x="476.265625"/>
      <use xlink:href="#DejaVuSans-43" x="508.052734"/>
      <use xlink:href="#DejaVuSans-61" x="577.876953"/>
      <use xlink:href="#DejaVuSans-6c" x="639.15625"/>
      <use xlink:href="#DejaVuSans-6c" x="666.939453"/>
     </g>
    </g>
   </g>
  </g>
  <g id="axes_2">
   <g id="patch_8">
    <path d="M 471.265 312.64 
L 853.2 312.64 
L 853.2 10.8 
L 471.265 10.8 
z
" style="fill: #ffffff"/>
   </g>
   <g id="matplotlib.axis_3">
    <g id="xtick_10">
     <g id="line2d_24">
      <g>
       <use xlink:href="#m4610e7a0a0" x="488.625682" y="312.64" style="stroke: #000000; stroke-width: 0.8"/>
      </g>
     </g>
     <g id="text_22">
      <!-- 80 -->
      <g transform="translate(480.990682 328.758125) scale(0.12 -0.12)">
       <use xlink:href="#DejaVuSans-38"/>
       <use xlink:href="#DejaVuSans-30" x="63.623047"/>
      </g>
     </g>
    </g>
    <g id="xtick_11">
     <g id="line2d_25">
      <g>
       <use xlink:href="#m4610e7a0a0" x="532.027386" y="312.64" style="stroke: #000000; stroke-width: 0.8"/>
      </g>
     </g>
     <g id="text_23">
      <!-- 85 -->
      <g transform="translate(524.392386 328.758125) scale(0.12 -0.12)">
       <use xlink:href="#DejaVuSans-38"/>
       <use xlink:href="#DejaVuSans-35" x="63.623047"/>
      </g>
     </g>
    </g>
    <g id="xtick_12">
     <g id="line2d_26">
      <g>
       <use xlink:href="#m4610e7a0a0" x="575.429091" y="312.64" style="stroke: #000000; stroke-width: 0.8"/>
      </g>
     </g>
     <g id="text_24">
      <!-- 90 -->
      <g transform="translate(567.794091 328.758125) scale(0.12 -0.12)">
       <use xlink:href="#DejaVuSans-39"/>
       <use xlink:href="#DejaVuSans-30" x="63.623047"/>
      </g>
     </g>
    </g>
    <g id="xtick_13">
     <g id="line2d_27">
      <g>
       <use xlink:href="#m4610e7a0a0" x="618.830795" y="312.64" style="stroke: #000000; stroke-width: 0.8"/>
      </g>
     </g>
     <g id="text_25">
      <!-- 95 -->
      <g transform="translate(611.195795 328.758125) scale(0.12 -0.12)">
       <use xlink:href="#DejaVuSans-39"/>
       <use xlink:href="#DejaVuSans-35" x="63.623047"/>
      </g>
     </g>
    </g>
    <g id="xtick_14">
     <g id="line2d_28">
      <g>
       <use xlink:href="#m4610e7a0a0" x="662.2325" y="312.64" style="stroke: #000000; stroke-width: 0.8"/>
      </g>
     </g>
     <g id="text_26">
      <!-- 100 -->
      <g transform="translate(650.78 328.758125) scale(0.12 -0.12)">
       <use xlink:href="#DejaVuSans-31"/>
       <use xlink:href="#DejaVuSans-30" x="63.623047"/>
       <use xlink:href="#DejaVuSans-30" x="127.246094"/>
      </g>
     </g>
    </g>
    <g id="xtick_15">
     <g id="line2d_29">
      <g>
       <use xlink:href="#m4610e7a0a0" x="705.634205" y="312.64" style="stroke: #000000; stroke-width: 0.8"/>
      </g>
     </g>
     <g id="text_27">
      <!-- 105 -->
      <g transform="translate(694.181705 328.758125) scale(0.12 -0.12)">
       <use xlink:href="#DejaVuSans-31"/>
       <use xlink:href="#DejaVuSans-30" x="63.623047"/>
       <use xlink:href="#DejaVuSans-35" x="127.246094"/>
      </g>
     </g>
    </g>
    <g id="xtick_16">
     <g id="line2d_30">
      <g>
       <use xlink:href="#m4610e7a0a0" x="749.035909" y="312.64" style="stroke: #000000; stroke-width: 0.8"/>
      </g>
     </g>
     <g id="text_28">
      <!-- 110 -->
      <g transform="translate(737.583409 328.758125) scale(0.12 -0.12)">
       <use xlink:href="#DejaVuSans-31"/>
       <use xlink:href="#DejaVuSans-31" x="63.623047"/>
       <use xlink:href="#DejaVuSans-30" x="127.246094"/>
      </g>
     </g>
    </g>
    <g id="xtick_17">
     <g id="line2d_31">
      <g>
       <use xlink:href="#m4610e7a0a0" x="792.437614" y="312.64" style="stroke: #000000; stroke-width: 0.8"/>
      </g>
     </g>
     <g id="text_29">
      <!-- 115 -->
      <g transform="translate(780.985114 328.758125) scale(0.12 -0.12)">
       <use xlink:href="#DejaVuSans-31"/>
       <use xlink:href="#DejaVuSans-31" x="63.623047"/>
       <use xlink:href="#DejaVuSans-35" x="127.246094"/>
      </g>
     </g>
    </g>
    <g id="xtick_18">
     <g id="line2d_32">
      <g>
       <use xlink:href="#m4610e7a0a0" x="835.839318" y="312.64" style="stroke: #000000; stroke-width: 0.8"/>
      </g>
     </g>
     <g id="text_30">
      <!-- 120 -->
      <g transform="translate(824.386818 328.758125) scale(0.12 -0.12)">
       <use xlink:href="#DejaVuSans-31"/>
       <use xlink:href="#DejaVuSans-32" x="63.623047"/>
       <use xlink:href="#DejaVuSans-30" x="127.246094"/>
      </g>
     </g>
    </g>
    <g id="text_31">
     <!-- $S$ -->
     <g transform="translate(657.7525 345.891563) scale(0.14 -0.14)">
      <use xlink:href="#DejaVuSans-Oblique-53" transform="translate(0 0.78125)"/>
     </g>
    </g>
   </g>
   <g id="matplotlib.axis_4">
    <g id="ytick_10">
     <g id="line2d_33">
      <g>
       <use xlink:href="#m5fb2639123" x="471.265" y="298.92" style="stroke: #000000; stroke-width: 0.8"/>
      </g>
     </g>
     <g id="text_32">
      <!-- 0.0 -->
      <g transform="translate(445.18125 303.479062) scale(0.12 -0.12)">
       <use xlink:href="#DejaVuSans-30"/>
       <use xlink:href="#DejaVuSans-2e" x="63.623047"/>
       <use xlink:href="#DejaVuSans-30" x="95.410156"/>
      </g>
     </g>
    </g>
    <g id="ytick_11">
     <g id="line2d_34">
      <g>
       <use xlink:href="#m5fb2639123" x="471.265" y="264.62" style="stroke: #000000; stroke-width: 0.8"/>
      </g>
     </g>
     <g id="text_33">
      <!-- 2.5 -->
      <g transform="translate(445.18125 269.179062) scale(0.12 -0.12)">
       <use xlink:href="#DejaVuSans-32"/>
       <use xlink:href="#DejaVuSans-2e" x="63.623047"/>
       <use xlink:href="#DejaVuSans-35" x="95.410156"/>
      </g>
     </g>
    </g>
    <g id="ytick_12">
     <g id="line2d_35">
      <g>
       <use xlink:href="#m5fb2639123" x="471.265" y="230.32" style="stroke: #000000; stroke-width: 0.8"/>
      </g>
     </g>
     <g id="text_34">
      <!-- 5.0 -->
      <g transform="translate(445.18125 234.879063) scale(0.12 -0.12)">
       <use xlink:href="#DejaVuSans-35"/>
       <use xlink:href="#DejaVuSans-2e" x="63.623047"/>
       <use xlink:href="#DejaVuSans-30" x="95.410156"/>
      </g>
     </g>
    </g>
    <g id="ytick_13">
     <g id="line2d_36">
      <g>
       <use xlink:href="#m5fb2639123" x="471.265" y="196.02" style="stroke: #000000; stroke-width: 0.8"/>
      </g>
     </g>
     <g id="text_35">
      <!-- 7.5 -->
      <g transform="translate(445.18125 200.579063) scale(0.12 -0.12)">
       <use xlink:href="#DejaVuSans-37"/>
       <use xlink:href="#DejaVuSans-2e" x="63.623047"/>
       <use xlink:href="#DejaVuSans-35" x="95.410156"/>
      </g>
     </g>
    </g>
    <g id="ytick_14">
     <g id="line2d_37">
      <g>
       <use xlink:href="#m5fb2639123" x="471.265" y="161.72" style="stroke: #000000; stroke-width: 0.8"/>
      </g>
     </g>
     <g id="text_36">
      <!-- 10.0 -->
      <g transform="translate(437.54625 166.279063) scale(0.12 -0.12)">
       <use xlink:href="#DejaVuSans-31"/>
       <use xlink:href="#DejaVuSans-30" x="63.623047"/>
       <use xlink:href="#DejaVuSans-2e" x="127.246094"/>
       <use xlink:href="#DejaVuSans-30" x="159.033203"/>
      </g>
     </g>
    </g>
    <g id="ytick_15">
     <g id="line2d_38">
      <g>
       <use xlink:href="#m5fb2639123" x="471.265" y="127.42" style="stroke: #000000; stroke-width: 0.8"/>
      </g>
     </g>
     <g id="text_37">
      <!-- 12.5 -->
      <g transform="translate(437.54625 131.979063) scale(0.12 -0.12)">
       <use xlink:href="#DejaVuSans-31"/>
       <use xlink:href="#DejaVuSans-32" x="63.623047"/>
       <use xlink:href="#DejaVuSans-2e" x="127.246094"/>
       <use xlink:href="#DejaVuSans-35" x="159.033203"/>
      </g>
     </g>
    </g>
    <g id="ytick_16">
     <g id="line2d_39">
      <g>
       <use xlink:href="#m5fb2639123" x="471.265" y="93.12" style="stroke: #000000; stroke-width: 0.8"/>
      </g>
     </g>
     <g id="text_38">
      <!-- 15.0 -->
      <g transform="translate(437.54625 97.679062) scale(0.12 -0.12)">
       <use xlink:href="#DejaVuSans-31"/>
       <use xlink:href="#DejaVuSans-35" x="63.623047"/>
       <use xlink:href="#DejaVuSans-2e" x="127.246094"/>
       <use xlink:href="#DejaVuSans-30" x="159.033203"/>
      </g>
     </g>
    </g>
    <g id="ytick_17">
     <g id="line2d_40">
      <g>
       <use xlink:href="#m5fb2639123" x="471.265" y="58.82" style="stroke: #000000; stroke-width: 0.8"/>
      </g>
     </g>
     <g id="text_39">
      <!-- 17.5 -->
      <g transform="translate(437.54625 63.379063) scale(0.12 -0.12)">
       <use xlink:href="#DejaVuSans-31"/>
       <use xlink:href="#DejaVuSans-37" x="63.623047"/>
       <use xlink:href="#DejaVuSans-2e" x="127.246094"/>
       <use xlink:href="#DejaVuSans-35" x="159.033203"/>
      </g>
     </g>
    </g>
    <g id="ytick_18">
     <g id="line2d_41">
      <g>
       <use xlink:href="#m5fb2639123" x="471.265" y="24.52" style="stroke: #000000; stroke-width: 0.8"/>
      </g>
     </g>
     <g id="text_40">
      <!-- 20.0 -->
      <g transform="translate(437.54625 29.079063) scale(0.12 -0.12)">
       <use xlink:href="#DejaVuSans-32"/>
       <use xlink:href="#DejaVuSans-30" x="63.623047"/>
       <use xlink:href="#DejaVuSans-2e" x="127.246094"/>
       <use xlink:href="#DejaVuSans-30" x="159.033203"/>
      </g>
     </g>
    </g>
   </g>
   <g id="line2d_42">
    <path d="M 488.625682 24.52 
L 492.965852 31.38 
L 497.306023 38.24 
L 501.646193 45.001462 
L 505.986364 51.65399 
L 510.326534 58.138264 
L 514.666705 64.516061 
L 519.006875 70.782157 
L 523.347045 76.895937 
L 527.687216 82.902967 
L 532.027386 88.795603 
L 536.367557 94.549353 
L 540.707727 100.197024 
L 545.047898 105.72824 
L 549.388068 111.13331 
L 553.728239 116.432298 
L 558.068409 121.616953 
L 562.40858 126.681978 
L 566.74875 131.643098 
L 571.08892 136.493471 
L 575.429091 141.229686 
L 579.769261 145.865558 
L 584.109432 150.390941 
L 588.449602 154.812112 
L 592.789773 159.138905 
L 597.129943 163.347643 
L 601.470114 167.467377 
L 605.810284 171.485962 
L 610.150455 175.401538 
L 614.490625 179.235839 
L 618.830795 182.953796 
L 623.170966 186.593603 
L 627.511136 190.135239 
L 631.851307 193.585299 
L 636.191477 196.957808 
L 640.531648 200.223027 
L 644.871818 203.422972 
L 649.211989 206.518426 
L 653.552159 209.544282 
L 657.89233 212.483152 
L 662.2325 215.339899 
L 666.57267 218.128223 
L 670.912841 220.822439 
L 675.253011 223.46393 
L 679.593182 226.002598 
L 683.933352 228.49359 
L 688.273523 230.893189 
L 692.613693 233.23744 
L 696.953864 235.503988 
L 701.294034 237.709269 
L 705.634205 239.848282 
L 709.974375 241.91867 
L 714.314545 243.935159 
L 718.654716 245.879207 
L 722.994886 247.778228 
L 727.335057 249.599455 
L 731.675227 251.385718 
L 736.015398 253.093338 
L 740.355568 254.771471 
L 744.695739 256.368455 
L 749.035909 257.942559 
L 753.37608 259.438709 
L 757.71625 260.911702 
L 762.05642 262.310938 
L 766.396591 263.690707 
L 770.736761 264.99894 
L 775.076932 266.287712 
L 779.417102 267.50868 
L 783.757273 268.714105 
L 788.097443 269.853709 
L 792.437614 270.977853 
L 796.777784 272.039152 
L 801.117955 273.085718 
L 805.458125 274.078194 
L 809.798295 275.051369 
L 814.138466 275.975099 
L 818.478636 276.878619 
L 822.818807 277.742565 
L 827.158977 278.580368 
L 831.499148 279.384023 
L 835.839318 280.15974 
" clip-path="url(#p438d57990f)" style="fill: none; stroke: #0000ff; stroke-width: 1.5; stroke-linecap: square"/>
   </g>
   <g id="line2d_43">
    <path d="M 488.625682 65.921993 
L 492.965852 71.227525 
L 497.306023 76.468167 
L 501.646193 81.642868 
L 505.986364 86.750629 
L 510.326534 91.790507 
L 514.666705 96.761616 
L 519.006875 101.663126 
L 523.347045 106.494267 
L 527.687216 111.254327 
L 532.027386 115.942657 
L 536.367557 120.558668 
L 540.707727 125.101831 
L 545.047898 129.571681 
L 549.388068 133.967813 
L 553.728239 138.289886 
L 558.068409 142.537618 
L 562.40858 146.710791 
L 566.74875 150.809245 
L 571.08892 154.832882 
L 575.429091 158.781663 
L 579.769261 162.655607 
L 584.109432 166.45479 
L 588.449602 170.179346 
L 592.789773 173.829464 
L 597.129943 177.405383 
L 601.470114 180.9074 
L 605.810284 184.335858 
L 610.150455 187.691152 
L 614.490625 190.973725 
L 618.830795 194.184063 
L 623.170966 197.3227 
L 627.511136 200.39021 
L 631.851307 203.387208 
L 636.191477 206.314349 
L 640.531648 209.172323 
L 644.871818 211.961856 
L 649.211989 214.683708 
L 653.552159 217.338669 
L 657.89233 219.927558 
L 662.2325 222.451223 
L 666.57267 224.910536 
L 670.912841 227.306394 
L 675.253011 229.639714 
L 679.593182 231.911435 
L 683.933352 234.122512 
L 688.273523 236.273918 
L 692.613693 238.36664 
L 696.953864 240.401678 
L 701.294034 242.380043 
L 705.634205 244.302756 
L 709.974375 246.170846 
L 714.314545 247.985348 
L 718.654716 249.747303 
L 722.994886 251.457756 
L 727.335057 253.117752 
L 731.675227 254.728339 
L 736.015398 256.290563 
L 740.355568 257.805471 
L 744.695739 259.274105 
L 749.035909 260.697504 
L 753.37608 262.076702 
L 757.71625 263.412726 
L 762.05642 264.706599 
L 766.396591 265.959333 
L 770.736761 267.171933 
L 775.076932 268.345394 
L 779.417102 269.480703 
L 783.757273 270.578833 
L 788.097443 271.640748 
L 792.437614 272.667398 
L 796.777784 273.659721 
L 801.117955 274.618644 
L 805.458125 275.545076 
L 809.798295 276.439917 
L 814.138466 277.304049 
L 818.478636 278.138341 
L 822.818807 278.943646 
L 827.158977 279.720803 
L 831.499148 280.470634 
L 835.839318 281.193947 
" clip-path="url(#p438d57990f)" style="fill: none; stroke-dasharray: 5.55,2.4; stroke-dashoffset: 0; stroke: #ff0000; stroke-width: 1.5"/>
   </g>
   <g id="line2d_44">
    <path d="M 488.625682 24.52 
L 492.965852 31.38 
L 497.306023 38.24 
L 501.646193 45.1 
L 505.986364 51.96 
L 510.326534 58.82 
L 514.666705 65.68 
L 519.006875 72.54 
L 523.347045 79.4 
L 527.687216 86.26 
L 532.027386 93.12 
L 536.367557 99.98 
L 540.707727 106.84 
L 545.047898 113.7 
L 549.388068 120.56 
L 553.728239 127.42 
L 558.068409 134.28 
L 562.40858 141.14 
L 566.74875 148 
L 571.08892 154.86 
L 575.429091 161.72 
L 579.769261 168.58 
L 584.109432 175.44 
L 588.449602 182.3 
L 592.789773 189.16 
L 597.129943 196.02 
L 601.470114 202.88 
L 605.810284 209.74 
L 610.150455 216.6 
L 614.490625 223.46 
L 618.830795 230.32 
L 623.170966 237.18 
L 627.511136 244.04 
L 631.851307 250.9 
L 636.191477 257.76 
L 640.531648 264.62 
L 644.871818 271.48 
L 649.211989 278.34 
L 653.552159 285.2 
L 657.89233 292.06 
L 662.2325 298.92 
L 666.57267 298.92 
L 670.912841 298.92 
L 675.253011 298.92 
L 679.593182 298.92 
L 683.933352 298.92 
L 688.273523 298.92 
L 692.613693 298.92 
L 696.953864 298.92 
L 701.294034 298.92 
L 705.634205 298.92 
L 709.974375 298.92 
L 714.314545 298.92 
L 718.654716 298.92 
L 722.994886 298.92 
L 727.335057 298.92 
L 731.675227 298.92 
L 736.015398 298.92 
L 740.355568 298.92 
L 744.695739 298.92 
L 749.035909 298.92 
L 753.37608 298.92 
L 757.71625 298.92 
L 762.05642 298.92 
L 766.396591 298.92 
L 770.736761 298.92 
L 775.076932 298.92 
L 779.417102 298.92 
L 783.757273 298.92 
L 788.097443 298.92 
L 792.437614 298.92 
L 796.777784 298.92 
L 801.117955 298.92 
L 805.458125 298.92 
L 809.798295 298.92 
L 814.138466 298.92 
L 818.478636 298.92 
L 822.818807 298.92 
L 827.158977 298.92 
L 831.499148 298.92 
L 835.839318 298.92 
" clip-path="url(#p438d57990f)" style="fill: none; stroke-dasharray: 1.5,2.475; stroke-dashoffset: 0; stroke: #000000; stroke-width: 1.5"/>
   </g>
   <g id="patch_9">
    <path d="M 471.265 312.64 
L 471.265 10.8 
" style="fill: none; stroke: #000000; stroke-width: 0.8; stroke-linejoin: miter; stroke-linecap: square"/>
   </g>
   <g id="patch_10">
    <path d="M 853.2 312.64 
L 853.2 10.8 
" style="fill: none; stroke: #000000; stroke-width: 0.8; stroke-linejoin: miter; stroke-linecap: square"/>
   </g>
   <g id="patch_11">
    <path d="M 471.265 312.64 
L 853.2 312.64 
" style="fill: none; stroke: #000000; stroke-width: 0.8; stroke-linejoin: miter; stroke-linecap: square"/>
   </g>
   <g id="patch_12">
    <path d="M 471.265 10.8 
L 853.2 10.8 
" style="fill: none; stroke: #000000; stroke-width: 0.8; stroke-linejoin: miter; stroke-linecap: square"/>
   </g>
   <g id="legend_2">
    <g id="patch_13">
     <path d="M 726.0975 55.6275 
L 844.8 55.6275 
Q 847.2 55.6275 847.2 53.2275 
L 847.2 19.2 
Q 847.2 16.8 844.8 16.8 
L 726.0975 16.8 
Q 723.6975 16.8 723.6975 19.2 
L 723.6975 53.2275 
Q 723.6975 55.6275 726.0975 55.6275 
z
" style="fill: #ffffff; opacity: 0.8; stroke: #cccccc; stroke-linejoin: miter"/>
    </g>
    <g id="line2d_45">
     <path d="M 728.4975 26.518125 
L 740.4975 26.518125 
L 752.4975 26.518125 
" style="fill: none; stroke: #0000ff; stroke-width: 1.5; stroke-linecap: square"/>
    </g>
    <g id="text_41">
     <!-- American Put -->
     <g transform="translate(762.0975 30.718125) scale(0.12 -0.12)">
      <defs>
       <path id="DejaVuSans-50" d="M 1259 4147 
L 1259 2394 
L 2053 2394 
Q 2494 2394 2734 2622 
Q 2975 2850 2975 3272 
Q 2975 3691 2734 3919 
Q 2494 4147 2053 4147 
L 1259 4147 
z
M 628 4666 
L 2053 4666 
Q 2838 4666 3239 4311 
Q 3641 3956 3641 3272 
Q 3641 2581 3239 2228 
Q 2838 1875 2053 1875 
L 1259 1875 
L 1259 0 
L 628 0 
L 628 4666 
z
" transform="scale(0.015625)"/>
       <path id="DejaVuSans-74" d="M 1172 4494 
L 1172 3500 
L 2356 3500 
L 2356 3053 
L 1172 3053 
L 1172 1153 
Q 1172 725 1289 603 
Q 1406 481 1766 481 
L 2356 481 
L 2356 0 
L 1766 0 
Q 1100 0 847 248 
Q 594 497 594 1153 
L 594 3053 
L 172 3053 
L 172 3500 
L 594 3500 
L 594 4494 
L 1172 4494 
z
" transform="scale(0.015625)"/>
      </defs>
      <use xlink:href="#DejaVuSans-41"/>
      <use xlink:href="#DejaVuSans-6d" x="68.408203"/>
      <use xlink:href="#DejaVuSans-65" x="165.820312"/>
      <use xlink:href="#DejaVuSans-72" x="227.34375"/>
      <use xlink:href="#DejaVuSans-69" x="268.457031"/>
      <use xlink:href="#DejaVuSans-63" x="296.240234"/>
      <use xlink:href="#DejaVuSans-61" x="351.220703"/>
      <use xlink:href="#DejaVuSans-6e" x="412.5"/>
      <use xlink:href="#DejaVuSans-20" x="475.878906"/>
      <use xlink:href="#DejaVuSans-50" x="507.666016"/>
      <use xlink:href="#DejaVuSans-75" x="566.21875"/>
      <use xlink:href="#DejaVuSans-74" x="629.597656"/>
     </g>
    </g>
    <g id="line2d_46">
     <path d="M 728.4975 44.131875 
L 740.4975 44.131875 
L 752.4975 44.131875 
" style="fill: none; stroke-dasharray: 5.55,2.4; stroke-dashoffset: 0; stroke: #ff0000; stroke-width: 1.5"/>
    </g>
    <g id="text_42">
     <!-- European Put -->
     <g transform="translate(762.0975 48.331875) scale(0.12 -0.12)">
      <use xlink:href="#DejaVuSans-45"/>
      <use xlink:href="#DejaVuSans-75" x="63.183594"/>
      <use xlink:href="#DejaVuSans-72" x="126.5625"/>
      <use xlink:href="#DejaVuSans-6f" x="165.425781"/>
      <use xlink:href="#DejaVuSans-70" x="226.607422"/>
      <use xlink:href="#DejaVuSans-65" x="290.083984"/>
      <use xlink:href="#DejaVuSans-61" x="351.607422"/>
      <use xlink:href="#DejaVuSans-6e" x="412.886719"/>
      <use xlink:href="#DejaVuSans-20" x="476.265625"/>
      <use xlink:href="#DejaVuSans-50" x="508.052734"/>
      <use xlink:href="#DejaVuSans-75" x="566.605469"/>
      <use xlink:href="#DejaVuSans-74" x="629.984375"/>
     </g>
    </g>
   </g>
  </g>
 </g>
 <defs>
  <clipPath id="p0e82e759e4">
   <rect x="44.665" y="10.8" width="381.935" height="301.84"/>
  </clipPath>
  <clipPath id="p438d57990f">
   <rect x="471.265" y="10.8" width="381.935" height="301.84"/>
  </clipPath>
 </defs>
</svg>
